<?xml version="1.0" standalone="no"?>
<svg width="567" height="328" viewBox="0 0 567 328" xmlns="http://www.w3.org/2000/svg">
<title>
images/charged_decay_times_rebin.svg
</title>
<desc>
Creator: ROOT Version 5.32/00
CreationDate: Sat Dec  8 21:46:06 2012</desc>
<defs>
</defs>
<rect x="0" y="0" width="567" height="328" fill="white"/>
<rect x="57" y="33" width="397" height="262" fill="white"/>
<rect x="57" y="33" width="397" height="262" fill="none" stroke="black"/>
<rect x="57" y="33" width="397" height="262" fill="white"/>
<rect x="57" y="33" width="397" height="262" fill="none" stroke="black"/>
<path d="M57,45h 2v 172h 2v 11h 4v 4h 6v 5h 4v 5h 2v 2h 2v -1h 2v 5h 1v 4h 2v -2h 2v 7h 2v 3h 2v -2h 2v 6h 2v 4h 2v -2h 2v -1h 2v 4h 2v -4h 2v -2h 2v 4h 2v 2h 2v 2h 2v 1h 2v 6h 2v -3h 4v 5h 2v -8h 2v 7h 2v -2h 2v 5h 2v -3h 2v 4h 2v -1h 2v 1h 4v 2h 4v
 1h 4v -3h 2v 4h 4v -1h 2v 1h 4v 2h 4v -1h 2v 3h 2v -1h 2v -2h 2v 1h 2v 3h 2v -1h 2v -2h 2v 2h 2v 1h 2v -2h 2v 3h 2v -1h 2v 1h 2v -1h 2v -1h 2v 1h 2v 1h 2v -2h 2v 2h 4v -1h 1v 1h 2v 1h 6v -2h 2v 2h 2v -1h 2v 1h 4v -1h 2v 1h 2v -2h 2v 1h 4v 2h 4v -1h
 2v -1h 2v 1h 18v 1h 2v -1h 2v 1h 6v -1h 6v 1h 2v -1h 2v 1h 18v -1h 2v 1h 8v -1h 2v 1h 143" fill="none" stroke="black" stroke-width="2"/>
<rect x="459" y="232" width="102" height="63" fill="white"/>
<path d="M459,295h 102" fill="none" stroke="black"/>
<path d="M561,295v -63" fill="none" stroke="black"/>
<path d="M561,232h -102" fill="none" stroke="black"/>
<path d="M459,232v 63" fill="none" stroke="black"/>
<text x="492" y="240" fill="black" font-size="9" font-family="Helvetica">
Air_5mm
</text>
<path d="M459,243h 102" fill="none" stroke="black"/>
<text x="464" y="251" fill="black" font-size="8" font-family="Helvetica">
Mean  
</text>
<text x="532" y="251" fill="black" font-size="8" font-family="Helvetica">
  29.43
</text>
<text x="527" y="251" fill="black" font-size="8" font-family="Times">
&#0177;
</text>
<text x="501" y="251" fill="black" font-size="8" font-family="Helvetica">
   1960 
</text>
<text x="464" y="261" fill="black" font-size="8" font-family="Helvetica">
RMS   
</text>
<text x="533" y="261" fill="black" font-size="8" font-family="Helvetica">
  20.81
</text>
<text x="529" y="261" fill="black" font-size="8" font-family="Times">
&#0177;
</text>
<text x="504" y="261" fill="black" font-size="8" font-family="Helvetica">
   2101 
</text>
<text x="464" y="272" fill="black" font-size="8" font-family="Helvetica">
Underflow 
</text>
<text x="532" y="272" fill="black" font-size="8" font-family="Helvetica">
   7204
</text>
<text x="464" y="282" fill="black" font-size="8" font-family="Helvetica">
Overflow  
</text>
<text x="538" y="282" fill="black" font-size="8" font-family="Helvetica">
      2
</text>
<text x="464" y="292" fill="black" font-size="8" font-family="Helvetica">
Integral 
</text>
<text x="532" y="293" fill="black" font-size="8" font-family="Helvetica">
   5094
</text>
<path d="M57,295h 397" fill="none" stroke="black"/>
<text x="384" y="317" fill="black" font-size="11" font-family="Helvetica">
Delta time (ns)
</text>
<path d="M96,288v 7" fill="none" stroke="black"/>
<path d="M106,292v 3" fill="none" stroke="black"/>
<path d="M116,292v 3" fill="none" stroke="black"/>
<path d="M126,292v 3" fill="none" stroke="black"/>
<path d="M136,288v 7" fill="none" stroke="black"/>
<path d="M146,292v 3" fill="none" stroke="black"/>
<path d="M156,292v 3" fill="none" stroke="black"/>
<path d="M166,292v 3" fill="none" stroke="black"/>
<path d="M176,288v 7" fill="none" stroke="black"/>
<path d="M186,292v 3" fill="none" stroke="black"/>
<path d="M196,292v 3" fill="none" stroke="black"/>
<path d="M205,292v 3" fill="none" stroke="black"/>
<path d="M215,288v 7" fill="none" stroke="black"/>
<path d="M225,292v 3" fill="none" stroke="black"/>
<path d="M235,292v 3" fill="none" stroke="black"/>
<path d="M245,292v 3" fill="none" stroke="black"/>
<path d="M255,288v 7" fill="none" stroke="black"/>
<path d="M265,292v 3" fill="none" stroke="black"/>
<path d="M275,292v 3" fill="none" stroke="black"/>
<path d="M285,292v 3" fill="none" stroke="black"/>
<path d="M295,288v 7" fill="none" stroke="black"/>
<path d="M305,292v 3" fill="none" stroke="black"/>
<path d="M315,292v 3" fill="none" stroke="black"/>
<path d="M325,292v 3" fill="none" stroke="black"/>
<path d="M334,288v 7" fill="none" stroke="black"/>
<path d="M344,292v 3" fill="none" stroke="black"/>
<path d="M354,292v 3" fill="none" stroke="black"/>
<path d="M364,292v 3" fill="none" stroke="black"/>
<path d="M374,288v 7" fill="none" stroke="black"/>
<path d="M384,292v 3" fill="none" stroke="black"/>
<path d="M394,292v 3" fill="none" stroke="black"/>
<path d="M404,292v 3" fill="none" stroke="black"/>
<path d="M414,288v 7" fill="none" stroke="black"/>
<path d="M424,292v 3" fill="none" stroke="black"/>
<path d="M434,292v 3" fill="none" stroke="black"/>
<path d="M444,292v 3" fill="none" stroke="black"/>
<path d="M454,288v 7" fill="none" stroke="black"/>
<path d="M96,288v 7" fill="none" stroke="black"/>
<path d="M86,292v 3" fill="none" stroke="black"/>
<path d="M77,292v 3" fill="none" stroke="black"/>
<path d="M67,292v 3" fill="none" stroke="black"/>
<path d="M454,288v 7" fill="none" stroke="black"/>
<text x="84" y="306" fill="black" font-size="11" font-family="Helvetica">
2000
</text>
<text x="124" y="306" fill="black" font-size="11" font-family="Helvetica">
4000
</text>
<text x="164" y="306" fill="black" font-size="11" font-family="Helvetica">
6000
</text>
<text x="203" y="306" fill="black" font-size="11" font-family="Helvetica">
8000
</text>
<text x="240" y="306" fill="black" font-size="11" font-family="Helvetica">
10000
</text>
<text x="280" y="306" fill="black" font-size="11" font-family="Helvetica">
12000
</text>
<text x="319" y="306" fill="black" font-size="11" font-family="Helvetica">
14000
</text>
<text x="359" y="306" fill="black" font-size="11" font-family="Helvetica">
16000
</text>
<text x="399" y="306" fill="black" font-size="11" font-family="Helvetica">
18000
</text>
<text x="439" y="306" fill="black" font-size="11" font-family="Helvetica">
20000
</text>
<path d="M57,295v -262" fill="none" stroke="black"/>
<g transform="rotate(-90,29,61)">
<text x="29" y="61" fill="black" font-size="11" font-family="Helvetica">
Count
</text>
</g>
<path d="M70,295h -13" fill="none" stroke="black"/>
<path d="M63,288h -6" fill="none" stroke="black"/>
<path d="M63,280h -6" fill="none" stroke="black"/>
<path d="M63,272h -6" fill="none" stroke="black"/>
<path d="M63,265h -6" fill="none" stroke="black"/>
<path d="M70,257h -13" fill="none" stroke="black"/>
<path d="M63,250h -6" fill="none" stroke="black"/>
<path d="M63,242h -6" fill="none" stroke="black"/>
<path d="M63,234h -6" fill="none" stroke="black"/>
<path d="M63,227h -6" fill="none" stroke="black"/>
<path d="M70,219h -13" fill="none" stroke="black"/>
<path d="M63,212h -6" fill="none" stroke="black"/>
<path d="M63,204h -6" fill="none" stroke="black"/>
<path d="M63,196h -6" fill="none" stroke="black"/>
<path d="M63,189h -6" fill="none" stroke="black"/>
<path d="M70,181h -13" fill="none" stroke="black"/>
<path d="M63,174h -6" fill="none" stroke="black"/>
<path d="M63,166h -6" fill="none" stroke="black"/>
<path d="M63,158h -6" fill="none" stroke="black"/>
<path d="M63,151h -6" fill="none" stroke="black"/>
<path d="M70,143h -13" fill="none" stroke="black"/>
<path d="M63,136h -6" fill="none" stroke="black"/>
<path d="M63,128h -6" fill="none" stroke="black"/>
<path d="M63,120h -6" fill="none" stroke="black"/>
<path d="M63,113h -6" fill="none" stroke="black"/>
<path d="M70,105h -13" fill="none" stroke="black"/>
<path d="M63,98h -6" fill="none" stroke="black"/>
<path d="M63,90h -6" fill="none" stroke="black"/>
<path d="M63,82h -6" fill="none" stroke="black"/>
<path d="M63,75h -6" fill="none" stroke="black"/>
<path d="M70,67h -13" fill="none" stroke="black"/>
<path d="M70,67h -13" fill="none" stroke="black"/>
<path d="M63,60h -6" fill="none" stroke="black"/>
<path d="M63,52h -6" fill="none" stroke="black"/>
<path d="M63,44h -6" fill="none" stroke="black"/>
<path d="M63,37h -6" fill="none" stroke="black"/>
<text x="48" y="299" fill="black" font-size="11" font-family="Helvetica">
0
</text>
<text x="36" y="261" fill="black" font-size="11" font-family="Helvetica">
100
</text>
<text x="36" y="223" fill="black" font-size="11" font-family="Helvetica">
200
</text>
<text x="36" y="185" fill="black" font-size="11" font-family="Helvetica">
300
</text>
<text x="36" y="147" fill="black" font-size="11" font-family="Helvetica">
400
</text>
<text x="36" y="109" fill="black" font-size="11" font-family="Helvetica">
500
</text>
<text x="36" y="71" fill="black" font-size="11" font-family="Helvetica">
600
</text>
<rect x="459" y="232" width="102" height="63" fill="white"/>
<path d="M459,295h 102" fill="none" stroke="black"/>
<path d="M561,295v -63" fill="none" stroke="black"/>
<path d="M561,232h -102" fill="none" stroke="black"/>
<path d="M459,232v 63" fill="none" stroke="black"/>
<text x="492" y="240" fill="black" font-size="9" font-family="Helvetica">
Air_5mm
</text>
<path d="M459,243h 102" fill="none" stroke="black"/>
<text x="464" y="251" fill="black" font-size="8" font-family="Helvetica">
Mean  
</text>
<text x="532" y="251" fill="black" font-size="8" font-family="Helvetica">
  29.43
</text>
<text x="527" y="251" fill="black" font-size="8" font-family="Times">
&#0177;
</text>
<text x="501" y="251" fill="black" font-size="8" font-family="Helvetica">
   1960 
</text>
<text x="464" y="261" fill="black" font-size="8" font-family="Helvetica">
RMS   
</text>
<text x="533" y="261" fill="black" font-size="8" font-family="Helvetica">
  20.81
</text>
<text x="529" y="261" fill="black" font-size="8" font-family="Times">
&#0177;
</text>
<text x="504" y="261" fill="black" font-size="8" font-family="Helvetica">
   2101 
</text>
<text x="464" y="272" fill="black" font-size="8" font-family="Helvetica">
Underflow 
</text>
<text x="532" y="272" fill="black" font-size="8" font-family="Helvetica">
   7204
</text>
<text x="464" y="282" fill="black" font-size="8" font-family="Helvetica">
Overflow  
</text>
<text x="538" y="282" fill="black" font-size="8" font-family="Helvetica">
      2
</text>
<text x="464" y="292" fill="black" font-size="8" font-family="Helvetica">
Integral 
</text>
<text x="532" y="293" fill="black" font-size="8" font-family="Helvetica">
   5094
</text>
<text x="166" y="16" fill="black" font-size="16" font-family="Helvetica">
Charged particle decay times (100ns bins)
</text>
<path d="M57,47h 2v 173h 2v 16h 2v -3h 2v 13h 2v -4h 2v -2h 2v 2h 2v 4h 2v 1h 2v -2h 2v 12h 3v -2h 2v 3h 2v 10h 2v -9h 2v -2h 2v 3h 2v 9h 2v 3h 2v 1h 2v 2h 2v -5h 2v 2h 2v -1h 2v 6h 6v 2h 2v -2h 2v 1h 6v 2h 8v 4h 2v 1h 2v 1h 2v -3h 2v -1h 2v 5h 2v 1h
 2v -1h 2v 1h 2v -1h 2v 1h 2v 2h 2v 3h 2v -5h 2v -2h 2v 2h 2v 2h 2v -2h 2v 2h 2v -2h 2v 3h 2v 1h 2v -2h 2v 2h 4v -1h 2v 1h 2v 2h 2v -1h 4v -1h 2v -2h 2v 2h 2v 1h 2v 1h 2v -2h 4v 2h 3v -1h 2v -2h 2v 3h 2v -1h 6v 1h 10v 1h 2v -1h 10v -1h 2v 2h 6v -1h
 8v 1h 2v -1h 2v 1h 2v -1h 4v 1h 10v -1h 2v 1h 2v -1h 2v 1h 2v -1h 2v 1h 4v -1h 2v 1h 4v -1h 2v 1h 20v -1h 2v 1h 4v -1h 2v 1h 2v -1h 2v 1h 13v -1h 2v 1h 106" fill="none" stroke="#ff0000" stroke-width="2"/>
<rect x="459" y="166" width="102" height="63" fill="white"/>
<path d="M459,229h 102" fill="none" stroke="black"/>
<path d="M561,229v -63" fill="none" stroke="black"/>
<path d="M561,166h -102" fill="none" stroke="black"/>
<path d="M459,166v 63" fill="none" stroke="black"/>
<text x="472" y="174" fill="black" font-size="9" font-family="Helvetica">
Aluminium_0.5mm
</text>
<path d="M459,176h 102" fill="none" stroke="black"/>
<text x="464" y="184" fill="black" font-size="8" font-family="Helvetica">
Mean  
</text>
<text x="532" y="184" fill="black" font-size="8" font-family="Helvetica">
  33.34
</text>
<text x="527" y="184" fill="black" font-size="8" font-family="Times">
&#0177;
</text>
<text x="501" y="184" fill="black" font-size="8" font-family="Helvetica">
   1972 
</text>
<text x="464" y="195" fill="black" font-size="8" font-family="Helvetica">
RMS   
</text>
<text x="532" y="195" fill="black" font-size="8" font-family="Helvetica">
  23.58
</text>
<text x="527" y="195" fill="black" font-size="8" font-family="Times">
&#0177;
</text>
<text x="501" y="195" fill="black" font-size="8" font-family="Helvetica">
   2247 
</text>
<text x="464" y="206" fill="black" font-size="8" font-family="Helvetica">
Underflow 
</text>
<text x="532" y="206" fill="black" font-size="8" font-family="Helvetica">
   7188
</text>
<text x="464" y="216" fill="black" font-size="8" font-family="Helvetica">
Overflow  
</text>
<text x="538" y="216" fill="black" font-size="8" font-family="Helvetica">
      0
</text>
<text x="464" y="226" fill="black" font-size="8" font-family="Helvetica">
Integral 
</text>
<text x="532" y="227" fill="black" font-size="8" font-family="Helvetica">
   4543
</text>
<rect x="459" y="166" width="102" height="63" fill="white"/>
<path d="M459,229h 102" fill="none" stroke="black"/>
<path d="M561,229v -63" fill="none" stroke="black"/>
<path d="M561,166h -102" fill="none" stroke="black"/>
<path d="M459,166v 63" fill="none" stroke="black"/>
<text x="472" y="174" fill="black" font-size="9" font-family="Helvetica">
Aluminium_0.5mm
</text>
<path d="M459,176h 102" fill="none" stroke="black"/>
<text x="464" y="184" fill="black" font-size="8" font-family="Helvetica">
Mean  
</text>
<text x="532" y="184" fill="black" font-size="8" font-family="Helvetica">
  33.34
</text>
<text x="527" y="184" fill="black" font-size="8" font-family="Times">
&#0177;
</text>
<text x="501" y="184" fill="black" font-size="8" font-family="Helvetica">
   1972 
</text>
<text x="464" y="195" fill="black" font-size="8" font-family="Helvetica">
RMS   
</text>
<text x="532" y="195" fill="black" font-size="8" font-family="Helvetica">
  23.58
</text>
<text x="527" y="195" fill="black" font-size="8" font-family="Times">
&#0177;
</text>
<text x="501" y="195" fill="black" font-size="8" font-family="Helvetica">
   2247 
</text>
<text x="464" y="206" fill="black" font-size="8" font-family="Helvetica">
Underflow 
</text>
<text x="532" y="206" fill="black" font-size="8" font-family="Helvetica">
   7188
</text>
<text x="464" y="216" fill="black" font-size="8" font-family="Helvetica">
Overflow  
</text>
<text x="538" y="216" fill="black" font-size="8" font-family="Helvetica">
      0
</text>
<text x="464" y="226" fill="black" font-size="8" font-family="Helvetica">
Integral 
</text>
<text x="532" y="227" fill="black" font-size="8" font-family="Helvetica">
   4543
</text>
<path d="M57,50h 2v 172h 2v 24h 2v -7h 2v 6h 2v 5h 4v -1h 2v -7h 2v 6h 2v 5h 2v -1h 2v 4h 1v 5h 2v 1h 2v 7h 2v 2h 2v -11h 2v 6h 2v 9h 2v -9h 2v 9h 2v -1h 2v -7h 2v 6h 2v 5h 2v 2h 2v -6h 2v 3h 2v -3h 2v 2h 2v 6h 2v -4h 2v 4h 2v 1h 2v 1h 2v -2h 2v 2h
 2v -1h 2v 2h 2v -1h 2v -1h 4v 5h 2v -3h 2v 3h 2v 4h 2v -4h 2v 1h 6v -4h 2v 1h 2v 3h 2v -1h 2v 3h 8v -1h 2v 1h 2v 1h 4v -1h 2v 3h 2v -2h 2v 2h 2v -3h 2v 1h 4v 2h 2v -1h 6v 1h 2v -1h 3v -2h 2v 3h 4v -2h 2v 2h 4v -2h 2v 1h 2v 1h 12v 1h 2v -1h 10v 1h 8v
 -1h 4v 1h 4v -1h 4v 1h 2v -1h 10v 1h 8v -1h 2v 1h 32v -1h 4v 1h 127" fill="none" stroke="#0000ff" stroke-width="2"/>
<rect x="459" y="99" width="102" height="63" fill="white"/>
<path d="M459,162h 102" fill="none" stroke="black"/>
<path d="M561,162v -63" fill="none" stroke="black"/>
<path d="M561,99h -102" fill="none" stroke="black"/>
<path d="M459,99v 63" fill="none" stroke="black"/>
<text x="476" y="107" fill="black" font-size="9" font-family="Helvetica">
Aluminium_1mm
</text>
<path d="M459,110h 102" fill="none" stroke="black"/>
<text x="464" y="118" fill="black" font-size="8" font-family="Helvetica">
Mean  
</text>
<text x="532" y="118" fill="black" font-size="8" font-family="Helvetica">
  33.04
</text>
<text x="527" y="118" fill="black" font-size="8" font-family="Times">
&#0177;
</text>
<text x="501" y="118" fill="black" font-size="8" font-family="Helvetica">
   1942 
</text>
<text x="464" y="128" fill="black" font-size="8" font-family="Helvetica">
RMS   
</text>
<text x="532" y="128" fill="black" font-size="8" font-family="Helvetica">
  23.36
</text>
<text x="527" y="128" fill="black" font-size="8" font-family="Times">
&#0177;
</text>
<text x="501" y="128" fill="black" font-size="8" font-family="Helvetica">
   2154 
</text>
<text x="464" y="139" fill="black" font-size="8" font-family="Helvetica">
Underflow 
</text>
<text x="532" y="139" fill="black" font-size="8" font-family="Helvetica">
   7264
</text>
<text x="464" y="150" fill="black" font-size="8" font-family="Helvetica">
Overflow  
</text>
<text x="538" y="150" fill="black" font-size="8" font-family="Helvetica">
      0
</text>
<text x="464" y="159" fill="black" font-size="8" font-family="Helvetica">
Integral 
</text>
<text x="533" y="160" fill="black" font-size="8" font-family="Helvetica">
   4251
</text>
<rect x="459" y="99" width="102" height="63" fill="white"/>
<path d="M459,162h 102" fill="none" stroke="black"/>
<path d="M561,162v -63" fill="none" stroke="black"/>
<path d="M561,99h -102" fill="none" stroke="black"/>
<path d="M459,99v 63" fill="none" stroke="black"/>
<text x="476" y="107" fill="black" font-size="9" font-family="Helvetica">
Aluminium_1mm
</text>
<path d="M459,110h 102" fill="none" stroke="black"/>
<text x="464" y="118" fill="black" font-size="8" font-family="Helvetica">
Mean  
</text>
<text x="532" y="118" fill="black" font-size="8" font-family="Helvetica">
  33.04
</text>
<text x="527" y="118" fill="black" font-size="8" font-family="Times">
&#0177;
</text>
<text x="501" y="118" fill="black" font-size="8" font-family="Helvetica">
   1942 
</text>
<text x="464" y="128" fill="black" font-size="8" font-family="Helvetica">
RMS   
</text>
<text x="532" y="128" fill="black" font-size="8" font-family="Helvetica">
  23.36
</text>
<text x="527" y="128" fill="black" font-size="8" font-family="Times">
&#0177;
</text>
<text x="501" y="128" fill="black" font-size="8" font-family="Helvetica">
   2154 
</text>
<text x="464" y="139" fill="black" font-size="8" font-family="Helvetica">
Underflow 
</text>
<text x="532" y="139" fill="black" font-size="8" font-family="Helvetica">
   7264
</text>
<text x="464" y="150" fill="black" font-size="8" font-family="Helvetica">
Overflow  
</text>
<text x="538" y="150" fill="black" font-size="8" font-family="Helvetica">
      0
</text>
<text x="464" y="159" fill="black" font-size="8" font-family="Helvetica">
Integral 
</text>
<text x="533" y="160" fill="black" font-size="8" font-family="Helvetica">
   4251
</text>
<path d="M57,77h 2v 176h 2v 4h 2v 11h 2v -17h 2v 7h 2v 3h 2v -6h 2v 12h 2v -1h 2v 7h 2v -8h 2v 1h 1v 7h 2v 4h 4v -3h 2v -1h 2v 5h 2v 3h 2v -4h 2v -4h 2v 5h 4v 5h 2v -3h 2v 4h 2v -2h 2v 1h 2v 1h 2v 1h 2v 1h 4v -3h 2v 4h 2v -3h 2v 6h 2v -2h 6v 2h 2v
 -1h 2v -2h 2v 1h 2v 3h 2v 1h 2v -4h 2v 3h 2v 1h 2v -1h 4v 1h 2v -2h 2v 2h 2v 1h 2v -2h 2v 1h 2v -1h 2v 2h 2v -2h 2v 1h 2v 1h 4v -2h 2v 2h 4v 1h 2v -3h 2v 3h 6v 1h 2v -2h 4v 1h 3v -1h 2v 2h 8v -1h 8v 1h 2v -1h 2v 1h 2v -1h 4v 1h 18v -1h 10v 1h 8v -1h
 2v 1h 2v -1h 2v 1h 4v -1h 2v 1h 171" fill="none" stroke="#00ff00" stroke-width="2"/>
<rect x="459" y="33" width="102" height="63" fill="white"/>
<path d="M459,96h 102" fill="none" stroke="black"/>
<path d="M561,96v -63" fill="none" stroke="black"/>
<path d="M561,33h -102" fill="none" stroke="black"/>
<path d="M459,33v 63" fill="none" stroke="black"/>
<text x="464" y="44" fill="black" font-size="12" font-family="Helvetica">
Aluminium_5mm
</text>
<path d="M459,49h 102" fill="none" stroke="black"/>
<text x="464" y="61" fill="black" font-size="13" font-family="Helvetica">
Entries 
</text>
<text x="516" y="61" fill="black" font-size="13" font-family="Helvetica">
 10765
</text>
<text x="464" y="77" fill="black" font-size="13" font-family="Helvetica">
Mean  
</text>
<text x="516" y="77" fill="black" font-size="13" font-family="Helvetica">
   1795
</text>
<text x="464" y="93" fill="black" font-size="13" font-family="Helvetica">
RMS   
</text>
<text x="516" y="93" fill="black" font-size="13" font-family="Helvetica">
   2072
</text>
<rect x="459" y="33" width="102" height="63" fill="white"/>
<path d="M459,96h 102" fill="none" stroke="black"/>
<path d="M561,96v -63" fill="none" stroke="black"/>
<path d="M561,33h -102" fill="none" stroke="black"/>
<path d="M459,33v 63" fill="none" stroke="black"/>
<text x="476" y="41" fill="black" font-size="9" font-family="Helvetica">
Aluminium_5mm
</text>
<path d="M459,43h 102" fill="none" stroke="black"/>
<text x="464" y="52" fill="black" font-size="8" font-family="Helvetica">
Mean  
</text>
<text x="532" y="52" fill="black" font-size="8" font-family="Helvetica">
  37.86
</text>
<text x="527" y="52" fill="black" font-size="8" font-family="Times">
&#0177;
</text>
<text x="501" y="52" fill="black" font-size="8" font-family="Helvetica">
   1795 
</text>
<text x="464" y="62" fill="black" font-size="8" font-family="Helvetica">
RMS   
</text>
<text x="532" y="62" fill="black" font-size="8" font-family="Helvetica">
  26.77
</text>
<text x="527" y="62" fill="black" font-size="8" font-family="Times">
&#0177;
</text>
<text x="501" y="62" fill="black" font-size="8" font-family="Helvetica">
   2072 
</text>
<text x="464" y="73" fill="black" font-size="8" font-family="Helvetica">
Underflow 
</text>
<text x="532" y="73" fill="black" font-size="8" font-family="Helvetica">
   7770
</text>
<text x="464" y="83" fill="black" font-size="8" font-family="Helvetica">
Overflow  
</text>
<text x="538" y="83" fill="black" font-size="8" font-family="Helvetica">
      0
</text>
<text x="464" y="93" fill="black" font-size="8" font-family="Helvetica">
Integral 
</text>
<text x="532" y="94" fill="black" font-size="8" font-family="Helvetica">
   2995
</text>
<rect x="340" y="33" width="114" height="52" fill="white"/>
<path d="M340,85h 114" fill="none" stroke="black"/>
<path d="M454,85v -52" fill="none" stroke="black"/>
<path d="M454,33h -114" fill="none" stroke="black"/>
<path d="M340,33v 52" fill="none" stroke="black"/>
<text x="368" y="42" fill="black" font-size="8" font-family="Helvetica" font-weight="bold">
Air_5mm
</text>
<path d="M344,44h 20v -9h -20z" fill="white"/>
<path d="M344,40h 20" fill="none" stroke="black" stroke-width="2"/>
<g stroke="black" stroke-width="2" fill="none">
<line x1="353" y1="40" x2="354" y2="40"/>
</g>
<text x="368" y="55" fill="black" font-size="8" font-family="Helvetica" font-weight="bold">
Aluminium_0.5mm
</text>
<path d="M344,57h 20v -9h -20z" fill="white"/>
<path d="M344,53h 20" fill="none" stroke="#ff0000" stroke-width="2"/>
<g stroke="black" stroke-width="2" fill="none">
<line x1="353" y1="53" x2="354" y2="53"/>
</g>
<text x="368" y="68" fill="black" font-size="8" font-family="Helvetica" font-weight="bold">
Aluminium_1mm
</text>
<path d="M344,70h 20v -9h -20z" fill="white"/>
<path d="M344,66h 20" fill="none" stroke="#0000ff" stroke-width="2"/>
<g stroke="black" stroke-width="2" fill="none">
<line x1="353" y1="66" x2="354" y2="66"/>
</g>
<text x="368" y="81" fill="black" font-size="8" font-family="Helvetica" font-weight="bold">
Aluminium_5mm
</text>
<path d="M344,83h 20v -9h -20z" fill="white"/>
<path d="M344,79h 20" fill="none" stroke="#00ff00" stroke-width="2"/>
<g stroke="black" stroke-width="2" fill="none">
<line x1="353" y1="79" x2="354" y2="79"/>
</g></svg>
