<?xml version="1.0" standalone="no"?>
<svg width="567" height="328" viewBox="0 0 567 328" xmlns="http://www.w3.org/2000/svg">
<title>
images/charged_decay_times_rebin.svg
</title>
<desc>
Creator: ROOT Version 5.32/00
CreationDate: Wed Oct 24 15:56:37 2012</desc>
<defs>
</defs>
<rect x="0" y="0" width="567" height="328" fill="white"/>
<rect x="57" y="33" width="397" height="262" fill="white"/>
<rect x="57" y="33" width="397" height="262" fill="none" stroke="black"/>
<rect x="57" y="33" width="397" height="262" fill="white"/>
<rect x="57" y="33" width="397" height="262" fill="none" stroke="black"/>
<path d="M57,45h 2v 177h 2v 6h 2v 4h 2v -3h 2v 3h 2v -4h 2v 13h 2v 4h 2v -1h 2v 8h 2v -2h 2v 5h 1v -4h 2v 5h 2v 3h 4v 3h 4v 2h 4v 4h 2v 4h 2v -3h 2v 5h 2v -4h 2v 5h 2v -1h 2v -2h 2v 6h 2v -3h 2v 2h 2v 1h 2v 2h 2v 1h 2v 1h 2v 4h 2v -4h 2v -2h 2v 2h 4v
 3h 2v 1h 2v -1h 4v 3h 2v -2h 2v 1h 4v 1h 2v -2h 4v 4h 2v -1h 2v 1h 4v -2h 2v 1h 2v 1h 2v 1h 8v 2h 2v -3h 2v 2h 2v -1h 2v 1h 2v 1h 2v -1h 6v 1h 9v 1h 8v -1h 6v 1h 2v -1h 2v 1h 6v -1h 2v 2h 2v -1h 4v -1h 2v 2h 2v -1h 6v 1h 16v -1h 4v 1h 12v -1h 4v 1h
 38v -1h 2v 1h 127" fill="none" stroke="black" stroke-width="2"/>
<rect x="459" y="232" width="102" height="63" fill="white"/>
<path d="M459,295h 102" fill="none" stroke="black"/>
<path d="M561,295v -63" fill="none" stroke="black"/>
<path d="M561,232h -102" fill="none" stroke="black"/>
<path d="M459,232v 63" fill="none" stroke="black"/>
<text x="492" y="240" fill="black" font-size="9" font-family="Helvetica">
Air_5mm
</text>
<path d="M459,243h 102" fill="none" stroke="black"/>
<text x="464" y="251" fill="black" font-size="8" font-family="Helvetica">
Mean  
</text>
<text x="532" y="251" fill="black" font-size="8" font-family="Helvetica">
  22.44
</text>
<text x="527" y="251" fill="black" font-size="8" font-family="Times">
&#0177;
</text>
<text x="501" y="251" fill="black" font-size="8" font-family="Helvetica">
   1928 
</text>
<text x="464" y="261" fill="black" font-size="8" font-family="Helvetica">
RMS   
</text>
<text x="532" y="261" fill="black" font-size="8" font-family="Helvetica">
  15.87
</text>
<text x="527" y="261" fill="black" font-size="8" font-family="Times">
&#0177;
</text>
<text x="501" y="261" fill="black" font-size="8" font-family="Helvetica">
   2145 
</text>
<text x="464" y="272" fill="black" font-size="8" font-family="Helvetica">
Underflow 
</text>
<text x="516" y="272" fill="black" font-size="8" font-family="Helvetica">
 1.571e+04
</text>
<text x="464" y="282" fill="black" font-size="8" font-family="Helvetica">
Overflow  
</text>
<text x="540" y="282" fill="black" font-size="8" font-family="Helvetica">
      1
</text>
<text x="464" y="292" fill="black" font-size="8" font-family="Helvetica">
Integral 
</text>
<text x="532" y="293" fill="black" font-size="8" font-family="Helvetica">
   9133
</text>
<path d="M57,295h 397" fill="none" stroke="black"/>
<text x="384" y="317" fill="black" font-size="11" font-family="Helvetica">
Delta time (ns)
</text>
<path d="M96,288v 7" fill="none" stroke="black"/>
<path d="M106,292v 3" fill="none" stroke="black"/>
<path d="M116,292v 3" fill="none" stroke="black"/>
<path d="M126,292v 3" fill="none" stroke="black"/>
<path d="M136,288v 7" fill="none" stroke="black"/>
<path d="M146,292v 3" fill="none" stroke="black"/>
<path d="M156,292v 3" fill="none" stroke="black"/>
<path d="M166,292v 3" fill="none" stroke="black"/>
<path d="M176,288v 7" fill="none" stroke="black"/>
<path d="M186,292v 3" fill="none" stroke="black"/>
<path d="M196,292v 3" fill="none" stroke="black"/>
<path d="M205,292v 3" fill="none" stroke="black"/>
<path d="M215,288v 7" fill="none" stroke="black"/>
<path d="M225,292v 3" fill="none" stroke="black"/>
<path d="M235,292v 3" fill="none" stroke="black"/>
<path d="M245,292v 3" fill="none" stroke="black"/>
<path d="M255,288v 7" fill="none" stroke="black"/>
<path d="M265,292v 3" fill="none" stroke="black"/>
<path d="M275,292v 3" fill="none" stroke="black"/>
<path d="M285,292v 3" fill="none" stroke="black"/>
<path d="M295,288v 7" fill="none" stroke="black"/>
<path d="M305,292v 3" fill="none" stroke="black"/>
<path d="M315,292v 3" fill="none" stroke="black"/>
<path d="M325,292v 3" fill="none" stroke="black"/>
<path d="M334,288v 7" fill="none" stroke="black"/>
<path d="M344,292v 3" fill="none" stroke="black"/>
<path d="M354,292v 3" fill="none" stroke="black"/>
<path d="M364,292v 3" fill="none" stroke="black"/>
<path d="M374,288v 7" fill="none" stroke="black"/>
<path d="M384,292v 3" fill="none" stroke="black"/>
<path d="M394,292v 3" fill="none" stroke="black"/>
<path d="M404,292v 3" fill="none" stroke="black"/>
<path d="M414,288v 7" fill="none" stroke="black"/>
<path d="M424,292v 3" fill="none" stroke="black"/>
<path d="M434,292v 3" fill="none" stroke="black"/>
<path d="M444,292v 3" fill="none" stroke="black"/>
<path d="M454,288v 7" fill="none" stroke="black"/>
<path d="M96,288v 7" fill="none" stroke="black"/>
<path d="M86,292v 3" fill="none" stroke="black"/>
<path d="M77,292v 3" fill="none" stroke="black"/>
<path d="M67,292v 3" fill="none" stroke="black"/>
<path d="M454,288v 7" fill="none" stroke="black"/>
<text x="84" y="306" fill="black" font-size="11" font-family="Helvetica">
2000
</text>
<text x="124" y="306" fill="black" font-size="11" font-family="Helvetica">
4000
</text>
<text x="164" y="306" fill="black" font-size="11" font-family="Helvetica">
6000
</text>
<text x="203" y="306" fill="black" font-size="11" font-family="Helvetica">
8000
</text>
<text x="240" y="306" fill="black" font-size="11" font-family="Helvetica">
10000
</text>
<text x="280" y="306" fill="black" font-size="11" font-family="Helvetica">
12000
</text>
<text x="319" y="306" fill="black" font-size="11" font-family="Helvetica">
14000
</text>
<text x="359" y="306" fill="black" font-size="11" font-family="Helvetica">
16000
</text>
<text x="399" y="306" fill="black" font-size="11" font-family="Helvetica">
18000
</text>
<text x="439" y="306" fill="black" font-size="11" font-family="Helvetica">
20000
</text>
<path d="M57,295v -262" fill="none" stroke="black"/>
<g transform="rotate(-90,29,61)">
<text x="29" y="61" fill="black" font-size="11" font-family="Helvetica">
Count
</text>
</g>
<path d="M70,295h -13" fill="none" stroke="black"/>
<path d="M63,285h -6" fill="none" stroke="black"/>
<path d="M63,275h -6" fill="none" stroke="black"/>
<path d="M63,265h -6" fill="none" stroke="black"/>
<path d="M70,255h -13" fill="none" stroke="black"/>
<path d="M63,245h -6" fill="none" stroke="black"/>
<path d="M63,235h -6" fill="none" stroke="black"/>
<path d="M63,225h -6" fill="none" stroke="black"/>
<path d="M70,215h -13" fill="none" stroke="black"/>
<path d="M63,205h -6" fill="none" stroke="black"/>
<path d="M63,195h -6" fill="none" stroke="black"/>
<path d="M63,185h -6" fill="none" stroke="black"/>
<path d="M70,175h -13" fill="none" stroke="black"/>
<path d="M63,165h -6" fill="none" stroke="black"/>
<path d="M63,155h -6" fill="none" stroke="black"/>
<path d="M63,145h -6" fill="none" stroke="black"/>
<path d="M70,135h -13" fill="none" stroke="black"/>
<path d="M63,125h -6" fill="none" stroke="black"/>
<path d="M63,115h -6" fill="none" stroke="black"/>
<path d="M63,105h -6" fill="none" stroke="black"/>
<path d="M70,95h -13" fill="none" stroke="black"/>
<path d="M63,85h -6" fill="none" stroke="black"/>
<path d="M63,75h -6" fill="none" stroke="black"/>
<path d="M63,65h -6" fill="none" stroke="black"/>
<path d="M70,55h -13" fill="none" stroke="black"/>
<path d="M70,55h -13" fill="none" stroke="black"/>
<path d="M63,45h -6" fill="none" stroke="black"/>
<path d="M63,35h -6" fill="none" stroke="black"/>
<text x="48" y="299" fill="black" font-size="11" font-family="Helvetica">
0
</text>
<text x="36" y="259" fill="black" font-size="11" font-family="Helvetica">
200
</text>
<text x="36" y="219" fill="black" font-size="11" font-family="Helvetica">
400
</text>
<text x="36" y="179" fill="black" font-size="11" font-family="Helvetica">
600
</text>
<text x="36" y="139" fill="black" font-size="11" font-family="Helvetica">
800
</text>
<text x="30" y="98" fill="black" font-size="11" font-family="Helvetica">
1000
</text>
<text x="30" y="58" fill="black" font-size="11" font-family="Helvetica">
1200
</text>
<rect x="459" y="232" width="102" height="63" fill="white"/>
<path d="M459,295h 102" fill="none" stroke="black"/>
<path d="M561,295v -63" fill="none" stroke="black"/>
<path d="M561,232h -102" fill="none" stroke="black"/>
<path d="M459,232v 63" fill="none" stroke="black"/>
<text x="492" y="240" fill="black" font-size="9" font-family="Helvetica">
Air_5mm
</text>
<path d="M459,243h 102" fill="none" stroke="black"/>
<text x="464" y="251" fill="black" font-size="8" font-family="Helvetica">
Mean  
</text>
<text x="532" y="251" fill="black" font-size="8" font-family="Helvetica">
  22.44
</text>
<text x="527" y="251" fill="black" font-size="8" font-family="Times">
&#0177;
</text>
<text x="501" y="251" fill="black" font-size="8" font-family="Helvetica">
   1928 
</text>
<text x="464" y="261" fill="black" font-size="8" font-family="Helvetica">
RMS   
</text>
<text x="532" y="261" fill="black" font-size="8" font-family="Helvetica">
  15.87
</text>
<text x="527" y="261" fill="black" font-size="8" font-family="Times">
&#0177;
</text>
<text x="501" y="261" fill="black" font-size="8" font-family="Helvetica">
   2145 
</text>
<text x="464" y="272" fill="black" font-size="8" font-family="Helvetica">
Underflow 
</text>
<text x="516" y="272" fill="black" font-size="8" font-family="Helvetica">
 1.571e+04
</text>
<text x="464" y="282" fill="black" font-size="8" font-family="Helvetica">
Overflow  
</text>
<text x="540" y="282" fill="black" font-size="8" font-family="Helvetica">
      1
</text>
<text x="464" y="292" fill="black" font-size="8" font-family="Helvetica">
Integral 
</text>
<text x="532" y="293" fill="black" font-size="8" font-family="Helvetica">
   9133
</text>
<text x="166" y="16" fill="black" font-size="16" font-family="Helvetica">
Charged particle decay times (100ns bins)
</text>
<path d="M57,57h 2v 169h 2v 8h 2v 5h 2v 5h 2v -7h 2v 11h 2v 1h 2v -1h 4v 6h 2v 1h 2v 2h 3v 5h 2v 2h 2v 1h 2v 3h 2v -2h 2v 5h 2v -1h 2v 5h 2v -3h 2v 2h 2v 1h 2v 1h 2v -1h 2v 2h 2v -1h 2v 2h 2v -3h 2v 6h 2v -2h 2v 1h 2v 1h 2v 4h 4v -1h 2v 1h 2v 1h 2v
 1h 2v -2h 2v -1h 2v 2h 2v 1h 2v -2h 2v 2h 2v 1h 6v 2h 2v -2h 2v 1h 2v 1h 2v 1h 2v 1h 2v -2h 2v 1h 4v -1h 2v 1h 2v -1h 2v 2h 4v -1h 2v 1h 4v 1h 6v 1h 2v -2h 2v 1h 4v 1h 5v -1h 2v -2h 2v 3h 8v -1h 2v 1h 16v 1h 2v -1h 2v 1h 12v -1h 4v 1h 4v -1h 2v 1h
 14v -1h 2v 1h 8v -1h 2v 1h 163" fill="none" stroke="#ff0000" stroke-width="2"/>
<rect x="459" y="166" width="102" height="63" fill="white"/>
<path d="M459,229h 102" fill="none" stroke="black"/>
<path d="M561,229v -63" fill="none" stroke="black"/>
<path d="M561,166h -102" fill="none" stroke="black"/>
<path d="M459,166v 63" fill="none" stroke="black"/>
<text x="472" y="174" fill="black" font-size="9" font-family="Helvetica">
Aluminium_0.5mm
</text>
<path d="M459,176h 102" fill="none" stroke="black"/>
<text x="464" y="184" fill="black" font-size="8" font-family="Helvetica">
Mean  
</text>
<text x="532" y="184" fill="black" font-size="8" font-family="Helvetica">
  23.68
</text>
<text x="527" y="184" fill="black" font-size="8" font-family="Times">
&#0177;
</text>
<text x="501" y="184" fill="black" font-size="8" font-family="Helvetica">
   1910 
</text>
<text x="464" y="195" fill="black" font-size="8" font-family="Helvetica">
RMS   
</text>
<text x="532" y="195" fill="black" font-size="8" font-family="Helvetica">
  16.74
</text>
<text x="527" y="195" fill="black" font-size="8" font-family="Times">
&#0177;
</text>
<text x="501" y="195" fill="black" font-size="8" font-family="Helvetica">
   2129 
</text>
<text x="464" y="206" fill="black" font-size="8" font-family="Helvetica">
Underflow 
</text>
<text x="516" y="206" fill="black" font-size="8" font-family="Helvetica">
 1.532e+04
</text>
<text x="464" y="216" fill="black" font-size="8" font-family="Helvetica">
Overflow  
</text>
<text x="538" y="216" fill="black" font-size="8" font-family="Helvetica">
      0
</text>
<text x="464" y="226" fill="black" font-size="8" font-family="Helvetica">
Integral 
</text>
<text x="532" y="227" fill="black" font-size="8" font-family="Helvetica">
   8087
</text>
<rect x="459" y="166" width="102" height="63" fill="white"/>
<path d="M459,229h 102" fill="none" stroke="black"/>
<path d="M561,229v -63" fill="none" stroke="black"/>
<path d="M561,166h -102" fill="none" stroke="black"/>
<path d="M459,166v 63" fill="none" stroke="black"/>
<text x="472" y="174" fill="black" font-size="9" font-family="Helvetica">
Aluminium_0.5mm
</text>
<path d="M459,176h 102" fill="none" stroke="black"/>
<text x="464" y="184" fill="black" font-size="8" font-family="Helvetica">
Mean  
</text>
<text x="532" y="184" fill="black" font-size="8" font-family="Helvetica">
  23.68
</text>
<text x="527" y="184" fill="black" font-size="8" font-family="Times">
&#0177;
</text>
<text x="501" y="184" fill="black" font-size="8" font-family="Helvetica">
   1910 
</text>
<text x="464" y="195" fill="black" font-size="8" font-family="Helvetica">
RMS   
</text>
<text x="532" y="195" fill="black" font-size="8" font-family="Helvetica">
  16.74
</text>
<text x="527" y="195" fill="black" font-size="8" font-family="Times">
&#0177;
</text>
<text x="501" y="195" fill="black" font-size="8" font-family="Helvetica">
   2129 
</text>
<text x="464" y="206" fill="black" font-size="8" font-family="Helvetica">
Underflow 
</text>
<text x="516" y="206" fill="black" font-size="8" font-family="Helvetica">
 1.532e+04
</text>
<text x="464" y="216" fill="black" font-size="8" font-family="Helvetica">
Overflow  
</text>
<text x="538" y="216" fill="black" font-size="8" font-family="Helvetica">
      0
</text>
<text x="464" y="226" fill="black" font-size="8" font-family="Helvetica">
Integral 
</text>
<text x="532" y="227" fill="black" font-size="8" font-family="Helvetica">
   8087
</text>
<path d="M57,81h 2v 157h 2v -2h 2v 11h 2v -3h 2v 1h 2v 3h 2v 4h 2v 4h 2v -2h 2v 4h 2v 2h 2v 2h 1v 4h 4v -4h 2v 5h 2v 4h 2v 1h 2v -2h 4v 5h 2v -2h 2v 1h 4v 4h 6v 1h 4v 2h 4v 3h 2v -2h 2v 1h 4v 3h 2v -3h 2v 1h 4v 3h 2v 1h 8v -2h 2v 2h 2v 2h 2v 1h 2v
 -1h 2v -2h 2v 2h 8v -1h 2v 2h 8v 1h 2v -1h 2v 2h 4v -1h 2v -1h 2v 2h 12v 1h 2v -2h 2v 1h 2v 1h 9v -1h 4v 1h 4v 1h 4v -2h 2v 1h 2v 1h 2v -1h 2v 1h 2v -1h 10v 1h 8v -1h 8v 1h 2v -1h 2v 1h 34v -1h 2v 1h 151" fill="none" stroke="#0000ff"
 stroke-width="2"/>
<rect x="459" y="99" width="102" height="63" fill="white"/>
<path d="M459,162h 102" fill="none" stroke="black"/>
<path d="M561,162v -63" fill="none" stroke="black"/>
<path d="M561,99h -102" fill="none" stroke="black"/>
<path d="M459,99v 63" fill="none" stroke="black"/>
<text x="476" y="107" fill="black" font-size="9" font-family="Helvetica">
Aluminium_1mm
</text>
<path d="M459,110h 102" fill="none" stroke="black"/>
<text x="464" y="118" fill="black" font-size="8" font-family="Helvetica">
Mean  
</text>
<text x="532" y="118" fill="black" font-size="8" font-family="Helvetica">
  25.14
</text>
<text x="527" y="118" fill="black" font-size="8" font-family="Times">
&#0177;
</text>
<text x="501" y="118" fill="black" font-size="8" font-family="Helvetica">
   1922 
</text>
<text x="464" y="128" fill="black" font-size="8" font-family="Helvetica">
RMS   
</text>
<text x="532" y="128" fill="black" font-size="8" font-family="Helvetica">
  17.77
</text>
<text x="527" y="128" fill="black" font-size="8" font-family="Times">
&#0177;
</text>
<text x="502" y="128" fill="black" font-size="8" font-family="Helvetica">
   2151 
</text>
<text x="464" y="139" fill="black" font-size="8" font-family="Helvetica">
Underflow 
</text>
<text x="516" y="139" fill="black" font-size="8" font-family="Helvetica">
 1.538e+04
</text>
<text x="464" y="150" fill="black" font-size="8" font-family="Helvetica">
Overflow  
</text>
<text x="538" y="150" fill="black" font-size="8" font-family="Helvetica">
      0
</text>
<text x="464" y="159" fill="black" font-size="8" font-family="Helvetica">
Integral 
</text>
<text x="532" y="160" fill="black" font-size="8" font-family="Helvetica">
   7325
</text>
<rect x="459" y="99" width="102" height="63" fill="white"/>
<path d="M459,162h 102" fill="none" stroke="black"/>
<path d="M561,162v -63" fill="none" stroke="black"/>
<path d="M561,99h -102" fill="none" stroke="black"/>
<path d="M459,99v 63" fill="none" stroke="black"/>
<text x="476" y="107" fill="black" font-size="9" font-family="Helvetica">
Aluminium_1mm
</text>
<path d="M459,110h 102" fill="none" stroke="black"/>
<text x="464" y="118" fill="black" font-size="8" font-family="Helvetica">
Mean  
</text>
<text x="532" y="118" fill="black" font-size="8" font-family="Helvetica">
  25.14
</text>
<text x="527" y="118" fill="black" font-size="8" font-family="Times">
&#0177;
</text>
<text x="501" y="118" fill="black" font-size="8" font-family="Helvetica">
   1922 
</text>
<text x="464" y="128" fill="black" font-size="8" font-family="Helvetica">
RMS   
</text>
<text x="532" y="128" fill="black" font-size="8" font-family="Helvetica">
  17.77
</text>
<text x="527" y="128" fill="black" font-size="8" font-family="Times">
&#0177;
</text>
<text x="502" y="128" fill="black" font-size="8" font-family="Helvetica">
   2151 
</text>
<text x="464" y="139" fill="black" font-size="8" font-family="Helvetica">
Underflow 
</text>
<text x="516" y="139" fill="black" font-size="8" font-family="Helvetica">
 1.538e+04
</text>
<text x="464" y="150" fill="black" font-size="8" font-family="Helvetica">
Overflow  
</text>
<text x="538" y="150" fill="black" font-size="8" font-family="Helvetica">
      0
</text>
<text x="464" y="159" fill="black" font-size="8" font-family="Helvetica">
Integral 
</text>
<text x="532" y="160" fill="black" font-size="8" font-family="Helvetica">
   7325
</text>
<path d="M57,118h 2v 139h 2v 6h 2v -1h 2v 1h 2v -1h 4v 5h 2v 2h 2v 5h 2v -5h 2v 2h 2v 4h 1v -4h 2v 3h 4v 3h 2v 2h 2v 2h 2v -1h 2v 2h 2v -1h 2v 2h 4v -1h 4v 2h 2v 1h 4v -1h 2v 2h 4v -1h 2v 4h 2v -1h 2v -1h 2v 2h 6v -1h 2v 2h 2v -1h 4v -1h 2v 3h 6v -1h
 2v 3h 2v -2h 2v -1h 2v 1h 4v 1h 4v 1h 2v -1h 2v 1h 2v -1h 6v 1h 2v -1h 4v 1h 2v 1h 2v -2h 2v 1h 2v 1h 4v -1h 2v 1h 6v -1h 2v 1h 7v 1h 2v -1h 2v 1h 2v -1h 16v 1h 10v -1h 2v 1h 207" fill="none" stroke="#00ff00" stroke-width="2"/>
<rect x="459" y="33" width="102" height="63" fill="white"/>
<path d="M459,96h 102" fill="none" stroke="black"/>
<path d="M561,96v -63" fill="none" stroke="black"/>
<path d="M561,33h -102" fill="none" stroke="black"/>
<path d="M459,33v 63" fill="none" stroke="black"/>
<text x="464" y="44" fill="black" font-size="12" font-family="Helvetica">
Aluminium_5mm
</text>
<path d="M459,49h 102" fill="none" stroke="black"/>
<text x="464" y="61" fill="black" font-size="13" font-family="Helvetica">
Entries 
</text>
<text x="516" y="61" fill="black" font-size="13" font-family="Helvetica">
 19540
</text>
<text x="464" y="77" fill="black" font-size="13" font-family="Helvetica">
Mean  
</text>
<text x="516" y="77" fill="black" font-size="13" font-family="Helvetica">
   1899
</text>
<text x="464" y="93" fill="black" font-size="13" font-family="Helvetica">
RMS   
</text>
<text x="516" y="93" fill="black" font-size="13" font-family="Helvetica">
   2214
</text>
<rect x="459" y="33" width="102" height="63" fill="white"/>
<path d="M459,96h 102" fill="none" stroke="black"/>
<path d="M561,96v -63" fill="none" stroke="black"/>
<path d="M561,33h -102" fill="none" stroke="black"/>
<path d="M459,33v 63" fill="none" stroke="black"/>
<text x="476" y="41" fill="black" font-size="9" font-family="Helvetica">
Aluminium_5mm
</text>
<path d="M459,43h 102" fill="none" stroke="black"/>
<text x="464" y="52" fill="black" font-size="8" font-family="Helvetica">
Mean  
</text>
<text x="532" y="52" fill="black" font-size="8" font-family="Helvetica">
  31.39
</text>
<text x="527" y="52" fill="black" font-size="8" font-family="Times">
&#0177;
</text>
<text x="501" y="52" fill="black" font-size="8" font-family="Helvetica">
   1899 
</text>
<text x="464" y="62" fill="black" font-size="8" font-family="Helvetica">
RMS   
</text>
<text x="534" y="62" fill="black" font-size="8" font-family="Helvetica">
   22.2
</text>
<text x="530" y="62" fill="black" font-size="8" font-family="Times">
&#0177;
</text>
<text x="504" y="62" fill="black" font-size="8" font-family="Helvetica">
   2214 
</text>
<text x="464" y="73" fill="black" font-size="8" font-family="Helvetica">
Underflow 
</text>
<text x="516" y="73" fill="black" font-size="8" font-family="Helvetica">
 1.456e+04
</text>
<text x="464" y="83" fill="black" font-size="8" font-family="Helvetica">
Overflow  
</text>
<text x="538" y="83" fill="black" font-size="8" font-family="Helvetica">
      0
</text>
<text x="464" y="93" fill="black" font-size="8" font-family="Helvetica">
Integral 
</text>
<text x="532" y="94" fill="black" font-size="8" font-family="Helvetica">
   4976
</text>
<rect x="340" y="33" width="114" height="52" fill="white"/>
<path d="M340,85h 114" fill="none" stroke="black"/>
<path d="M454,85v -52" fill="none" stroke="black"/>
<path d="M454,33h -114" fill="none" stroke="black"/>
<path d="M340,33v 52" fill="none" stroke="black"/>
<text x="368" y="42" fill="black" font-size="8" font-family="Helvetica" font-weight="bold">
Air_5mm
</text>
<path d="M344,44h 20v -9h -20z" fill="white"/>
<path d="M344,40h 20" fill="none" stroke="black" stroke-width="2"/>
<g stroke="black" stroke-width="2" fill="none">
<line x1="353" y1="40" x2="354" y2="40"/>
</g>
<text x="368" y="55" fill="black" font-size="8" font-family="Helvetica" font-weight="bold">
Aluminium_0.5mm
</text>
<path d="M344,57h 20v -9h -20z" fill="white"/>
<path d="M344,53h 20" fill="none" stroke="#ff0000" stroke-width="2"/>
<g stroke="black" stroke-width="2" fill="none">
<line x1="353" y1="53" x2="354" y2="53"/>
</g>
<text x="368" y="68" fill="black" font-size="8" font-family="Helvetica" font-weight="bold">
Aluminium_1mm
</text>
<path d="M344,70h 20v -9h -20z" fill="white"/>
<path d="M344,66h 20" fill="none" stroke="#0000ff" stroke-width="2"/>
<g stroke="black" stroke-width="2" fill="none">
<line x1="353" y1="66" x2="354" y2="66"/>
</g>
<text x="368" y="81" fill="black" font-size="8" font-family="Helvetica" font-weight="bold">
Aluminium_5mm
</text>
<path d="M344,83h 20v -9h -20z" fill="white"/>
<path d="M344,79h 20" fill="none" stroke="#00ff00" stroke-width="2"/>
<g stroke="black" stroke-width="2" fill="none">
<line x1="353" y1="79" x2="354" y2="79"/>
</g></svg>
