<?xml version="1.0" standalone="no"?>
<svg width="567" height="328" viewBox="0 0 567 328" xmlns="http://www.w3.org/2000/svg">
<title>
images/muon_momentum_at_beam_pipe_exit.svg
</title>
<desc>
Creator: ROOT Version 5.32/00
CreationDate: Sun Dec  9 16:20:32 2012</desc>
<defs>
</defs>
<rect x="0" y="0" width="567" height="328" fill="white"/>
<rect x="57" y="33" width="397" height="262" fill="white"/>
<rect x="57" y="33" width="397" height="262" fill="none" stroke="black"/>
<rect x="57" y="33" width="397" height="262" fill="white"/>
<rect x="57" y="33" width="397" height="262" fill="none" stroke="black"/>
<path d="M57,295h 4v -2h 4v -4h 4v -6h 4v -8h 4v -12h 4v -14h 3v -11h 4v -17h 4v -12h 4v -17h 4v -20h 4v -16h 4v -16h 4v -17h 4v -13h 4v -10h 4v 2h 4v -12h 4v -16h 4v -3h 4v -7h 8v -7h 4v -8h 4v -2h 4v -2h 4v 11h 4v 7h 4v 17h 4v 19h 4v 10h 4v 13h 4v
 16h 4v 10h 4v 16h 4v 14h 4v 9h 3v 10h 4v 13h 4v 4h 4v 14h 4v 6h 4v 4h 4v 7h 4v 9h 4v 7h 4v -1h 4v 4h 4v 3h 4v 4h 4v 2h 4v 3h 8v 2h 4v 2h 4v 2h 8v 1h 4v 2h 4v 1h 4v 2h 4v -1h 4v 2h 4v 1h 4v 1h 8v 1h 4v 1h 7v 1h 24v 1h 96" fill="none" stroke="black"
 stroke-width="2"/>
<rect x="459" y="210" width="102" height="85" fill="white"/>
<path d="M459,295h 102" fill="none" stroke="black"/>
<path d="M561,295v -85" fill="none" stroke="black"/>
<path d="M561,210h -102" fill="none" stroke="black"/>
<path d="M459,210v 85" fill="none" stroke="black"/>
<text x="500" y="227" fill="black" font-size="18" font-family="Helvetica">
All
</text>
<path d="M459,231h 102" fill="none" stroke="black"/>
<text x="464" y="245" fill="black" font-size="8" font-family="Helvetica">
Mean  
</text>
<text x="522" y="245" fill="black" font-size="8" font-family="Helvetica">
 0.08763
</text>
<text x="517" y="245" fill="black" font-size="8" font-family="Times">
&#0177;
</text>
<text x="489" y="245" fill="black" font-size="8" font-family="Helvetica">
  62.84 
</text>
<text x="464" y="267" fill="black" font-size="8" font-family="Helvetica">
RMS   
</text>
<text x="522" y="266" fill="black" font-size="8" font-family="Helvetica">
 0.06197
</text>
<text x="517" y="266" fill="black" font-size="8" font-family="Times">
&#0177;
</text>
<text x="491" y="266" fill="black" font-size="8" font-family="Helvetica">
  27.11 
</text>
<text x="464" y="287" fill="black" font-size="8" font-family="Helvetica">
Integral 
</text>
<text x="512" y="288" fill="black" font-size="8" font-family="Helvetica">
 9.572e+04
</text>
<path d="M57,295h 397" fill="none" stroke="black"/>
<text x="359" y="317" fill="black" font-size="11" font-family="Helvetica">
Momentum (MeV/c)
</text>
<path d="M57,288v 7" fill="none" stroke="black"/>
<path d="M65,292v 3" fill="none" stroke="black"/>
<path d="M73,292v 3" fill="none" stroke="black"/>
<path d="M81,292v 3" fill="none" stroke="black"/>
<path d="M90,288v 7" fill="none" stroke="black"/>
<path d="M98,292v 3" fill="none" stroke="black"/>
<path d="M106,292v 3" fill="none" stroke="black"/>
<path d="M115,292v 3" fill="none" stroke="black"/>
<path d="M123,288v 7" fill="none" stroke="black"/>
<path d="M131,292v 3" fill="none" stroke="black"/>
<path d="M139,292v 3" fill="none" stroke="black"/>
<path d="M148,292v 3" fill="none" stroke="black"/>
<path d="M156,288v 7" fill="none" stroke="black"/>
<path d="M164,292v 3" fill="none" stroke="black"/>
<path d="M172,292v 3" fill="none" stroke="black"/>
<path d="M181,292v 3" fill="none" stroke="black"/>
<path d="M189,288v 7" fill="none" stroke="black"/>
<path d="M197,292v 3" fill="none" stroke="black"/>
<path d="M206,292v 3" fill="none" stroke="black"/>
<path d="M214,292v 3" fill="none" stroke="black"/>
<path d="M222,288v 7" fill="none" stroke="black"/>
<path d="M230,292v 3" fill="none" stroke="black"/>
<path d="M239,292v 3" fill="none" stroke="black"/>
<path d="M247,292v 3" fill="none" stroke="black"/>
<path d="M255,288v 7" fill="none" stroke="black"/>
<path d="M263,292v 3" fill="none" stroke="black"/>
<path d="M272,292v 3" fill="none" stroke="black"/>
<path d="M280,292v 3" fill="none" stroke="black"/>
<path d="M288,288v 7" fill="none" stroke="black"/>
<path d="M296,292v 3" fill="none" stroke="black"/>
<path d="M305,292v 3" fill="none" stroke="black"/>
<path d="M313,292v 3" fill="none" stroke="black"/>
<path d="M321,288v 7" fill="none" stroke="black"/>
<path d="M330,292v 3" fill="none" stroke="black"/>
<path d="M338,292v 3" fill="none" stroke="black"/>
<path d="M346,292v 3" fill="none" stroke="black"/>
<path d="M354,288v 7" fill="none" stroke="black"/>
<path d="M363,292v 3" fill="none" stroke="black"/>
<path d="M371,292v 3" fill="none" stroke="black"/>
<path d="M379,292v 3" fill="none" stroke="black"/>
<path d="M387,288v 7" fill="none" stroke="black"/>
<path d="M396,292v 3" fill="none" stroke="black"/>
<path d="M404,292v 3" fill="none" stroke="black"/>
<path d="M412,292v 3" fill="none" stroke="black"/>
<path d="M420,288v 7" fill="none" stroke="black"/>
<path d="M429,292v 3" fill="none" stroke="black"/>
<path d="M437,292v 3" fill="none" stroke="black"/>
<path d="M445,292v 3" fill="none" stroke="black"/>
<path d="M454,288v 7" fill="none" stroke="black"/>
<text x="54" y="306" fill="black" font-size="11" font-family="Helvetica">
0
</text>
<text x="84" y="306" fill="black" font-size="11" font-family="Helvetica">
20
</text>
<text x="117" y="306" fill="black" font-size="11" font-family="Helvetica">
40
</text>
<text x="150" y="306" fill="black" font-size="11" font-family="Helvetica">
60
</text>
<text x="183" y="306" fill="black" font-size="11" font-family="Helvetica">
80
</text>
<text x="213" y="306" fill="black" font-size="11" font-family="Helvetica">
100
</text>
<text x="246" y="306" fill="black" font-size="11" font-family="Helvetica">
120
</text>
<text x="279" y="306" fill="black" font-size="11" font-family="Helvetica">
140
</text>
<text x="312" y="306" fill="black" font-size="11" font-family="Helvetica">
160
</text>
<text x="346" y="306" fill="black" font-size="11" font-family="Helvetica">
180
</text>
<text x="378" y="306" fill="black" font-size="11" font-family="Helvetica">
200
</text>
<text x="412" y="306" fill="black" font-size="11" font-family="Helvetica">
220
</text>
<text x="445" y="306" fill="black" font-size="11" font-family="Helvetica">
240
</text>
<path d="M57,295v -262" fill="none" stroke="black"/>
<g transform="rotate(-90,29,61)">
<text x="29" y="61" fill="black" font-size="11" font-family="Helvetica">
Count
</text>
</g>
<path d="M70,295h -13" fill="none" stroke="black"/>
<path d="M63,288h -6" fill="none" stroke="black"/>
<path d="M63,282h -6" fill="none" stroke="black"/>
<path d="M63,275h -6" fill="none" stroke="black"/>
<path d="M63,268h -6" fill="none" stroke="black"/>
<path d="M70,261h -13" fill="none" stroke="black"/>
<path d="M63,254h -6" fill="none" stroke="black"/>
<path d="M63,248h -6" fill="none" stroke="black"/>
<path d="M63,241h -6" fill="none" stroke="black"/>
<path d="M63,234h -6" fill="none" stroke="black"/>
<path d="M70,227h -13" fill="none" stroke="black"/>
<path d="M63,221h -6" fill="none" stroke="black"/>
<path d="M63,214h -6" fill="none" stroke="black"/>
<path d="M63,207h -6" fill="none" stroke="black"/>
<path d="M63,200h -6" fill="none" stroke="black"/>
<path d="M70,193h -13" fill="none" stroke="black"/>
<path d="M63,187h -6" fill="none" stroke="black"/>
<path d="M63,180h -6" fill="none" stroke="black"/>
<path d="M63,173h -6" fill="none" stroke="black"/>
<path d="M63,166h -6" fill="none" stroke="black"/>
<path d="M70,159h -13" fill="none" stroke="black"/>
<path d="M63,153h -6" fill="none" stroke="black"/>
<path d="M63,146h -6" fill="none" stroke="black"/>
<path d="M63,139h -6" fill="none" stroke="black"/>
<path d="M63,132h -6" fill="none" stroke="black"/>
<path d="M70,126h -13" fill="none" stroke="black"/>
<path d="M63,119h -6" fill="none" stroke="black"/>
<path d="M63,112h -6" fill="none" stroke="black"/>
<path d="M63,105h -6" fill="none" stroke="black"/>
<path d="M63,98h -6" fill="none" stroke="black"/>
<path d="M70,92h -13" fill="none" stroke="black"/>
<path d="M63,85h -6" fill="none" stroke="black"/>
<path d="M63,78h -6" fill="none" stroke="black"/>
<path d="M63,71h -6" fill="none" stroke="black"/>
<path d="M63,64h -6" fill="none" stroke="black"/>
<path d="M70,58h -13" fill="none" stroke="black"/>
<path d="M70,58h -13" fill="none" stroke="black"/>
<path d="M63,51h -6" fill="none" stroke="black"/>
<path d="M63,44h -6" fill="none" stroke="black"/>
<path d="M63,37h -6" fill="none" stroke="black"/>
<text x="48" y="299" fill="black" font-size="11" font-family="Helvetica">
0
</text>
<text x="36" y="265" fill="black" font-size="11" font-family="Helvetica">
500
</text>
<text x="30" y="231" fill="black" font-size="11" font-family="Helvetica">
1000
</text>
<text x="30" y="197" fill="black" font-size="11" font-family="Helvetica">
1500
</text>
<text x="30" y="163" fill="black" font-size="11" font-family="Helvetica">
2000
</text>
<text x="30" y="129" fill="black" font-size="11" font-family="Helvetica">
2500
</text>
<text x="30" y="95" fill="black" font-size="11" font-family="Helvetica">
3000
</text>
<text x="30" y="62" fill="black" font-size="11" font-family="Helvetica">
3500
</text>
<rect x="459" y="210" width="102" height="85" fill="white"/>
<path d="M459,295h 102" fill="none" stroke="black"/>
<path d="M561,295v -85" fill="none" stroke="black"/>
<path d="M561,210h -102" fill="none" stroke="black"/>
<path d="M459,210v 85" fill="none" stroke="black"/>
<text x="500" y="227" fill="black" font-size="18" font-family="Helvetica">
All
</text>
<path d="M459,231h 102" fill="none" stroke="black"/>
<text x="464" y="245" fill="black" font-size="8" font-family="Helvetica">
Mean  
</text>
<text x="522" y="245" fill="black" font-size="8" font-family="Helvetica">
 0.08763
</text>
<text x="517" y="245" fill="black" font-size="8" font-family="Times">
&#0177;
</text>
<text x="489" y="245" fill="black" font-size="8" font-family="Helvetica">
  62.84 
</text>
<text x="464" y="267" fill="black" font-size="8" font-family="Helvetica">
RMS   
</text>
<text x="522" y="266" fill="black" font-size="8" font-family="Helvetica">
 0.06197
</text>
<text x="517" y="266" fill="black" font-size="8" font-family="Times">
&#0177;
</text>
<text x="491" y="266" fill="black" font-size="8" font-family="Helvetica">
  27.11 
</text>
<text x="464" y="287" fill="black" font-size="8" font-family="Helvetica">
Integral 
</text>
<text x="512" y="288" fill="black" font-size="8" font-family="Helvetica">
 9.572e+04
</text>
<text x="106" y="16" fill="black" font-size="16" font-family="Helvetica">
Muon momentum at beampipe
</text>
<path d="M57,295h 4v -1h 4v -4h 4v -5h 4v -7h 4v -11h 4v -12h 3v -10h 4v -15h 4v -11h 4v -14h 4v -19h 4v -16h 4v -15h 4v -14h 4v -12h 4v -5h 4v -1h 4v -12h 4v -12h 4v -5h 4v -6h 4v 2h 4v -8h 4v -10h 4v -2h 4v -1h 4v 8h 4v 7h 4v 15h 4v 15h 4v 12h 4v
 9h 4v 16h 4v 9h 4v 13h 4v 14h 4v 8h 3v 10h 4v 12h 4v 3h 4v 13h 4v 6h 4v 3h 4v 7h 4v 8h 4v 7h 4v -2h 4v 4h 4v 4h 4v 3h 4v 2h 4v 2h 4v -1h 4v 3h 4v 2h 4v 2h 8v 1h 4v 1h 4v 2h 4v 2h 4v -1h 4v 2h 8v 1h 8v 1h 4v 1h 7v 1h 24v 1h 96" fill="none"
 stroke="#ff0000" stroke-width="2"/>
<rect x="459" y="121" width="102" height="86" fill="white"/>
<path d="M459,207h 102" fill="none" stroke="black"/>
<path d="M561,207v -86" fill="none" stroke="black"/>
<path d="M561,121h -102" fill="none" stroke="black"/>
<path d="M459,121v 86" fill="none" stroke="black"/>
<text x="510" y="136" fill="black" font-size="18" font-family="Helvetica">
+
</text>
<text x="500" y="136" fill="black" font-size="18" font-family="Times">
&#0956;
</text>
<path d="M459,143h 102" fill="none" stroke="black"/>
<text x="464" y="157" fill="black" font-size="8" font-family="Helvetica">
Mean  
</text>
<text x="522" y="157" fill="black" font-size="8" font-family="Helvetica">
 0.09255
</text>
<text x="517" y="157" fill="black" font-size="8" font-family="Times">
&#0177;
</text>
<text x="491" y="157" fill="black" font-size="8" font-family="Helvetica">
   63.3 
</text>
<text x="464" y="178" fill="black" font-size="8" font-family="Helvetica">
RMS   
</text>
<text x="522" y="178" fill="black" font-size="8" font-family="Helvetica">
 0.06544
</text>
<text x="517" y="178" fill="black" font-size="8" font-family="Times">
&#0177;
</text>
<text x="489" y="178" fill="black" font-size="8" font-family="Helvetica">
  27.25 
</text>
<text x="464" y="198" fill="black" font-size="8" font-family="Helvetica">
Integral 
</text>
<text x="512" y="199" fill="black" font-size="8" font-family="Helvetica">
 8.671e+04
</text>
<rect x="459" y="121" width="102" height="86" fill="white"/>
<path d="M459,207h 102" fill="none" stroke="black"/>
<path d="M561,207v -86" fill="none" stroke="black"/>
<path d="M561,121h -102" fill="none" stroke="black"/>
<path d="M459,121v 86" fill="none" stroke="black"/>
<text x="510" y="136" fill="black" font-size="18" font-family="Helvetica">
+
</text>
<text x="500" y="136" fill="black" font-size="18" font-family="Times">
&#0956;
</text>
<path d="M459,143h 102" fill="none" stroke="black"/>
<text x="464" y="157" fill="black" font-size="8" font-family="Helvetica">
Mean  
</text>
<text x="522" y="157" fill="black" font-size="8" font-family="Helvetica">
 0.09255
</text>
<text x="517" y="157" fill="black" font-size="8" font-family="Times">
&#0177;
</text>
<text x="491" y="157" fill="black" font-size="8" font-family="Helvetica">
   63.3 
</text>
<text x="464" y="178" fill="black" font-size="8" font-family="Helvetica">
RMS   
</text>
<text x="522" y="178" fill="black" font-size="8" font-family="Helvetica">
 0.06544
</text>
<text x="517" y="178" fill="black" font-size="8" font-family="Times">
&#0177;
</text>
<text x="489" y="178" fill="black" font-size="8" font-family="Helvetica">
  27.25 
</text>
<text x="464" y="198" fill="black" font-size="8" font-family="Helvetica">
Integral 
</text>
<text x="512" y="199" fill="black" font-size="8" font-family="Helvetica">
 8.671e+04
</text>
<path d="M57,295h 13v -1h 3v -1h 3v -1h 3v -1h 4v -1h 3v -1h 3v -2h 7v -1h 3v -2h 6v -1h 4v -1h 3v -1h 6v -2h 4v -4h 3v 4h 3v -2h 3v -2h 3v 2h 7v -2h 6v -1h 4v 2h 3v 2h 3v -3h 7v 4h 3v -1h 3v 2h 3v 1h 4v 1h 3v -1h 3v 4h 3v -1h 4v 2h 6v 1h 7v 2h 3v
 -2h 3v 1h 3v 2h 7v 1h 3v 1h 13v 1h 10v 1h 3v -1h 6v 1h 23v 1h 104" fill="none" stroke="#0000ff" stroke-width="2"/>
<rect x="459" y="33" width="102" height="85" fill="white"/>
<path d="M459,118h 102" fill="none" stroke="black"/>
<path d="M561,118v -85" fill="none" stroke="black"/>
<path d="M561,33h -102" fill="none" stroke="black"/>
<path d="M459,33v 85" fill="none" stroke="black"/>
<text x="512" y="46" fill="black" font-size="18" font-family="Helvetica">
-
</text>
<text x="502" y="46" fill="black" font-size="18" font-family="Times">
&#0956;
</text>
<path d="M459,54h 102" fill="none" stroke="black"/>
<text x="464" y="70" fill="black" font-size="14" font-family="Helvetica">
Entries 
</text>
<text x="521" y="70" fill="black" font-size="14" font-family="Helvetica">
 9009
</text>
<text x="464" y="91" fill="black" font-size="14" font-family="Helvetica">
Mean  
</text>
<text x="514" y="91" fill="black" font-size="14" font-family="Helvetica">
  58.42
</text>
<text x="464" y="113" fill="black" font-size="14" font-family="Helvetica">
RMS   
</text>
<text x="514" y="113" fill="black" font-size="14" font-family="Helvetica">
  25.29
</text>
<rect x="459" y="33" width="102" height="85" fill="white"/>
<path d="M459,118h 102" fill="none" stroke="black"/>
<path d="M561,118v -85" fill="none" stroke="black"/>
<path d="M561,33h -102" fill="none" stroke="black"/>
<path d="M459,33v 85" fill="none" stroke="black"/>
<text x="512" y="46" fill="black" font-size="18" font-family="Helvetica">
-
</text>
<text x="502" y="46" fill="black" font-size="18" font-family="Times">
&#0956;
</text>
<path d="M459,54h 102" fill="none" stroke="black"/>
<text x="464" y="68" fill="black" font-size="9" font-family="Helvetica">
Mean  
</text>
<text x="526" y="68" fill="black" font-size="9" font-family="Helvetica">
 0.2665
</text>
<text x="521" y="68" fill="black" font-size="9" font-family="Times">
&#0177;
</text>
<text x="491" y="68" fill="black" font-size="9" font-family="Helvetica">
  58.42 
</text>
<text x="464" y="90" fill="black" font-size="9" font-family="Helvetica">
RMS   
</text>
<text x="526" y="90" fill="black" font-size="9" font-family="Helvetica">
 0.1884
</text>
<text x="521" y="90" fill="black" font-size="9" font-family="Times">
&#0177;
</text>
<text x="491" y="90" fill="black" font-size="9" font-family="Helvetica">
  25.29 
</text>
<text x="464" y="110" fill="black" font-size="9" font-family="Helvetica">
Integral 
</text>
<text x="528" y="111" fill="black" font-size="9" font-family="Helvetica">
   9009
</text>
<rect x="340" y="33" width="114" height="39" fill="white"/>
<path d="M340,72h 114" fill="none" stroke="black"/>
<path d="M454,72v -39" fill="none" stroke="black"/>
<path d="M454,33h -114" fill="none" stroke="black"/>
<path d="M340,33v 39" fill="none" stroke="black"/>
<text x="368" y="43" fill="black" font-size="9" font-family="Helvetica" font-weight="bold">
All
</text>
<path d="M344,44h 20v -9h -20z" fill="white"/>
<path d="M344,40h 20" fill="none" stroke="black" stroke-width="2"/>
<g stroke="black" stroke-width="2" fill="none">
<line x1="353" y1="40" x2="354" y2="40"/>
</g>
<text x="373" y="54" fill="black" font-size="9" font-family="Helvetica" font-weight="bold">
+
</text>
<text x="368" y="54" fill="black" font-size="9" font-family="Times">
&#0956;
</text>
<path d="M344,57h 20v -9h -20z" fill="white"/>
<path d="M344,53h 20" fill="none" stroke="#ff0000" stroke-width="2"/>
<g stroke="black" stroke-width="2" fill="none">
<line x1="353" y1="53" x2="354" y2="53"/>
</g>
<text x="373" y="67" fill="black" font-size="9" font-family="Helvetica" font-weight="bold">
-
</text>
<text x="368" y="67" fill="black" font-size="9" font-family="Times">
&#0956;
</text>
<path d="M344,70h 20v -9h -20z" fill="white"/>
<path d="M344,66h 20" fill="none" stroke="#0000ff" stroke-width="2"/>
<g stroke="black" stroke-width="2" fill="none">
<line x1="353" y1="66" x2="354" y2="66"/>
</g></svg>
