<?xml version="1.0" standalone="no"?>
<svg width="567" height="328" viewBox="0 0 567 328" xmlns="http://www.w3.org/2000/svg">
<title>
../../../images/final_analysis/muon_momentum_at_target.svg
</title>
<desc>
Creator: ROOT Version 5.32/00
CreationDate: Fri Sep 28 00:38:16 2012</desc>
<defs>
</defs>
<rect x="0" y="0" width="567" height="328" fill="white"/>
<rect x="57" y="33" width="397" height="262" fill="white"/>
<rect x="57" y="33" width="397" height="262" fill="none" stroke="black"/>
<rect x="57" y="33" width="397" height="262" fill="white"/>
<rect x="57" y="33" width="397" height="262" fill="none" stroke="black"/>
<path d="M57,194h 8v 54h 8v 2h 8v -23h 7v -20h 8v -5h 8v -14h 8v -23h 8v -25h 8v -21h 8v -31h 8v -1h 8v -42h 8v 15h 8v 2h 8v 11h 8v 9h 8v -3h 8v 38h 7v 23h 8v 15h 8v 19h 8v 11h 8v 21h 8v 18h 8v 11h 8v 10h 8v 7h 8v 5h 8v 3h 8v 5h 8v 10h 8v 3h 8v 1h 8v
 -3h 7v 6h 8v 5h 8v -1h 8v 5h 8v -1h 8v 2h 8v 1h 8v 1h 16v 1h 16v -1h 8v 1h 24" fill="none" stroke="black" stroke-width="2"/>
<rect x="459" y="254" width="102" height="41" fill="white"/>
<path d="M459,295h 102" fill="none" stroke="black"/>
<path d="M561,295v -41" fill="none" stroke="black"/>
<path d="M561,254h -102" fill="none" stroke="black"/>
<path d="M459,254v 41" fill="none" stroke="black"/>
<text x="492" y="261" fill="black" font-size="9" font-family="Helvetica">
Air_5mm
</text>
<path d="M459,264h 102" fill="none" stroke="black"/>
<text x="464" y="273" fill="black" font-size="8" font-family="Helvetica">
Mean  
</text>
<text x="528" y="273" fill="black" font-size="8" font-family="Helvetica">
 0.2646
</text>
<text x="523" y="273" fill="black" font-size="8" font-family="Times">
&#0177;
</text>
<text x="496" y="273" fill="black" font-size="8" font-family="Helvetica">
  59.96 
</text>
<text x="464" y="283" fill="black" font-size="8" font-family="Helvetica">
RMS   
</text>
<text x="529" y="283" fill="black" font-size="8" font-family="Helvetica">
 0.1871
</text>
<text x="525" y="283" fill="black" font-size="8" font-family="Times">
&#0177;
</text>
<text x="497" y="283" fill="black" font-size="8" font-family="Helvetica">
  30.07 
</text>
<text x="464" y="292" fill="black" font-size="8" font-family="Helvetica">
Integral 
</text>
<text x="514" y="293" fill="black" font-size="8" font-family="Helvetica">
 1.292e+04
</text>
<path d="M57,295h 397" fill="none" stroke="black"/>
<text x="359" y="317" fill="black" font-size="11" font-family="Helvetica">
Momentum (MeV/c)
</text>
<path d="M57,288v 7" fill="none" stroke="black"/>
<path d="M67,292v 3" fill="none" stroke="black"/>
<path d="M77,292v 3" fill="none" stroke="black"/>
<path d="M86,292v 3" fill="none" stroke="black"/>
<path d="M96,288v 7" fill="none" stroke="black"/>
<path d="M106,292v 3" fill="none" stroke="black"/>
<path d="M116,292v 3" fill="none" stroke="black"/>
<path d="M126,292v 3" fill="none" stroke="black"/>
<path d="M136,288v 7" fill="none" stroke="black"/>
<path d="M146,292v 3" fill="none" stroke="black"/>
<path d="M156,292v 3" fill="none" stroke="black"/>
<path d="M166,292v 3" fill="none" stroke="black"/>
<path d="M176,288v 7" fill="none" stroke="black"/>
<path d="M186,292v 3" fill="none" stroke="black"/>
<path d="M196,292v 3" fill="none" stroke="black"/>
<path d="M206,292v 3" fill="none" stroke="black"/>
<path d="M215,288v 7" fill="none" stroke="black"/>
<path d="M225,292v 3" fill="none" stroke="black"/>
<path d="M235,292v 3" fill="none" stroke="black"/>
<path d="M245,292v 3" fill="none" stroke="black"/>
<path d="M255,288v 7" fill="none" stroke="black"/>
<path d="M265,292v 3" fill="none" stroke="black"/>
<path d="M275,292v 3" fill="none" stroke="black"/>
<path d="M285,292v 3" fill="none" stroke="black"/>
<path d="M295,288v 7" fill="none" stroke="black"/>
<path d="M305,292v 3" fill="none" stroke="black"/>
<path d="M315,292v 3" fill="none" stroke="black"/>
<path d="M325,292v 3" fill="none" stroke="black"/>
<path d="M334,288v 7" fill="none" stroke="black"/>
<path d="M344,292v 3" fill="none" stroke="black"/>
<path d="M354,292v 3" fill="none" stroke="black"/>
<path d="M364,292v 3" fill="none" stroke="black"/>
<path d="M374,288v 7" fill="none" stroke="black"/>
<path d="M384,292v 3" fill="none" stroke="black"/>
<path d="M394,292v 3" fill="none" stroke="black"/>
<path d="M404,292v 3" fill="none" stroke="black"/>
<path d="M414,288v 7" fill="none" stroke="black"/>
<path d="M424,292v 3" fill="none" stroke="black"/>
<path d="M434,292v 3" fill="none" stroke="black"/>
<path d="M444,292v 3" fill="none" stroke="black"/>
<path d="M454,288v 7" fill="none" stroke="black"/>
<text x="54" y="306" fill="black" font-size="11" font-family="Helvetica">
0
</text>
<text x="90" y="306" fill="black" font-size="11" font-family="Helvetica">
20
</text>
<text x="130" y="306" fill="black" font-size="11" font-family="Helvetica">
40
</text>
<text x="169" y="306" fill="black" font-size="11" font-family="Helvetica">
60
</text>
<text x="209" y="306" fill="black" font-size="11" font-family="Helvetica">
80
</text>
<text x="246" y="306" fill="black" font-size="11" font-family="Helvetica">
100
</text>
<text x="286" y="306" fill="black" font-size="11" font-family="Helvetica">
120
</text>
<text x="325" y="306" fill="black" font-size="11" font-family="Helvetica">
140
</text>
<text x="365" y="306" fill="black" font-size="11" font-family="Helvetica">
160
</text>
<text x="405" y="306" fill="black" font-size="11" font-family="Helvetica">
180
</text>
<text x="445" y="306" fill="black" font-size="11" font-family="Helvetica">
200
</text>
<path d="M57,295v -262" fill="none" stroke="black"/>
<g transform="rotate(-90,29,61)">
<text x="29" y="61" fill="black" font-size="11" font-family="Helvetica">
Count
</text>
</g>
<path d="M70,295h -13" fill="none" stroke="black"/>
<path d="M63,289h -6" fill="none" stroke="black"/>
<path d="M63,283h -6" fill="none" stroke="black"/>
<path d="M63,276h -6" fill="none" stroke="black"/>
<path d="M63,270h -6" fill="none" stroke="black"/>
<path d="M70,264h -13" fill="none" stroke="black"/>
<path d="M63,258h -6" fill="none" stroke="black"/>
<path d="M63,251h -6" fill="none" stroke="black"/>
<path d="M63,245h -6" fill="none" stroke="black"/>
<path d="M63,239h -6" fill="none" stroke="black"/>
<path d="M70,233h -13" fill="none" stroke="black"/>
<path d="M63,226h -6" fill="none" stroke="black"/>
<path d="M63,220h -6" fill="none" stroke="black"/>
<path d="M63,214h -6" fill="none" stroke="black"/>
<path d="M63,208h -6" fill="none" stroke="black"/>
<path d="M70,201h -13" fill="none" stroke="black"/>
<path d="M63,195h -6" fill="none" stroke="black"/>
<path d="M63,189h -6" fill="none" stroke="black"/>
<path d="M63,183h -6" fill="none" stroke="black"/>
<path d="M63,176h -6" fill="none" stroke="black"/>
<path d="M70,170h -13" fill="none" stroke="black"/>
<path d="M63,164h -6" fill="none" stroke="black"/>
<path d="M63,158h -6" fill="none" stroke="black"/>
<path d="M63,151h -6" fill="none" stroke="black"/>
<path d="M63,145h -6" fill="none" stroke="black"/>
<path d="M70,139h -13" fill="none" stroke="black"/>
<path d="M63,132h -6" fill="none" stroke="black"/>
<path d="M63,126h -6" fill="none" stroke="black"/>
<path d="M63,120h -6" fill="none" stroke="black"/>
<path d="M63,114h -6" fill="none" stroke="black"/>
<path d="M70,107h -13" fill="none" stroke="black"/>
<path d="M63,101h -6" fill="none" stroke="black"/>
<path d="M63,95h -6" fill="none" stroke="black"/>
<path d="M63,89h -6" fill="none" stroke="black"/>
<path d="M63,82h -6" fill="none" stroke="black"/>
<path d="M70,76h -13" fill="none" stroke="black"/>
<path d="M63,70h -6" fill="none" stroke="black"/>
<path d="M63,64h -6" fill="none" stroke="black"/>
<path d="M63,57h -6" fill="none" stroke="black"/>
<path d="M63,51h -6" fill="none" stroke="black"/>
<path d="M70,45h -13" fill="none" stroke="black"/>
<path d="M70,45h -13" fill="none" stroke="black"/>
<path d="M63,39h -6" fill="none" stroke="black"/>
<text x="48" y="299" fill="black" font-size="11" font-family="Helvetica">
0
</text>
<text x="36" y="268" fill="black" font-size="11" font-family="Helvetica">
100
</text>
<text x="36" y="237" fill="black" font-size="11" font-family="Helvetica">
200
</text>
<text x="36" y="205" fill="black" font-size="11" font-family="Helvetica">
300
</text>
<text x="36" y="174" fill="black" font-size="11" font-family="Helvetica">
400
</text>
<text x="36" y="142" fill="black" font-size="11" font-family="Helvetica">
500
</text>
<text x="36" y="111" fill="black" font-size="11" font-family="Helvetica">
600
</text>
<text x="36" y="80" fill="black" font-size="11" font-family="Helvetica">
700
</text>
<text x="36" y="48" fill="black" font-size="11" font-family="Helvetica">
800
</text>
<rect x="459" y="254" width="102" height="41" fill="white"/>
<path d="M459,295h 102" fill="none" stroke="black"/>
<path d="M561,295v -41" fill="none" stroke="black"/>
<path d="M561,254h -102" fill="none" stroke="black"/>
<path d="M459,254v 41" fill="none" stroke="black"/>
<text x="492" y="261" fill="black" font-size="9" font-family="Helvetica">
Air_5mm
</text>
<path d="M459,264h 102" fill="none" stroke="black"/>
<text x="464" y="273" fill="black" font-size="8" font-family="Helvetica">
Mean  
</text>
<text x="528" y="273" fill="black" font-size="8" font-family="Helvetica">
 0.2646
</text>
<text x="523" y="273" fill="black" font-size="8" font-family="Times">
&#0177;
</text>
<text x="496" y="273" fill="black" font-size="8" font-family="Helvetica">
  59.96 
</text>
<text x="464" y="283" fill="black" font-size="8" font-family="Helvetica">
RMS   
</text>
<text x="529" y="283" fill="black" font-size="8" font-family="Helvetica">
 0.1871
</text>
<text x="525" y="283" fill="black" font-size="8" font-family="Times">
&#0177;
</text>
<text x="497" y="283" fill="black" font-size="8" font-family="Helvetica">
  30.07 
</text>
<text x="464" y="292" fill="black" font-size="8" font-family="Helvetica">
Integral 
</text>
<text x="514" y="293" fill="black" font-size="8" font-family="Helvetica">
 1.292e+04
</text>
<text x="163" y="16" fill="black" font-size="15" font-family="Helvetica">
Muon momentum for different degraders at the target
</text>
<path d="M57,247h 8v 34h 8v -8h 8v -16h 7v -7h 8v -27h 8v -28h 8v -7h 8v -30h 8v -42h 8v 3h 8v -45h 8v -2h 16v 2h 16v 22h 8v -3h 8v 28h 7v 27h 8v 12h 8v 14h 8v 19h 8v 16h 8v 20h 8v 9h 8v 7h 8v 7h 8v 4h 8v 4h 8v 10h 8v 4h 8v 4h 8v 1h 8v -2h 7v 5h 8v
 5h 8v -1h 8v 5h 8v -1h 8v 2h 8v 1h 8v 1h 16v 1h 16v -1h 8v 1h 24" fill="none" stroke="#ff0000" stroke-width="2"/>
<rect x="459" y="210" width="102" height="41" fill="white"/>
<path d="M459,251h 102" fill="none" stroke="black"/>
<path d="M561,251v -41" fill="none" stroke="black"/>
<path d="M561,210h -102" fill="none" stroke="black"/>
<path d="M459,210v 41" fill="none" stroke="black"/>
<text x="474" y="217" fill="black" font-size="9" font-family="Helvetica">
Aluminium_0.5mm
</text>
<path d="M459,220h 102" fill="none" stroke="black"/>
<text x="464" y="228" fill="black" font-size="8" font-family="Helvetica">
Mean  
</text>
<text x="528" y="228" fill="black" font-size="8" font-family="Helvetica">
 0.2653
</text>
<text x="523" y="228" fill="black" font-size="8" font-family="Times">
&#0177;
</text>
<text x="496" y="228" fill="black" font-size="8" font-family="Helvetica">
  62.79 
</text>
<text x="464" y="239" fill="black" font-size="8" font-family="Helvetica">
RMS   
</text>
<text x="528" y="239" fill="black" font-size="8" font-family="Helvetica">
 0.1876
</text>
<text x="523" y="239" fill="black" font-size="8" font-family="Times">
&#0177;
</text>
<text x="496" y="239" fill="black" font-size="8" font-family="Helvetica">
  28.67 
</text>
<text x="464" y="248" fill="black" font-size="8" font-family="Helvetica">
Integral 
</text>
<text x="514" y="249" fill="black" font-size="8" font-family="Helvetica">
 1.168e+04
</text>
<rect x="459" y="210" width="102" height="41" fill="white"/>
<path d="M459,251h 102" fill="none" stroke="black"/>
<path d="M561,251v -41" fill="none" stroke="black"/>
<path d="M561,210h -102" fill="none" stroke="black"/>
<path d="M459,210v 41" fill="none" stroke="black"/>
<text x="474" y="217" fill="black" font-size="9" font-family="Helvetica">
Aluminium_0.5mm
</text>
<path d="M459,220h 102" fill="none" stroke="black"/>
<text x="464" y="228" fill="black" font-size="8" font-family="Helvetica">
Mean  
</text>
<text x="528" y="228" fill="black" font-size="8" font-family="Helvetica">
 0.2653
</text>
<text x="523" y="228" fill="black" font-size="8" font-family="Times">
&#0177;
</text>
<text x="496" y="228" fill="black" font-size="8" font-family="Helvetica">
  62.79 
</text>
<text x="464" y="239" fill="black" font-size="8" font-family="Helvetica">
RMS   
</text>
<text x="528" y="239" fill="black" font-size="8" font-family="Helvetica">
 0.1876
</text>
<text x="523" y="239" fill="black" font-size="8" font-family="Times">
&#0177;
</text>
<text x="496" y="239" fill="black" font-size="8" font-family="Helvetica">
  28.67 
</text>
<text x="464" y="248" fill="black" font-size="8" font-family="Helvetica">
Integral 
</text>
<text x="514" y="249" fill="black" font-size="8" font-family="Helvetica">
 1.168e+04
</text>
<path d="M57,253h 8v 27h 8v -2h 8v -16h 7v -13h 8v -22h 8v -5h 8v -25h 8v -41h 8v -28h 8v -1h 8v -42h 8v -13h 8v 11h 16v 11h 8v 1h 8v 15h 8v 19h 7v 23h 8v 8h 8v 24h 8v 7h 8v 22h 8v 20h 8v 3h 8v 13h 8v 2h 8v 8h 8v -1h 8v 10h 8v 8h 8v 1h 8v 2h 15v 4h
 8v 5h 8v -2h 8v 5h 8v -1h 8v 1h 8v 3h 24v 1h 16v -1h 8v 1h 24" fill="none" stroke="#0000ff" stroke-width="2"/>
<rect x="459" y="166" width="102" height="41" fill="white"/>
<path d="M459,207h 102" fill="none" stroke="black"/>
<path d="M561,207v -41" fill="none" stroke="black"/>
<path d="M561,166h -102" fill="none" stroke="black"/>
<path d="M459,166v 41" fill="none" stroke="black"/>
<text x="477" y="173" fill="black" font-size="9" font-family="Helvetica">
Aluminium_1mm
</text>
<path d="M459,176h 102" fill="none" stroke="black"/>
<text x="464" y="184" fill="black" font-size="8" font-family="Helvetica">
Mean  
</text>
<text x="528" y="184" fill="black" font-size="8" font-family="Helvetica">
 0.2717
</text>
<text x="523" y="184" fill="black" font-size="8" font-family="Times">
&#0177;
</text>
<text x="496" y="184" fill="black" font-size="8" font-family="Helvetica">
  63.39 
</text>
<text x="464" y="194" fill="black" font-size="8" font-family="Helvetica">
RMS   
</text>
<text x="529" y="194" fill="black" font-size="8" font-family="Helvetica">
 0.1921
</text>
<text x="525" y="194" fill="black" font-size="8" font-family="Times">
&#0177;
</text>
<text x="497" y="194" fill="black" font-size="8" font-family="Helvetica">
  28.68 
</text>
<text x="464" y="204" fill="black" font-size="8" font-family="Helvetica">
Integral 
</text>
<text x="515" y="204" fill="black" font-size="8" font-family="Helvetica">
 1.114e+04
</text>
<rect x="459" y="166" width="102" height="41" fill="white"/>
<path d="M459,207h 102" fill="none" stroke="black"/>
<path d="M561,207v -41" fill="none" stroke="black"/>
<path d="M561,166h -102" fill="none" stroke="black"/>
<path d="M459,166v 41" fill="none" stroke="black"/>
<text x="477" y="173" fill="black" font-size="9" font-family="Helvetica">
Aluminium_1mm
</text>
<path d="M459,176h 102" fill="none" stroke="black"/>
<text x="464" y="184" fill="black" font-size="8" font-family="Helvetica">
Mean  
</text>
<text x="528" y="184" fill="black" font-size="8" font-family="Helvetica">
 0.2717
</text>
<text x="523" y="184" fill="black" font-size="8" font-family="Times">
&#0177;
</text>
<text x="496" y="184" fill="black" font-size="8" font-family="Helvetica">
  63.39 
</text>
<text x="464" y="194" fill="black" font-size="8" font-family="Helvetica">
RMS   
</text>
<text x="529" y="194" fill="black" font-size="8" font-family="Helvetica">
 0.1921
</text>
<text x="525" y="194" fill="black" font-size="8" font-family="Times">
&#0177;
</text>
<text x="497" y="194" fill="black" font-size="8" font-family="Helvetica">
  28.68 
</text>
<text x="464" y="204" fill="black" font-size="8" font-family="Helvetica">
Integral 
</text>
<text x="515" y="204" fill="black" font-size="8" font-family="Helvetica">
 1.114e+04
</text>
<path d="M57,263h 8v 22h 8v -1h 8v -7h 7v -17h 8v -12h 8v -5h 8v -16h 8v -27h 8v -13h 8v -24h 8v -9h 8v -5h 8v 10h 8v -16h 8v 8h 8v 1h 8v 23h 8v 2h 7v 10h 8v 8h 8v 6h 8v 23h 8v 14h 16v 13h 8v 3h 8v 6h 8v 3h 8v 3h 8v 7h 8v 8h 8v -4h 8v 2h 8v 4h 7v 2h
 8v 1h 8v 5h 16v -1h 8v 3h 8v 1h 16v 1h 24v -1h 8v 1h 24" fill="none" stroke="#00ff00" stroke-width="2"/>
<rect x="459" y="121" width="102" height="41" fill="white"/>
<path d="M459,162h 102" fill="none" stroke="black"/>
<path d="M561,162v -41" fill="none" stroke="black"/>
<path d="M561,121h -102" fill="none" stroke="black"/>
<path d="M459,121v 41" fill="none" stroke="black"/>
<text x="477" y="129" fill="black" font-size="9" font-family="Helvetica">
Aluminium_5mm
</text>
<path d="M459,132h 102" fill="none" stroke="black"/>
<text x="464" y="140" fill="black" font-size="8" font-family="Helvetica">
Mean  
</text>
<text x="528" y="140" fill="black" font-size="8" font-family="Helvetica">
 0.3303
</text>
<text x="523" y="140" fill="black" font-size="8" font-family="Times">
&#0177;
</text>
<text x="496" y="140" fill="black" font-size="8" font-family="Helvetica">
  64.94 
</text>
<text x="464" y="150" fill="black" font-size="8" font-family="Helvetica">
RMS   
</text>
<text x="528" y="150" fill="black" font-size="8" font-family="Helvetica">
 0.2336
</text>
<text x="523" y="150" fill="black" font-size="8" font-family="Times">
&#0177;
</text>
<text x="496" y="150" fill="black" font-size="8" font-family="Helvetica">
  29.56 
</text>
<text x="464" y="159" fill="black" font-size="8" font-family="Helvetica">
Integral 
</text>
<text x="531" y="160" fill="black" font-size="8" font-family="Helvetica">
   8008
</text>
<rect x="459" y="121" width="102" height="41" fill="white"/>
<path d="M459,162h 102" fill="none" stroke="black"/>
<path d="M561,162v -41" fill="none" stroke="black"/>
<path d="M561,121h -102" fill="none" stroke="black"/>
<path d="M459,121v 41" fill="none" stroke="black"/>
<text x="477" y="129" fill="black" font-size="9" font-family="Helvetica">
Aluminium_5mm
</text>
<path d="M459,132h 102" fill="none" stroke="black"/>
<text x="464" y="140" fill="black" font-size="8" font-family="Helvetica">
Mean  
</text>
<text x="528" y="140" fill="black" font-size="8" font-family="Helvetica">
 0.3303
</text>
<text x="523" y="140" fill="black" font-size="8" font-family="Times">
&#0177;
</text>
<text x="496" y="140" fill="black" font-size="8" font-family="Helvetica">
  64.94 
</text>
<text x="464" y="150" fill="black" font-size="8" font-family="Helvetica">
RMS   
</text>
<text x="528" y="150" fill="black" font-size="8" font-family="Helvetica">
 0.2336
</text>
<text x="523" y="150" fill="black" font-size="8" font-family="Times">
&#0177;
</text>
<text x="496" y="150" fill="black" font-size="8" font-family="Helvetica">
  29.56 
</text>
<text x="464" y="159" fill="black" font-size="8" font-family="Helvetica">
Integral 
</text>
<text x="531" y="160" fill="black" font-size="8" font-family="Helvetica">
   8008
</text>
<path d="M57,274h 8v 11h 8v 3h 8v -8h 7v -11h 8v -11h 8v -1h 8v -18h 8v -9h 8v -17h 8v -9h 8v -15h 8v -24h 8v 34h 8v -11h 8v -5h 8v 9h 8v 4h 8v 4h 7v 4h 8v 6h 8v 19h 8v 10h 8v 2h 8v 11h 8v 6h 8v -3h 8v 9h 8v 1h 8v 8h 8v 5h 24v 2h 8v 4h 7v 4h 8v -1h
 8v 3h 8v 2h 16v 1h 8v 1h 16v 1h 8v -1h 16v 1h 32" fill="none" stroke="#ff00ff" stroke-width="2"/>
<rect x="459" y="77" width="102" height="41" fill="white"/>
<path d="M459,118h 102" fill="none" stroke="black"/>
<path d="M561,118v -41" fill="none" stroke="black"/>
<path d="M561,77h -102" fill="none" stroke="black"/>
<path d="M459,77v 41" fill="none" stroke="black"/>
<text x="477" y="85" fill="black" font-size="9" font-family="Helvetica">
Aluminium_8mm
</text>
<path d="M459,87h 102" fill="none" stroke="black"/>
<text x="464" y="96" fill="black" font-size="8" font-family="Helvetica">
Mean  
</text>
<text x="528" y="96" fill="black" font-size="8" font-family="Helvetica">
 0.3815
</text>
<text x="523" y="96" fill="black" font-size="8" font-family="Times">
&#0177;
</text>
<text x="496" y="96" fill="black" font-size="8" font-family="Helvetica">
  66.55 
</text>
<text x="464" y="106" fill="black" font-size="8" font-family="Helvetica">
RMS   
</text>
<text x="528" y="106" fill="black" font-size="8" font-family="Helvetica">
 0.2697
</text>
<text x="523" y="106" fill="black" font-size="8" font-family="Times">
&#0177;
</text>
<text x="496" y="106" fill="black" font-size="8" font-family="Helvetica">
  30.27 
</text>
<text x="464" y="115" fill="black" font-size="8" font-family="Helvetica">
Integral 
</text>
<text x="531" y="116" fill="black" font-size="8" font-family="Helvetica">
   6298
</text>
<rect x="459" y="77" width="102" height="41" fill="white"/>
<path d="M459,118h 102" fill="none" stroke="black"/>
<path d="M561,118v -41" fill="none" stroke="black"/>
<path d="M561,77h -102" fill="none" stroke="black"/>
<path d="M459,77v 41" fill="none" stroke="black"/>
<text x="477" y="85" fill="black" font-size="9" font-family="Helvetica">
Aluminium_8mm
</text>
<path d="M459,87h 102" fill="none" stroke="black"/>
<text x="464" y="96" fill="black" font-size="8" font-family="Helvetica">
Mean  
</text>
<text x="528" y="96" fill="black" font-size="8" font-family="Helvetica">
 0.3815
</text>
<text x="523" y="96" fill="black" font-size="8" font-family="Times">
&#0177;
</text>
<text x="496" y="96" fill="black" font-size="8" font-family="Helvetica">
  66.55 
</text>
<text x="464" y="106" fill="black" font-size="8" font-family="Helvetica">
RMS   
</text>
<text x="528" y="106" fill="black" font-size="8" font-family="Helvetica">
 0.2697
</text>
<text x="523" y="106" fill="black" font-size="8" font-family="Times">
&#0177;
</text>
<text x="496" y="106" fill="black" font-size="8" font-family="Helvetica">
  30.27 
</text>
<text x="464" y="115" fill="black" font-size="8" font-family="Helvetica">
Integral 
</text>
<text x="531" y="116" fill="black" font-size="8" font-family="Helvetica">
   6298
</text>
<path d="M57,280h 8v 9h 16v -8h 7v -2h 8v -4h 8v -11h 8v -7h 8v -17h 8v 2h 8v -16h 8v -8h 8v -2h 8v 9h 8v -6h 8v -3h 8v 4h 8v 3h 8v -5h 7v 7h 8v 10h 8v 12h 8v 4h 8v 3h 8v 7h 8v -3h 8v 6h 8v 1h 8v 9h 8v 2h 8v 3h 8v 1h 8v -1h 8v 4h 8v 4h 7v -1h 8v 5h
 24v 1h 8v 2h 24v 1h 56" fill="none" stroke="#00ffff" stroke-width="2"/>
<rect x="459" y="33" width="102" height="41" fill="white"/>
<path d="M459,74h 102" fill="none" stroke="black"/>
<path d="M561,74v -41" fill="none" stroke="black"/>
<path d="M561,33h -102" fill="none" stroke="black"/>
<path d="M459,33v 41" fill="none" stroke="black"/>
<text x="475" y="40" fill="black" font-size="9" font-family="Helvetica">
Aluminium_12mm
</text>
<path d="M459,43h 102" fill="none" stroke="black"/>
<text x="464" y="51" fill="black" font-size="9" font-family="Helvetica">
Entries 
</text>
<text x="535" y="51" fill="black" font-size="9" font-family="Helvetica">
 4681
</text>
<text x="464" y="62" fill="black" font-size="9" font-family="Helvetica">
Mean  
</text>
<text x="529" y="62" fill="black" font-size="9" font-family="Helvetica">
  68.38
</text>
<text x="464" y="72" fill="black" font-size="9" font-family="Helvetica">
RMS   
</text>
<text x="529" y="72" fill="black" font-size="9" font-family="Helvetica">
  30.92
</text>
<rect x="459" y="33" width="102" height="41" fill="white"/>
<path d="M459,74h 102" fill="none" stroke="black"/>
<path d="M561,74v -41" fill="none" stroke="black"/>
<path d="M561,33h -102" fill="none" stroke="black"/>
<path d="M459,33v 41" fill="none" stroke="black"/>
<text x="475" y="40" fill="black" font-size="9" font-family="Helvetica">
Aluminium_12mm
</text>
<path d="M459,43h 102" fill="none" stroke="black"/>
<text x="464" y="51" fill="black" font-size="8" font-family="Helvetica">
Mean  
</text>
<text x="528" y="51" fill="black" font-size="8" font-family="Helvetica">
 0.4519
</text>
<text x="523" y="51" fill="black" font-size="8" font-family="Times">
&#0177;
</text>
<text x="496" y="51" fill="black" font-size="8" font-family="Helvetica">
  68.38 
</text>
<text x="464" y="62" fill="black" font-size="8" font-family="Helvetica">
RMS   
</text>
<text x="528" y="62" fill="black" font-size="8" font-family="Helvetica">
 0.3195
</text>
<text x="523" y="62" fill="black" font-size="8" font-family="Times">
&#0177;
</text>
<text x="496" y="62" fill="black" font-size="8" font-family="Helvetica">
  30.92 
</text>
<text x="464" y="71" fill="black" font-size="8" font-family="Helvetica">
Integral 
</text>
<text x="532" y="72" fill="black" font-size="8" font-family="Helvetica">
   4681
</text>
<rect x="340" y="33" width="114" height="79" fill="white"/>
<path d="M340,112h 114" fill="none" stroke="black"/>
<path d="M454,112v -79" fill="none" stroke="black"/>
<path d="M454,33h -114" fill="none" stroke="black"/>
<path d="M340,33v 79" fill="none" stroke="black"/>
<text x="368" y="42" fill="black" font-size="8" font-family="Helvetica" font-weight="bold">
Air_5mm
</text>
<path d="M344,44h 20v -9h -20z" fill="white"/>
<path d="M344,40h 20" fill="none" stroke="black" stroke-width="2"/>
<g stroke="black" stroke-width="2" fill="none">
<line x1="353" y1="40" x2="354" y2="40"/>
</g>
<text x="368" y="55" fill="black" font-size="8" font-family="Helvetica" font-weight="bold">
Aluminium_0.5mm
</text>
<path d="M344,57h 20v -9h -20z" fill="white"/>
<path d="M344,53h 20" fill="none" stroke="#ff0000" stroke-width="2"/>
<g stroke="black" stroke-width="2" fill="none">
<line x1="353" y1="53" x2="354" y2="53"/>
</g>
<text x="368" y="68" fill="black" font-size="8" font-family="Helvetica" font-weight="bold">
Aluminium_1mm
</text>
<path d="M344,70h 20v -9h -20z" fill="white"/>
<path d="M344,66h 20" fill="none" stroke="#0000ff" stroke-width="2"/>
<g stroke="black" stroke-width="2" fill="none">
<line x1="353" y1="66" x2="354" y2="66"/>
</g>
<text x="368" y="81" fill="black" font-size="8" font-family="Helvetica" font-weight="bold">
Aluminium_5mm
</text>
<path d="M344,83h 20v -9h -20z" fill="white"/>
<path d="M344,79h 20" fill="none" stroke="#00ff00" stroke-width="2"/>
<g stroke="black" stroke-width="2" fill="none">
<line x1="353" y1="79" x2="354" y2="79"/>
</g>
<text x="368" y="94" fill="black" font-size="8" font-family="Helvetica" font-weight="bold">
Aluminium_8mm
</text>
<path d="M344,97h 20v -10h -20z" fill="white"/>
<path d="M344,92h 20" fill="none" stroke="#ff00ff" stroke-width="2"/>
<g stroke="black" stroke-width="2" fill="none">
<line x1="353" y1="92" x2="354" y2="92"/>
</g>
<text x="368" y="107" fill="black" font-size="8" font-family="Helvetica" font-weight="bold">
Aluminium_12mm
</text>
<path d="M344,110h 20v -9h -20z" fill="white"/>
<path d="M344,105h 20" fill="none" stroke="#00ffff" stroke-width="2"/>
<g stroke="black" stroke-width="2" fill="none">
<line x1="353" y1="105" x2="354" y2="105"/>
</g></svg>
