<?xml version="1.0" standalone="no"?>
<svg width="567" height="328" viewBox="0 0 567 328" xmlns="http://www.w3.org/2000/svg">
<title>
images/muon_decay_times.svg
</title>
<desc>
Creator: ROOT Version 5.32/00
CreationDate: Tue Oct  2 22:44:03 2012</desc>
<defs>
</defs>
<rect x="0" y="0" width="567" height="328" fill="white"/>
<rect x="57" y="33" width="397" height="262" fill="white"/>
<rect x="57" y="33" width="397" height="262" fill="none" stroke="black"/>
<rect x="57" y="33" width="397" height="262" fill="white"/>
<rect x="57" y="33" width="397" height="262" fill="none" stroke="black"/>
<path d="M57,45v 250v -28v 28v -28v 28v -28v 28v -55v 55v -28v 28v -55v 55v -28v 28v -83v 83v -28v 28v -55h 1v 55v -55v 55v -55v 55v -28v 28v -55v 55v -55v 55v -28v 28v -28v 28v -55v 55v -28v 28v -28v 28v -83v 83v -55v 55v -28h 1v 28v -28v 28v -55v
 55v -83v 83v -28v 28v -28v 28v -55v 55v -28v 28v -28v 28v -28v 28v -28v 28v -28v 28v -28v 28h 1v -55v 55v -55v 55v -28v 28v -28v 28v -55v 55v -28v 28v -55v 55v -55v 55v -28v 28v -55v 55v -28v 28v -28v 28v -28v 28v -28v 28v -28h 1v 28v -55v 55v -55v
 55v -55v 55v -28v 28v -28v 28v -55v 55v -28v 28v -55v 55v -28v 28h 1v -28v 28v -28v 28v -28v 28v -28v 28v -83v 83v -28v 28v -28v 28v -28v 28v -55v 55v -111v 111v -83v 83h 1v -55v 55v -28v 28v -55v 55v -55v 55v -28v 28v -55v 55v -28v 28v -28v 28v
 -28v 28v -28v 28v -28v 28v -28v 28v -28v 28h 1v -55v 55v -55v 55v -28v 28v -55v 55v -55v 55v -28v 28v -55v 55v -28v 28v -28v 28v -28v 28v -55h 1v 55v -28v 28v -55v 55v -28v 28v -55v 55v -55v 55v -28v 28v -28v 28v -28v 28v -28v 28v -83h 1v 83v -55v
 55v -28v 28v -28v 28v -28v 28v -28v 28v -55v 55v -28v 28v -28v 28v -28v 28v -28v 28v -28v 28v -28v 28v -55h 1v 55v -28v 28v -55v 55v -28v 28v -28v 28v -55v 55v -83v 83v -28v 28v -28v 28v -28v 28v -28v 28v -28v 28v -28v 28h 1v -28v 28v -28v 28v -28v
 28v -55v 55v -28v 28v -111v 111v -28v 28v -55v 55v -55v 55v -28h 1v 28v -28v 28v -28v 28v -55v 55v -55v 55v -28v 28v -28v 28v -28v 28v -28v 28v -28v 28v -55v 55v -28h 1v 28v -28v 28v -28v 28v -28v 28v -28v 28v -28v 28v -55v 55v -28v 28v -28v 28v
 -28v 28v -28v 28v -55v 55v -28v 28v -28h 1v 28v -28v 28v -55v 55v -55v 55v -28v 28v -55v 55v -55v 55v -55v 55v -28v 28v -28v 28v -28v 28v -28v 28h 1v -28v 28v -28v 28v -55v 55v -55v 55v -28v 28v -28v 28v -28v 28v -28v 28v -28v 28v -55v 55v -55v 55h
 1v -55v 55v -28v 28v -28v 28v -28v 28v -55v 55v -28v 28v -55v 55v -28v 28h 1v -28v 28v -28v 28v -28v 28v -28v 28v -55v 55v -28v 28v -28v 28v -28v 28v -55v 55v -55v 55v -83h 1v 83v -28v 28v -28v 28v -28v 28v -28v 28v -28v 28v -28v 28v -28v 28v -28v
 28v -55v 55h 1v -28v 28v -55v 55v -28v 28v -28v 28v -28v 28v -28v 28v -28v 28v -28v 28v -28v 28v -28v 28v -28v 28h 1v -28v 28v -28v 28v -28v 28v -28v 28v -55v 55v -55v 55v -28v 28v -28v 28v -28v 28v -28v 28h 1v -28v 28v -28v 28v -28v 28v -28v 28v
 -55v 55v -55v 55v -28v 28v -28v 28h 1v -28v 28v -28v 28v -28v 28v -28v 28v -28v 28v -28v 28v -28v 28v -28v 28v -28v 28v -28v 28h 1v -28v 28v -28v 28v -28v 28v -83v 83v -28v 28v -28v 28v -28v 28v -83h 1v 83v -55v 55v -28v 28v -55v 55v -28v 28v -55v
 55v -28v 28v -28v 28v -28v 28h 1v -28v 28v -28v 28v -28v 28v -28v 28v -28v 28v -55v 55v -55v 55v -55v 55v -28v 28v -28v 28v -28v 28h 1v -28v 28v -28v 28v -28v 28v -28v 28v -28v 28v -28v 28v -28v 28v -28v 28v -28v 28v -28v 28v -28v 28v -28v 28h 1v
 -28v 28v -55v 55v -28v 28v -28v 28v -28v 28v -28v 28v -28v 28v -55v 55v -28v 28h 1v -28v 28v -28v 28v -28v 28v -28v 28v -28v 28v -28v 28v -28v 28v -28v 28v -28v 28h 1v -28v 28v -55v 55v -55v 55h 1v -28v 28v -28v 28v -28v 28v -28v 28v -28v 28v -28v
 28v -28v 28v -28v 28v -28v 28h 1v -28v 28v -28v 28v -28v 28v -55v 55h 1v -83v 83v -28v 28v -28v 28v -28v 28v -28v 28v -28v 28v -28v 28v -28v 28v -28v 28v -28v 28h 1v -55v 55v -28v 28v -28v 28v -28v 28v -28v 28v -28v 28v -28v 28v -28h 1v 28v -28v 28v
 -28v 28v -28v 28v -28v 28v -28v 28v -28v 28v -55h 1v 55v -28v 28v -55v 55v -28v 28v -28v 28v -28v 28v -28v 28h 1v -28v 28v -28v 28v -28v 28v -28v 28v -28v 28v -28v 28v -28v 28v -28v 28h 1v -28v 28v -28v 28v -28v 28v -28v 28v -28v 28v -28v 28v -55v
 55v -28v 28h 1v -28v 28v -28v 28v -28v 28v -28v 28v -28v 28v -28v 28v -28v 28h 1v -28v 28v -28v 28v -28v 28v -28v 28v -28v 28v -28v 28v -28v 28v -28v 28v -28v 28h 1v -28v 28v -55v 55v -55v 55v -28v 28v -28v 28v -28v 28v -28v 28v -28v 28h 1v -28v 28v
 -28v 28v -28v 28v -28v 28v -28v 28v -28v 28v -28v 28v -83v 83h 1v -28v 28v -28v 28v -55v 55v -28v 28v -55v 55v -28v 28v -28v 28v -28v 28v -28h 1v 28v -28v 28v -28v 28v -28v 28v -28v 28v -28v 28v -28v 28v -28v 28h 1v -28v 28v -28v 28v -28v 28v -28v
 28v -55v 55v -28v 28v -28h 1v 28v -28v 28v -28v 28v -28v 28v -28v 28v -55v 55v -28v 28h 1v -28v 28v -28v 28v -28v 28v -28v 28v -28v 28v -28v 28v -28v 28v -28v 28v -55h 1v 55v -28v 28v -28v 28v -28v 28v -28v 28v -55v 55h 1v -28v 28v -28v 28v -28v 28h
 1v -28v 28v -28v 28v -28v 28v -28v 28v -28v 28v -28v 28v -28v 28v -28v 28v -28v 28h 1v -28v 28v -28v 28v -28v 28v -28v 28h 1v -28v 28v -28v 28v -28v 28v -28v 28v -28v 28v -28v 28v -28v 28h 1v -28v 28v -28v 28v -28v 28v -28v 28v -28v 28v -55v 55v
 -28v 28v -28v 28h 1v -55v 55v -28v 28v -28v 28v -28v 28v -28v 28h 1v -28v 28v -28v 28v -55v 55v -28v 28h 1v -28v 28v -55v 55v -28v 28v -28v 28h 1v -28v 28v -28v 28v -28v 28v -55v 55v -28v 28h 1v -28v 28v -28v 28v -28v 28v -28v 28h 1v -55v 55v -28v
 28v -28v 28v -28v 28v -28v 28v -28v 28v -28v 28h 1v -28v 28v -28v 28v -28v 28v -28v 28v -28v 28v -28v 28h 1v -55v 55v -28v 28v -28v 28v -28v 28h 1v -55v 55v -28v 28v -28v 28v -28v 28v -28v 28v -28v 28v -28v 28h 1v -28v 28v -28v 28v -28v 28h 1v -28v
 28v -28v 28v -28v 28v -28v 28v -28v 28v -28v 28h 1v -28v 28v -28v 28v -28v 28v -28v 28v -28v 28v -28v 28v -28v 28v -28v 28h 1v -28v 28v -28v 28v -28v 28v -28v 28v -28v 28h 1v -28v 28v -28v 28v -28v 28v -28v 28v -55v 55v -28h 1v 28v -28v 28v -28v 28v
 -28v 28v -28v 28v -28v 28h 1v -28v 28v -28v 28v -28v 28v -28v 28v -28v 28h 1v -28v 28v -28v 28v -28v 28v -28v 28v -28v 28v -28v 28h 1v -28v 28v -28v 28h 1v -28v 28v -28v 28v -28v 28v -28v 28v -28v 28h 1v -28v 28v -28v 28v -28v 28h 1v -28v 28v -28v
 28v -28v 28v -28v 28v -28v 28h 1v -28v 28v -28v 28v -28v 28v -28v 28v -28v 28v -28v 28v -28v 28h 1v -28v 28v -28v 28v -28v 28v -28v 28v -28v 28v -28v 28h 1v -28v 28v -28v 28h 1v -28v 28v -28v 28v -28v 28v -28v 28h 1v -28v 28v -28v 28v -28v 28v -28v
 28h 1v -55v 55v -28v 28v -28v 28v -28v 28v -55v 55v -28v 28v -28v 28h 1v -28v 28v -28v 28v -28v 28v -28h 1v 28h 1v -28v 28v -28v 28v -28v 28v -28v 28v -28v 28v -28v 28v -28v 28v -28v 28h 1v -28v 28v -28v 28v -28v 28v -28v 28v -28v 28h 1v -28v 28v
 -28v 28v -28v 28h 1v -28v 28v -28v 28v -28v 28h 1v -28v 28v -28v 28v -28v 28v -28v 28v -28v 28h 1v -28v 28v -28v 28v -28h 1v 28v -28v 28h 1v -28v 28v -28v 28v -28v 28v -28v 28v -28v 28v -28v 28h 1v -28v 28v -28v 28v -28v 28v -28v 28v -28v 28v -28v
 28h 1v -28v 28v -28v 28v -28v 28v -28v 28h 1v -28v 28v -28v 28v -28v 28h 1v -28v 28h 1v -28v 28v -28h 1v 28v -28v 28v -55v 55v -28v 28v -28v 28h 1v -28v 28v -28v 28h 1v -28v 28v -28h 1v 28v -55v 55h 2v -28v 28h 1v -28v 28h 1v -28v 28h 1v -28v 28v
 -28v 28h 1v -28v 28v -28v 28v -28v 28h 1v -28v 28v -28v 28v -28v 28v -28v 28v -28v 28v -28v 28h 1v -28h 1v 28v -28v 28v -28v 28v -28v 28v -28v 28h 1v -28v 28v -28v 28v -28v 28h 2v -28v 28v -28v 28v -28h 1v 28v -28v 28v -28v 28h 1v -28v 28h 1v -28v
 28v -28v 28v -28v 28h 1v -28v 28v -28v 28v -28v 28h 1v -28v 28v -28v 28v -28v 28v -28v 28v -28v 28h 2v -28v 28v -28v 28h 2v -28v 28v -28v 28v -28v 28h 2v -28v 28v -28v 28v -28v 28h 1v -28v 28v -28v 28v -28v 28h 1v -28v 28h 1v -28v 28v -28v 28v -28v
 28v -28h 1v 28h 1v -28v 28v -28v 28v -28v 28h 1v -28v 28v -28v 28v -28v 28h 1v -28v 28h 1v -28v 28h 3v -28v 28v -28v 28h 1v -28v 28v -28v 28h 3v -28v 28v -28v 28h 1v -28v 28v -28v 28h 3v -28v 28v -28v 28h 1v -28h 1v 28v -28v 28h 1v -28v 28h 1v -28v
 28h 1v -28v 28h 2v -28v 28h 2v -28v 28v -28v 28h 3v -28v 28h 2v -28v 28h 1v -28v 28v -28v 28h 5v -28v 28v -28v 28h 2v -28v 28v -28v 28h 4v -28v 28v -28v 28h 2v -28v 28h 1v -28v 28h 1v -28v 28v -28v 28h 1v -28v 28h 4v -28v 28h 1v -28v 28h 1v -28v 28h
 2v -28v 28h 5v -28v 28h 2v -28v 28v -28v 28v -28v 28h 5v -28v 28h 5v -28v 28h 8v -28v 28h 8v -28v 28h 7v -28v 28h 12v -28v 28h 1v -28v 28h 3v -28v 28h 6v -28v 28h 9v -28v 28h 14v -28v 28h 39v -28v 28h 94" fill="none" stroke="#ff0000"
 stroke-width="2"/>
<rect x="459" y="210" width="102" height="41" fill="white"/>
<path d="M459,251h 102" fill="none" stroke="black"/>
<path d="M561,251v -41" fill="none" stroke="black"/>
<path d="M561,210h -102" fill="none" stroke="black"/>
<path d="M459,210v 41" fill="none" stroke="black"/>
<text x="474" y="217" fill="black" font-size="9" font-family="Helvetica">
Aluminium_0.5mm
</text>
<path d="M459,220h 102" fill="none" stroke="black"/>
<text x="464" y="228" fill="black" font-size="9" font-family="Helvetica">
Mean  
</text>
<text x="529" y="228" fill="black" font-size="9" font-family="Helvetica">
  63.73
</text>
<text x="525" y="228" fill="black" font-size="9" font-family="Times">
&#0177;
</text>
<text x="496" y="228" fill="black" font-size="9" font-family="Helvetica">
   2142 
</text>
<text x="464" y="239" fill="black" font-size="9" font-family="Helvetica">
RMS   
</text>
<text x="529" y="239" fill="black" font-size="9" font-family="Helvetica">
  45.06
</text>
<text x="525" y="239" fill="black" font-size="9" font-family="Times">
&#0177;
</text>
<text x="496" y="239" fill="black" font-size="9" font-family="Helvetica">
   2177 
</text>
<text x="464" y="248" fill="black" font-size="9" font-family="Helvetica">
Integral 
</text>
<text x="530" y="249" fill="black" font-size="9" font-family="Helvetica">
   1167
</text>
<path d="M57,295h 397" fill="none" stroke="black"/>
<text x="384" y="317" fill="black" font-size="11" font-family="Helvetica">
Delta time (ns)
</text>
<path d="M96,288v 7" fill="none" stroke="black"/>
<path d="M106,292v 3" fill="none" stroke="black"/>
<path d="M116,292v 3" fill="none" stroke="black"/>
<path d="M126,292v 3" fill="none" stroke="black"/>
<path d="M136,288v 7" fill="none" stroke="black"/>
<path d="M146,292v 3" fill="none" stroke="black"/>
<path d="M156,292v 3" fill="none" stroke="black"/>
<path d="M166,292v 3" fill="none" stroke="black"/>
<path d="M176,288v 7" fill="none" stroke="black"/>
<path d="M186,292v 3" fill="none" stroke="black"/>
<path d="M196,292v 3" fill="none" stroke="black"/>
<path d="M205,292v 3" fill="none" stroke="black"/>
<path d="M215,288v 7" fill="none" stroke="black"/>
<path d="M225,292v 3" fill="none" stroke="black"/>
<path d="M235,292v 3" fill="none" stroke="black"/>
<path d="M245,292v 3" fill="none" stroke="black"/>
<path d="M255,288v 7" fill="none" stroke="black"/>
<path d="M265,292v 3" fill="none" stroke="black"/>
<path d="M275,292v 3" fill="none" stroke="black"/>
<path d="M285,292v 3" fill="none" stroke="black"/>
<path d="M295,288v 7" fill="none" stroke="black"/>
<path d="M305,292v 3" fill="none" stroke="black"/>
<path d="M315,292v 3" fill="none" stroke="black"/>
<path d="M325,292v 3" fill="none" stroke="black"/>
<path d="M334,288v 7" fill="none" stroke="black"/>
<path d="M344,292v 3" fill="none" stroke="black"/>
<path d="M354,292v 3" fill="none" stroke="black"/>
<path d="M364,292v 3" fill="none" stroke="black"/>
<path d="M374,288v 7" fill="none" stroke="black"/>
<path d="M384,292v 3" fill="none" stroke="black"/>
<path d="M394,292v 3" fill="none" stroke="black"/>
<path d="M404,292v 3" fill="none" stroke="black"/>
<path d="M414,288v 7" fill="none" stroke="black"/>
<path d="M424,292v 3" fill="none" stroke="black"/>
<path d="M434,292v 3" fill="none" stroke="black"/>
<path d="M444,292v 3" fill="none" stroke="black"/>
<path d="M454,288v 7" fill="none" stroke="black"/>
<path d="M96,288v 7" fill="none" stroke="black"/>
<path d="M86,292v 3" fill="none" stroke="black"/>
<path d="M77,292v 3" fill="none" stroke="black"/>
<path d="M67,292v 3" fill="none" stroke="black"/>
<path d="M454,288v 7" fill="none" stroke="black"/>
<text x="84" y="306" fill="black" font-size="11" font-family="Helvetica">
2000
</text>
<text x="124" y="306" fill="black" font-size="11" font-family="Helvetica">
4000
</text>
<text x="164" y="306" fill="black" font-size="11" font-family="Helvetica">
6000
</text>
<text x="203" y="306" fill="black" font-size="11" font-family="Helvetica">
8000
</text>
<text x="240" y="306" fill="black" font-size="11" font-family="Helvetica">
10000
</text>
<text x="280" y="306" fill="black" font-size="11" font-family="Helvetica">
12000
</text>
<text x="319" y="306" fill="black" font-size="11" font-family="Helvetica">
14000
</text>
<text x="359" y="306" fill="black" font-size="11" font-family="Helvetica">
16000
</text>
<text x="399" y="306" fill="black" font-size="11" font-family="Helvetica">
18000
</text>
<text x="439" y="306" fill="black" font-size="11" font-family="Helvetica">
20000
</text>
<path d="M57,295v -262" fill="none" stroke="black"/>
<g transform="rotate(-90,29,61)">
<text x="29" y="61" fill="black" font-size="11" font-family="Helvetica">
Count
</text>
</g>
<path d="M70,295h -13" fill="none" stroke="black"/>
<path d="M63,290h -6" fill="none" stroke="black"/>
<path d="M63,284h -6" fill="none" stroke="black"/>
<path d="M63,279h -6" fill="none" stroke="black"/>
<path d="M63,273h -6" fill="none" stroke="black"/>
<path d="M70,267h -13" fill="none" stroke="black"/>
<path d="M63,262h -6" fill="none" stroke="black"/>
<path d="M63,256h -6" fill="none" stroke="black"/>
<path d="M63,251h -6" fill="none" stroke="black"/>
<path d="M63,245h -6" fill="none" stroke="black"/>
<path d="M70,240h -13" fill="none" stroke="black"/>
<path d="M63,234h -6" fill="none" stroke="black"/>
<path d="M63,229h -6" fill="none" stroke="black"/>
<path d="M63,223h -6" fill="none" stroke="black"/>
<path d="M63,218h -6" fill="none" stroke="black"/>
<path d="M70,212h -13" fill="none" stroke="black"/>
<path d="M63,206h -6" fill="none" stroke="black"/>
<path d="M63,201h -6" fill="none" stroke="black"/>
<path d="M63,195h -6" fill="none" stroke="black"/>
<path d="M63,190h -6" fill="none" stroke="black"/>
<path d="M70,184h -13" fill="none" stroke="black"/>
<path d="M63,179h -6" fill="none" stroke="black"/>
<path d="M63,173h -6" fill="none" stroke="black"/>
<path d="M63,168h -6" fill="none" stroke="black"/>
<path d="M63,162h -6" fill="none" stroke="black"/>
<path d="M70,156h -13" fill="none" stroke="black"/>
<path d="M63,151h -6" fill="none" stroke="black"/>
<path d="M63,145h -6" fill="none" stroke="black"/>
<path d="M63,140h -6" fill="none" stroke="black"/>
<path d="M63,134h -6" fill="none" stroke="black"/>
<path d="M70,129h -13" fill="none" stroke="black"/>
<path d="M63,123h -6" fill="none" stroke="black"/>
<path d="M63,118h -6" fill="none" stroke="black"/>
<path d="M63,112h -6" fill="none" stroke="black"/>
<path d="M63,107h -6" fill="none" stroke="black"/>
<path d="M70,101h -13" fill="none" stroke="black"/>
<path d="M63,95h -6" fill="none" stroke="black"/>
<path d="M63,90h -6" fill="none" stroke="black"/>
<path d="M63,84h -6" fill="none" stroke="black"/>
<path d="M63,79h -6" fill="none" stroke="black"/>
<path d="M70,73h -13" fill="none" stroke="black"/>
<path d="M63,68h -6" fill="none" stroke="black"/>
<path d="M63,62h -6" fill="none" stroke="black"/>
<path d="M63,57h -6" fill="none" stroke="black"/>
<path d="M63,51h -6" fill="none" stroke="black"/>
<path d="M70,45h -13" fill="none" stroke="black"/>
<path d="M70,45h -13" fill="none" stroke="black"/>
<path d="M63,40h -6" fill="none" stroke="black"/>
<path d="M63,34h -6" fill="none" stroke="black"/>
<text x="48" y="299" fill="black" font-size="11" font-family="Helvetica">
0
</text>
<text x="49" y="272" fill="black" font-size="11" font-family="Helvetica">
1
</text>
<text x="48" y="244" fill="black" font-size="11" font-family="Helvetica">
2
</text>
<text x="48" y="216" fill="black" font-size="11" font-family="Helvetica">
3
</text>
<text x="48" y="188" fill="black" font-size="11" font-family="Helvetica">
4
</text>
<text x="48" y="160" fill="black" font-size="11" font-family="Helvetica">
5
</text>
<text x="48" y="132" fill="black" font-size="11" font-family="Helvetica">
6
</text>
<text x="48" y="105" fill="black" font-size="11" font-family="Helvetica">
7
</text>
<text x="48" y="77" fill="black" font-size="11" font-family="Helvetica">
8
</text>
<text x="48" y="49" fill="black" font-size="11" font-family="Helvetica">
9
</text>
<rect x="459" y="210" width="102" height="41" fill="white"/>
<path d="M459,251h 102" fill="none" stroke="black"/>
<path d="M561,251v -41" fill="none" stroke="black"/>
<path d="M561,210h -102" fill="none" stroke="black"/>
<path d="M459,210v 41" fill="none" stroke="black"/>
<text x="474" y="217" fill="black" font-size="9" font-family="Helvetica">
Aluminium_0.5mm
</text>
<path d="M459,220h 102" fill="none" stroke="black"/>
<text x="464" y="228" fill="black" font-size="9" font-family="Helvetica">
Mean  
</text>
<text x="529" y="228" fill="black" font-size="9" font-family="Helvetica">
  63.73
</text>
<text x="525" y="228" fill="black" font-size="9" font-family="Times">
&#0177;
</text>
<text x="496" y="228" fill="black" font-size="9" font-family="Helvetica">
   2142 
</text>
<text x="464" y="239" fill="black" font-size="9" font-family="Helvetica">
RMS   
</text>
<text x="529" y="239" fill="black" font-size="9" font-family="Helvetica">
  45.06
</text>
<text x="525" y="239" fill="black" font-size="9" font-family="Times">
&#0177;
</text>
<text x="496" y="239" fill="black" font-size="9" font-family="Helvetica">
   2177 
</text>
<text x="464" y="248" fill="black" font-size="9" font-family="Helvetica">
Integral 
</text>
<text x="530" y="249" fill="black" font-size="9" font-family="Helvetica">
   1167
</text>
<path d="M57,73v 222v -28v 28v -28v 28v -55v 55v -28v 28v -55v 27v -27v 55v -28v 28v -55v 55v -83v 83h 1v -55v 55v -55v 55v -28v 28v -83v 83v -28v 28v -55v 27v -27v 55v -28v 28v -28v 28v -28v 28v -55v 55v -55v 55v -28v 28v -55v 55h 1v -55v 27v -27v
 55v -28v 28v -28v 28v -28v 28v -83v 83v -28v 28v -28v 28v -28v 28v -28v 28v -55v 55v -55v 55v -83v 83v -55v 55v -55v 55v -28v 28v -28h 1v 28v -28v 28v -28v 28v -55v 55v -55v 55v -83v 55v -55v 55v -27v 55v -28v 28v -55v 55v -55v 55v -55v 55v -55h 1v
 27v -27v 55v -28v 28v -55v 55v -83v 55v -27v 55v -55v 55v -111v 111v -28v 28v -55v 55v -28v 28v -28v 28h 1v -55v 55v -55v 55v -28v 28v -55v 55v -83v 83v -55v 55v -55v 55v -28v 28v -28v 28v -55v 55v -55v 55v -28v 28v -28v 28v -28v 28h 1v -28v 28v
 -28v 28v -28v 28v -55v 55v -28v 28v -55v 55v -28v 28v -28v 28v -55v 55v -28v 28v -55v 55v -55v 55v -28v 28h 1v -28v 28v -55v 55v -55v 55v -55v 55v -28v 28v -55v 55v -28v 28v -28v 28v -55v 55v -28v 28v -28v 28v -55v 27v -55v 83v -28v 28h 1v -28v 28v
 -55v 27v -27v 27v -27v 55v -28v 28v -55v 55v -55v 55v -55v 55v -28v 28v -28v 28v -28v 28v -83v 83v -83v 83v -55v 55v -55v 55v -55v 55h 1v -55v 55v -55v 55v -28v 28v -28v 28v -55v 55v -55v 55v -28v 28v -83v 83v -28v 28v -28v 28v -55v 55v -28v 28h 1v
 -55v 55v -55v 55v -28v 28v -55v 55v -28v 28v -55v 55v -55v 55v -28v 28v -55v 55v -28v 28v -28v 28v -55v 55v -28v 28v -55v 55h 1v -28v 28v -28v 28v -55v 55v -28v 28v -28v 28v -28v 28v -28v 28v -55v 55v -28v 28v -55v 55v -28v 28v -28v 28v -28v 28h 1v
 -55v 55v -28v 28v -55v 55v -55v 27v -27v 55v -28v 28v -28v 28v -28v 28v -55v 55v -28v 28v -28v 28v -55v 55v -28h 1v 28v -28v 28v -28v 28v -55v 55v -28v 28v -55v 55v -28v 28v -55v 55v -28v 28v -55v 55v -55v 55v -28h 1v 28v -55v 27v -27v 27v -27v 55v
 -28v 28v -28v 28v -28v 28v -55v 55v -28v 28v -28v 28v -28v 28v -55v 55v -28v 28v -28v 28v -28v 28v -28v 28v -28h 1v 28v -55v 55v -28v 28v -55v 55v -28v 28v -28v 28v -28v 28v -55v 55v -55v 55v -28v 28v -28v 28v -28v 28v -28v 28v -28h 1v 28v -55v 55v
 -28v 28v -55v 55v -55v 55v -28v 28v -28v 28v -55v 27v -27v 55v -28v 28v -28v 28v -55v 55v -28h 1v -27v 55v -28v 28v -55v 27v -27v 55v -28v 28v -28v 28v -55v 55v -28v 28v -55v 55v -28v 28v -28v 28v -55v 27v -55v 83v -28h 1v 28v -28v 28v -55v 55v -28v
 28v -28v 28v -28v 28v -28v 28v -28v 28v -28v 28v -28v 28v -28v 28v -28v 28v -28v 28v -28v 28v -28v 28v -28h 1v 28v -28v 28v -55v 55v -55v 55v -55v 27v -27v 55v -55v 55v -28v 28v -28v 28v -28v 28v -55v 55v -55v 55v -55v 55h 1v -55v 55v -28v 28v -28v
 28v -28v 28v -55v 55v -28v 28v -83v 83v -28v 28v -28v 28v -28v 28v -28h 1v 28v -28v 28v -28v 28v -28v 28v -55v 27v -55v 83v -28v 28v -28v 28v -28v 28v -55v 55v -28v 28v -55v 55v -83v 83v -55h 1v 27v -27v 55v -28v 28v -28v 28v -28v 28v -28v 28v -111v
 111v -28v 28v -28v 28v -55v 55v -55v 55h 1v -28v 28v -83v 83v -28v 28v -28v 28v -28v 28v -28v 28v -28v 28v -55v 55h 1v -28v 28v -55v 55v -28v 28v -28v 28v -28v 28v -28v 28v -28v 28v -28v 28v -28v 28v -139v 139v -55v 55v -28v 28h 1v -28v 28v -28v 28v
 -55v 55v -28v 28v -28v 28v -28v 28v -28v 28v -28v 28v -28v 28h 1v -28v 28v -55v 55v -55v 55v -55v 55v -55v 55v -28v 28v -28v 28v -28v 28v -28v 28v -55v 55v -28v 28v -28v 28v -28v 28v -55h 1v 55v -28v 28v -28v 28v -55v 27v -27v 55v -28v 28v -55v 55v
 -55v 55v -28v 28v -28v 28v -28v 28v -28v 28v -28v 28h 1v -55v 55v -55v 55v -28v 28v -55v 55v -28v 28v -28v 28v -28v 28v -55v 55v -28v 28v -28v 28h 1v -28v 28v -28v 28v -28v 28v -28v 28v -28v 28v -28v 28v -28v 28v -55v 55v -28v 28v -28v 28v -28v 28v
 -28v 28h 1v -55v 55v -28v 28v -28v 28v -28v 28v -28v 28v -28v 28v -28v 28v -55v 55h 1v -28v 28v -28v 28v -28v 28v -28v 28v -28v 28v -28v 28v -28v 28v -28v 28v -55v 55v -28v 28v -28v 28v -28h 1v 28v -28v 28v -28v 28v -28v 28v -28v 28v -28v 28v -28v
 28v -28v 28v -55v 55v -28v 28v -83v 83h 1v -28v 28v -28v 28v -28v 28v -28v 28v -28v 28v -55v 55v -28h 1v 28v -28v 28v -28v 28v -28v 28v -55v 55v -28v 28v -28v 28v -28v 28v -28v 28v -55v 55v -55v 55v -28h 1v -27v 55v -28v 28v -28v 28v -83v 83v -28v
 28v -55v 55v -28v 28v -28v 28h 1v -28v 28v -28v 28v -55v 55v -83v 83v -28v 28v -28v 28v -28v 28v -55v 55v -28v 28v -55h 1v 55v -55v 55v -55v 55v -55v 55v -28v 28v -28v 28v -28v 28v -28v 28v -28v 28v -28v 28v -55v 55v -28v 28v -28v 28h 1v -28v 28v
 -28v 28v -28v 28v -28v 28v -28v 28v -28v 28v -28v 28v -28v 28v -28v 28v -28v 28h 1v -28v 28v -28v 28v -28v 28v -28v 28v -28v 28v -28v 28v -28v 28v -28v 28v -28v 28v -28v 28h 1v -28v 28v -28v 28v -28v 28v -28v 28v -28v 28v -28v 28h 1v -28v 28v -28v
 28v -55v 55v -28v 28v -28v 28v -28h 1v 28v -28v 28v -28v 28v -28v 28v -28v 28v -28v 28v -28v 28h 1v -55v 55v -28v 28v -28v 28v -55v 55v -28v 28v -28v 28v -28v 28v -28v 28v -28v 28h 1v -28v 28v -28v 28v -55v 55v -28v 28v -28v 28v -28v 28v -28v 28v
 -28v 28v -28v 28v -28v 28v -28h 1v 28v -28v 28v -28v 28v -28v 28v -28v 28v -55v 55v -28v 28v -55v 55v -28v 28h 1v -55v 55v -28v 28v -28v 28v -28v 28v -28v 28v -28v 28v -55v 55v -28h 1v 28v -28v 28v -28v 28v -28v 28v -28v 28h 1v -28v 28v -28v 28v
 -28v 28v -28v 28v -55v 55v -55v 55v -28v 28v -55v 27h 1v 28v -28v 28v -28v 28v -55v 55v -55v 55v -55v 55v -28v 28v -28v 28v -28v 28v -28v 28v -28v 28v -28v 28h 1v -28v 28v -28v 28v -28v 28v -28v 28v -28v 28v -28v 28v -28h 1v 28v -28v 28v -28v 28v
 -28v 28v -28v 28v -28v 28v -28v 28v -28v 28v -28v 28v -28v 28v -28v 28v -55v 55v -28v 28h 1v -28v 28v -28v 28v -28v 28v -28v 28v -28v 28v -28v 28v -28v 28h 1v -28v 28v -28v 28v -28v 28v -28v 28v -28v 28v -55v 55v -28v 28h 1v -28v 28v -28v 28v -28v
 28v -28v 28v -55v 55v -28h 1v 28v -28v 28v -28v 28v -28v 28v -28v 28v -28v 28v -28v 28h 1v -28v 28v -55v 55v -28v 28v -28v 28v -55v 55v -28v 28v -28v 28v -28v 28h 1v -28v 28v -28v 28v -28v 28v -28v 28v -28v 28h 1v -28v 28v -28v 28v -28v 28v -28v 28v
 -28v 28v -55v 55v -28v 28h 1v -28v 28v -28v 28v -28v 28v -28v 28v -28v 28v -28v 28v -28v 28v -28v 28h 1v -28v 28v -28v 28v -55v 55v -28v 28v -55v 55h 1v -28v 28v -55v 55v -28v 28v -28v 28v -55v 55v -28v 28v -28v 28h 1v -28v 28v -55v 55v -28v 28v
 -28v 28v -28v 28h 1v -28v 28v -28v 28v -28v 28v -55v 55v -28v 28v -28v 28v -28v 28h 1v -28v 28v -28v 28v -28v 28v -83v 83h 1v -28v 28v -28v 28v -55v 55v -28v 28v -28v 28v -28v 28v -28v 28h 1v -28v 28v -55v 55v -28v 28v -28v 28h 1v -28v 28v -28v 28v
 -28v 28v -28v 28v -28v 28v -28v 28v -28v 28h 1v -28v 28v -28v 28v -28v 28v -28v 28h 1v -28v 28v -28v 28v -28v 28h 1v -28v 28v -28v 28v -28v 28v -55v 55v -28v 28v -28v 28v -28v 28h 1v -28v 28v -55v 55v -28v 28v -28v 28v -28v 28v -28h 1v 28v -28v 28v
 -28v 28v -28v 28v -28v 28v -28v 28h 1v -28v 28v -28v 28v -28v 28v -28v 28h 1v -28v 28v -28v 28v -28v 28v -28v 28v -28v 28v -28h 1v 28v -28v 28v -28v 28v -28v 28h 1v -28v 28v -83v 83v -28v 28v -28v 28v -28v 28h 1v -28v 28v -28v 28v -28v 28v -28v 28v
 -28v 28v -28v 28v -28v 28v -28v 28h 1v -55v 55v -28v 28v -28v 28v -28v 28v -28v 28v -28v 28h 1v -28v 28v -28v 28v -28v 28v -28v 28v -28v 28v -28v 28v -28v 28v -28v 28v -28v 28h 1v -28v 28v -28v 28v -28v 28v -28v 28v -28v 28v -28v 28h 1v -28v 28v
 -28v 28v -28v 28v -28v 28v -28h 1v 28v -28v 28v -28v 28v -28v 28v -28v 28v -28v 28h 1v -28v 28v -28v 28v -28v 28v -28v 28v -28v 28v -28v 28h 1v -28v 28v -28v 28v -28v 28v -28v 28v -28v 28v -28v 28v -28v 28v -28v 28h 1v -28v 28v -28v 28v -28v 28v
 -28v 28v -28v 28v -28v 28v -28v 28v -28v 28v -28v 28h 1v -55v 55v -55v 55v -28v 28v -28v 28v -28v 28h 1v -28v 28v -28v 28v -28v 28v -28v 28h 1v -28v 28v -28v 28v -28v 28v -28v 28h 1v -28v 28v -28v 28v -28v 28v -28v 28v -28v 28v -28v 28v -28v 28v
 -55v 55v -28v 28v -28v 28h 1v -28v 28v -28v 28v -28v 28v -28v 28v -28v 28v -28v 28v -28v 28v -28v 28v -28h 1v 28v -28v 28v -28v 28v -28v 28v -28v 28v -28v 28v -28v 28h 1v -28v 28v -28v 28v -28v 28v -28v 28v -28v 28v -28v 28h 1v -28v 28v -28v 28v
 -28v 28v -28v 28h 1v -28v 28v -28v 28v -28v 28v -28v 28v -28v 28v -28v 28h 1v -28v 28v -28v 28v -28v 28h 1v -28v 28v -55v 55v -28v 28v -28v 28v -28v 28v -28v 28h 1v -28v 28v -55v 55v -28v 28v -55v 55h 1v -28v 28v -28v 28v -28v 28v -28v 28h 1v -28v
 28v -55v 55v -28v 28h 1v -28v 28v -28v 28v -28h 1v 28v -28v 28v -28v 28v -28v 28h 1v -28v 28v -28v 28v -28v 28v -28v 28v -28v 28h 1v -28v 28v -28v 28v -28v 28v -28v 28h 1v -28v 28v -28v 28v -28v 28h 1v -28v 28h 1v -28v 28v -28v 28v -28v 28v -28v 28v
 -28v 28h 1v -28v 28v -28v 28v -28v 28v -28h 1v 28v -28v 28v -28v 28v -28v 28v -28v 28h 1v -28v 28v -28v 28v -28v 28v -28v 28h 2v -28v 28v -28v 28v -28v 28v -28v 28h 1v -28v 28v -28v 28v -28v 28v -28v 28h 1v -28v 28v -28v 28v -28v 28v -28v 28h 1v
 -28v 28v -28v 28v -28v 28h 1v -28v 28h 1v -28v 28h 1v -28v 28v -28v 28h 1v -28v 28h 1v -28v 28v -28v 28h 1v -28v 28v -28v 28v -28v 28h 1v -55v 55v -28v 28h 1v -28v 28h 1v -28v 28v -28v 28h 1v -28v 28v -28v 28v -28v 28h 2v -28v 28h 1v -28v 28v -28v
 28v -28v 28h 1v -28h 1v 28h 1v -28v 28v -28v 28h 1v -28v 28v -28v 28v -28v 28v -28v 28v -28v 28v -28v 28h 1v -28v 28h 1v -28v 28h 1v -28v 28v -28v 28v -28v 28h 1v -28v 28h 1v -28v 28v -28v 28v -28v 28v -28v 28v -28v 28h 1v -28v 28h 2v -28v 28v -28v
 28v -28v 28h 1v -28v 28h 1v -28v 28v -28v 28h 2v -28v 28h 1v -28v 28h 2v -28v 28v -28v 28v -28v 28h 3v -28v 28h 1v -28v 28h 3v -55v 55h 3v -28v 28h 1v -28v 28h 2v -28v 28h 1v -28v 28h 1v -28v 28h 1v -28v 28v -28v 28v -28v 28h 3v -28v 28v -28v 28h 1v
 -28v 28h 1v -28v 28v -28v 28v -28v 28h 1v -28v 28h 1v -28v 28v -28v 28v -28v 28h 1v -28v 28v -28v 28v -28v 28h 1v -28v 28v -28v 28h 2v -28v 28h 1v -28v 28h 3v -28v 28h 4v -28v 28h 1v -28v 28h 3v -28v 28h 1v -28v 28v -28v 28h 1v -28v 28h 4v -28v 28h
 1v -28v 28h 4v -28v 28v -28v 28h 2v -28v 28h 2v -28v 28h 5v -28v 28h 1v -28v 28v -28v 28h 4v -28v 28h 4v -28v 28h 2v -28v 28h 2v -28v 28v -28v 28h 2v -28v 28h 1v -28v 28h 1v -28v 28h 17v -28v 28h 11v -28v 28h 1v -28h 1v 28h 3v -28v 28h 17v -28v 28h
 35v -28v 28h 39v -28v 28h 51" fill="none" stroke="black" stroke-width="2"/>
<rect x="459" y="254" width="102" height="41" fill="white"/>
<path d="M459,295h 102" fill="none" stroke="black"/>
<path d="M561,295v -41" fill="none" stroke="black"/>
<path d="M561,254h -102" fill="none" stroke="black"/>
<path d="M459,254v 41" fill="none" stroke="black"/>
<text x="492" y="261" fill="black" font-size="9" font-family="Helvetica">
Air_5mm
</text>
<path d="M459,264h 102" fill="none" stroke="black"/>
<text x="464" y="273" fill="black" font-size="9" font-family="Helvetica">
Mean  
</text>
<text x="529" y="273" fill="black" font-size="9" font-family="Helvetica">
  53.37
</text>
<text x="525" y="273" fill="black" font-size="9" font-family="Times">
&#0177;
</text>
<text x="496" y="273" fill="black" font-size="9" font-family="Helvetica">
   2207 
</text>
<text x="464" y="283" fill="black" font-size="9" font-family="Helvetica">
RMS   
</text>
<text x="529" y="283" fill="black" font-size="9" font-family="Helvetica">
  37.74
</text>
<text x="525" y="283" fill="black" font-size="9" font-family="Times">
&#0177;
</text>
<text x="497" y="283" fill="black" font-size="9" font-family="Helvetica">
   2221 
</text>
<text x="464" y="292" fill="black" font-size="9" font-family="Helvetica">
Integral 
</text>
<text x="529" y="293" fill="black" font-size="9" font-family="Helvetica">
   1732
</text>
<rect x="459" y="254" width="102" height="41" fill="white"/>
<path d="M459,295h 102" fill="none" stroke="black"/>
<path d="M561,295v -41" fill="none" stroke="black"/>
<path d="M561,254h -102" fill="none" stroke="black"/>
<path d="M459,254v 41" fill="none" stroke="black"/>
<text x="492" y="261" fill="black" font-size="9" font-family="Helvetica">
Air_5mm
</text>
<path d="M459,264h 102" fill="none" stroke="black"/>
<text x="464" y="273" fill="black" font-size="9" font-family="Helvetica">
Mean  
</text>
<text x="529" y="273" fill="black" font-size="9" font-family="Helvetica">
  53.37
</text>
<text x="525" y="273" fill="black" font-size="9" font-family="Times">
&#0177;
</text>
<text x="496" y="273" fill="black" font-size="9" font-family="Helvetica">
   2207 
</text>
<text x="464" y="283" fill="black" font-size="9" font-family="Helvetica">
RMS   
</text>
<text x="529" y="283" fill="black" font-size="9" font-family="Helvetica">
  37.74
</text>
<text x="525" y="283" fill="black" font-size="9" font-family="Times">
&#0177;
</text>
<text x="497" y="283" fill="black" font-size="9" font-family="Helvetica">
   2221 
</text>
<text x="464" y="292" fill="black" font-size="9" font-family="Helvetica">
Integral 
</text>
<text x="529" y="293" fill="black" font-size="9" font-family="Helvetica">
   1732
</text>
<text x="121" y="16" fill="black" font-size="15" font-family="Helvetica">
Muon decay times
</text>
<path d="M57,45v 250v -28v 28v -28v 28v -55v 55v -28v 28v -28v 28v -55v 55v -28v 28v -55v 55v -28h 1v 28v -28v 28v -28v 28v -55v 55v -28v 28v -28v 28v -28v 28v -28v 28v -28v 28v -28v 28v -28v 28v -55v 55v -28v 28v -28v 28h 1v -28v 28v -28v 28v -28v
 28v -28v 28v -55v 55v -55v 55v -28v 28v -55v 55v -28v 28v -55v 55v -28v 28v -55v 55h 1v -28v 28v -28v 28v -28v 28v -28v 28v -28v 28v -55v 55v -28v 28v -55v 55v -28v 28v -28v 28v -55v 55v -28v 28h 1v -28v 28v -55v 55v -55v 55v -28v 28v -28v 28v -28v
 28v -28v 28v -28v 28v -28v 28v -55v 27v -27v 55v -28v 28h 1v -28v 28v -28v 28v -28v 28v -55v 55v -28v 28v -28v 28v -55v 55v -28v 28v -28v 28v -28v 28v -28v 28h 1v -28v 28v -28v 28v -28v 28v -28v 28v -28v 28v -55v 55v -28v 28v -28v 28v -55v 55v -28v
 28v -28v 28v -55v 55v -28v 28v -28v 28h 1v -55v 55v -28v 28v -28v 28v -28v 28v -28v 28v -28v 28v -28v 28v -28v 28v -55v 55v -55v 55v -28v 28v -28v 28h 1v -28v 28v -28v 28v -28v 28v -55v 55v -55v 55v -28v 28v -28v 28v -28v 28v -83v 83v -28v 28v -28v
 28h 1v -28v 28v -28v 28v -28v 28v -28v 28v -55v 55v -28v 28v -28v 28v -28v 28v -28v 28v -28h 1v 28v -28v 28v -28v 28v -28v 28v -83v 83v -28v 28v -28v 28v -28v 28v -28v 28v -28v 28v -28v 28v -28v 28v -28v 28v -28v 28v -28v 28h 1v -55v 55v -28v 28v
 -28v 28v -28v 28v -55v 55v -28v 28v -28v 28v -55v 55v -28v 28v -28v 28v -28v 28v -28v 28v -28v 28v -28v 28v -28v 28v -28h 1v 28v -28v 28v -28v 28v -28v 28v -55v 55v -28v 28v -83v 83v -28v 28v -28v 28h 1v -28v 28v -55v 55v -28v 28v -28v 28v -55v 55v
 -55v 55v -28v 28v -83v 83v -83h 1v 83v -28v 28v -28v 28v -55v 55v -28v 28v -28v 28v -83v 83v -28v 28v -28v 28v -28v 28h 1v -28v 28v -28v 28v -28v 28v -28v 28v -55v 55v -28v 28v -28v 28v -28v 28v -55v 55v -28v 28v -28v 28v -28v 28h 1v -28v 28v -55v
 55v -28v 28v -28v 28v -55v 55v -28v 28v -28v 28v -28h 1v 28v -28v 28v -28v 28v -83v 83v -28v 28v -28v 28v -28v 28v -55v 27v -83v 111v -28v 28v -28v 28v -28v 28h 1v -28v 28v -28v 28v -55v 55v -28v 28v -28v 28v -28v 28v -28v 28v -28v 28v -28v 28v -55v
 55v -55v 55v -28v 28v -55v 55v -28v 28h 1v -28v 28v -28v 28v -28v 28v -28v 28v -28v 28v -55v 55v -28v 28v -55v 55v -28v 28v -28v 28v -55v 55v -55v 55v -55v 55v -28v 28v -28v 28v -28v 28h 1v -28v 28v -28v 28v -55v 55v -28v 28v -28v 28v -83v 83v -28v
 28v -28v 28v -28v 28v -28v 28v -28v 28h 1v -28v 28v -28v 28v -28v 28v -28v 28v -55v 55h 1v -28v 28v -28v 28v -28v 28v -28v 28v -83v 83v -28v 28v -55v 55v -28v 28v -28v 28v -28h 1v 28v -28v 28v -28v 28v -28v 28v -83v 83v -28v 28v -28v 28v -28v 28v
 -55v 55v -28v 28h 1v -55v 55v -28v 28v -28v 28v -28v 28v -55v 55v -28v 28v -28v 28v -28v 28v -28v 28v -28v 28h 1v -28v 28v -28v 28v -28v 28v -28v 28v -28v 28v -28v 28h 1v -28v 28v -28v 28v -28v 28v -28v 28v -28v 28v -28v 28v -28v 28v -28h 1v 28v
 -28v 28v -55v 55v -28v 28v -28v 28v -28v 28v -28v 28v -55v 55v -28v 28v -28v 28v -28v 28h 1v -28v 28v -55v 55v -28v 28v -28v 28v -28v 28v -28v 28v -28v 28v -28v 28v -28v 28h 1v -55v 55v -28v 28v -28v 28v -28v 28v -28v 28v -28v 28v -28v 28v -28v 28v
 -28v 28v -28v 28v -55v 55h 1v -55v 55v -55v 55v -28v 28v -28v 28v -28v 28v -55v 55v -28v 28h 1v -28v 28v -28v 28v -28v 28v -55v 55v -28v 28v -28v 28v -55v 55v -28v 28h 1v -28v 28v -28v 28v -28v 28v -28v 28v -28v 28v -55v 55v -28v 28v -28v 28h 1v
 -28v 28v -28v 28v -55v 55v -28v 28v -28v 28v -28v 28v -28v 28v -28v 28v -28v 28v -28h 1v 28v -55v 55v -28v 28v -55v 55v -28v 28v -28v 28v -28v 28v -28v 28v -28v 28v -28v 28h 1v -28v 28v -28v 28v -55v 55v -28v 28v -28v 28v -28v 28v -28v 28v -28v 28v
 -28v 28h 1v -28v 28v -28v 28v -28v 28v -28v 28v -55v 55v -28v 28v -28v 28h 1v -28v 28v -28v 28v -28v 28v -28v 28v -28v 28v -28v 28v -28v 28h 1v -28v 28v -28v 28v -28v 28v -28v 28v -28v 28v -28v 28h 1v -28v 28v -28v 28v -28v 28v -28v 28v -28v 28v
 -28v 28v -28h 1v 28v -28v 28v -28v 28v -28v 28v -28v 28v -55v 55v -28v 28v -28h 1v 28v -28v 28v -55v 55v -28v 28v -28v 28v -28v 28v -28v 28h 1v -28v 28v -28v 28v -28v 28v -28v 28v -28v 28v -28v 28v -28v 28v -28h 1v 28v -28v 28v -28v 28v -28v 28v
 -28v 28v -55v 55v -55v 55v -55v 55v -28h 1v 28v -28v 28v -55v 55v -55v 55v -28v 28v -28v 28v -28v 28v -28v 28v -28v 28h 1v -55v 55v -28v 28v -28v 28v -28v 28v -55v 55v -28v 28v -28v 28v -28v 28h 1v -28v 28v -55v 55v -28v 28v -28v 28v -55v 55v -28v
 28v -28v 28v -28v 28v -28v 28h 1v -28v 28v -28v 28v -28v 28v -28v 28v -28v 28v -28v 28h 1v -28v 28v -28v 28v -28v 28v -28v 28v -28v 28h 1v -28v 28v -55v 55v -28v 28v -28v 28v -28v 28v -28v 28v -28v 28h 1v -28v 28v -28v 28v -28v 28v -28v 28h 1v -28v
 28v -28v 28v -28v 28v -28v 28v -28v 28h 1v -28v 28v -28v 28v -28v 28v -28v 28v -28v 28v -55h 1v 55v -28v 28v -55v 55v -28v 28v -28v 28h 1v -28v 28v -28v 28v -28v 28v -28v 28v -28v 28v -55v 55v -28v 28h 1v -28v 28v -28v 28v -28v 28v -28v 28v -28v 28v
 -28v 28h 1v -28v 28v -28v 28v -83v 83h 1v -28v 28v -28v 28v -28v 28v -28v 28v -28v 28h 1v -28v 28v -28v 28v -28v 28v -28v 28v -28v 28h 1v -28v 28v -28v 28v -28v 28v -28v 28v -55v 55v -28v 28v -28v 28v -28v 28h 1v -28v 28v -28v 28v -28v 28v -28v 28v
 -28v 28v -28v 28v -28v 28h 1v -28v 28v -28v 28v -28v 28v -28v 28v -28v 28v -28v 28v -28v 28v -28h 1v 28v -28v 28v -28v 28v -28v 28v -28v 28v -28v 28v -28v 28h 1v -28v 28v -55v 55v -28v 28v -28v 28h 1v -28v 28v -28v 28v -28v 28h 1v -55v 55v -28v 28v
 -28v 28v -28v 28h 1v -28v 28v -28v 28v -28v 28v -28v 28v -28v 28h 1v -28v 28v -28v 28v -28v 28v -28v 28v -28v 28h 1v -28v 28v -28v 28v -28v 28h 1v -28v 28v -28v 28v -28v 28h 1v -28v 28v -28v 28v -28v 28v -28v 28h 1v -28v 28v -28v 28v -28h 1v 28v
 -28v 28v -28v 28v -28v 28v -28v 28h 1v -28v 28v -28v 28h 1v -28v 28v -28v 28h 1v -28v 28v -28v 28h 1v -28v 28v -28v 28v -28v 28v -28v 28h 1v -28v 28v -28v 28v -28v 28h 1v -28v 28v -28v 28v -28v 28v -28v 28v -28v 28h 1v -28v 28v -28v 28v -28v 28v
 -28v 28h 1v -28v 28v -28v 28h 1v -28v 28v -28v 28v -28v 28v -55v 55h 1v -28v 28v -28v 28v -28v 28v -28h 1v 28v -28v 28v -28v 28h 1v -28v 28v -28v 28h 1v -28v 28v -28v 28v -28v 28v -28v 28v -28v 28v -28v 28h 1v -28v 28v -28v 28h 1v -28v 28v -28v 28v
 -28v 28v -28h 1v 28v -28v 28v -28v 28v -28v 28h 1v -28v 28h 1v -28v 28h 1v -28v 28v -28v 28v -28v 28h 1v -28v 28v -28v 28h 1v -28v 28v -28v 28v -28v 28h 1v -28v 28v -28v 28h 1v -28v 28v -28v 28v -28v 28v -28v 28h 1v -28v 28v -28v 28h 1v -28v 28h 1v
 -28v 28h 1v -28v 28v -28v 28v -28v 28v -28v 28h 2v -28v 28v -28v 28v -28v 28v -28v 28h 1v -28v 28v -55v 55h 2v -28v 28v -28v 28h 1v -28v 28v -28v 28v -28v 28v -28v 28v -28v 28h 1v -28v 28v -28v 28v -28v 28h 1v -28v 28h 1v -28v 28h 1v -28v 28v -28v
 28v -28v 28h 2v -28v 28v -28v 28h 1v -55v 55v -28v 28v -28v 28v -28h 1v 28v -28v 28h 2v -28v 28v -28v 28h 1v -28v 28h 1v -28v 28h 1v -28v 28h 3v -28v 28v -28v 28v -28v 28h 1v -28v 28h 1v -28v 28v -28v 28v -28v 28h 1v -28v 28h 2v -28v 28h 3v -28v 28h
 1v -28v 28v -28h 1v 28v -28v 28h 1v -28v 28h 2v -28v 28v -28v 28h 2v -28v 28h 1v -28v 28h 2v -28v 28h 1v -28v 28h 1v -28v 28h 8v -28v 28h 1v -28v 28v -28v 28v -28h 1v 28h 1v -28v 28h 5v -28v 28h 7v -28v 28h 1v -28v 28h 5v -28v 28h 3v -28v 28v -28v
 28h 4v -28v 28v -28v 28h 6v -28v 28h 2v -28v 28h 5v -28v 28h 1v -28v 28h 6v -28v 28h 2v -28v 28h 5v -28v 28h 2v -28v 28h 17v -28v 28h 10v -28v 28h 18v -28v 28h 146" fill="none" stroke="#0000ff" stroke-width="2"/>
<rect x="459" y="166" width="102" height="41" fill="white"/>
<path d="M459,207h 102" fill="none" stroke="black"/>
<path d="M561,207v -41" fill="none" stroke="black"/>
<path d="M561,166h -102" fill="none" stroke="black"/>
<path d="M459,166v 41" fill="none" stroke="black"/>
<text x="477" y="173" fill="black" font-size="9" font-family="Helvetica">
Aluminium_1mm
</text>
<path d="M459,176h 102" fill="none" stroke="black"/>
<text x="464" y="184" fill="black" font-size="9" font-family="Helvetica">
Mean  
</text>
<text x="529" y="184" fill="black" font-size="9" font-family="Helvetica">
  58.62
</text>
<text x="525" y="184" fill="black" font-size="9" font-family="Times">
&#0177;
</text>
<text x="496" y="184" fill="black" font-size="9" font-family="Helvetica">
   1977 
</text>
<text x="464" y="195" fill="black" font-size="9" font-family="Helvetica">
RMS   
</text>
<text x="529" y="194" fill="black" font-size="9" font-family="Helvetica">
  41.45
</text>
<text x="525" y="194" fill="black" font-size="9" font-family="Times">
&#0177;
</text>
<text x="496" y="194" fill="black" font-size="9" font-family="Helvetica">
   1903 
</text>
<text x="464" y="204" fill="black" font-size="9" font-family="Helvetica">
Integral 
</text>
<text x="529" y="204" fill="black" font-size="9" font-family="Helvetica">
   1054
</text>
<rect x="459" y="166" width="102" height="41" fill="white"/>
<path d="M459,207h 102" fill="none" stroke="black"/>
<path d="M561,207v -41" fill="none" stroke="black"/>
<path d="M561,166h -102" fill="none" stroke="black"/>
<path d="M459,166v 41" fill="none" stroke="black"/>
<text x="477" y="173" fill="black" font-size="9" font-family="Helvetica">
Aluminium_1mm
</text>
<path d="M459,176h 102" fill="none" stroke="black"/>
<text x="464" y="184" fill="black" font-size="9" font-family="Helvetica">
Mean  
</text>
<text x="529" y="184" fill="black" font-size="9" font-family="Helvetica">
  58.62
</text>
<text x="525" y="184" fill="black" font-size="9" font-family="Times">
&#0177;
</text>
<text x="496" y="184" fill="black" font-size="9" font-family="Helvetica">
   1977 
</text>
<text x="464" y="195" fill="black" font-size="9" font-family="Helvetica">
RMS   
</text>
<text x="529" y="194" fill="black" font-size="9" font-family="Helvetica">
  41.45
</text>
<text x="525" y="194" fill="black" font-size="9" font-family="Times">
&#0177;
</text>
<text x="496" y="194" fill="black" font-size="9" font-family="Helvetica">
   1903 
</text>
<text x="464" y="204" fill="black" font-size="9" font-family="Helvetica">
Integral 
</text>
<text x="529" y="204" fill="black" font-size="9" font-family="Helvetica">
   1054
</text>
<path d="M57,129v 166v -28v 28v -28v 28v -28v 28v -28v 28v -55v 55h 1v -28v 28v -28v 28v -28v 28v -28v 28v -28v 28v -28v 28v -28v 28v -28v 28v -28v 28v -28v 28v -28v 28v -28v 28v -28h 1v 28v -28v 28v -55v 55v -28v 28v -28v 28v -55v 55v -28v 28v -55v
 55v -28v 28v -28v 28h 1v -28v 28v -55v 55v -28v 28v -28v 28v -28v 28v -28v 28v -28v 28v -28v 28v -28h 1v 28v -55v 55v -28v 28v -28v 28v -28v 28v -28v 28v -28v 28v -55v 55v -55v 55v -28v 28h 1v -55v 55v -28v 28v -28v 28v -83v 83v -28v 28v -28v 28v
 -55v 55v -28v 28v -28v 28v -28v 28v -28v 28v -28v 28v -28v 28h 1v -28v 28v -55v 55v -28v 28v -28v 28v -28v 28v -55v 55v -55h 1v 55v -55v 55v -28v 28v -28v 28v -28v 28v -28v 28v -28v 28v -28v 28v -55v 55v -55v 55v -28v 28v -55h 1v 55v -28v 28v -28v
 28v -28v 28v -55v 55v -55v 55v -28v 28v -28v 28v -28v 28v -28v 28v -28v 28h 1v -28v 28v -28v 28v -28v 28v -28v 28v -28v 28v -28h 1v 28v -55v 55v -55v 55v -28v 28v -55v 55v -28v 28v -28v 28v -28v 28v -28v 28v -28v 28h 1v -28v 28v -28v 28v -28v 28v
 -28v 28v -28v 28v -55v 55v -55v 55v -55v 55v -28v 28v -28v 28v -28h 1v 28v -28v 28v -28v 28v -28v 28v -28v 28v -28v 28v -28v 28v -55v 55v -28v 28v -28v 28v -28v 28h 1v -28v 28v -28v 28v -28v 28v -28v 28v -28v 28v -28v 28v -28v 28v -28v 28v -28v 28v
 -28v 28v -28v 28h 1v -55v 55v -55v 55v -28v 28v -28v 28v -28v 28v -28v 28v -28v 28v -28v 28h 1v -28v 28v -28v 28v -28v 28v -28v 28v -28v 28v -28v 28v -28v 28v -28v 28h 1v -28v 28v -28v 28v -28v 28v -28v 28v -28v 28v -28v 28v -28v 28v -28h 1v 28v
 -55v 55v -28v 28v -28v 28v -28v 28v -28v 28v -28v 28v -28v 28v -28v 28v -28v 28v -55v 55v -28h 1v 28v -28v 28v -28v 28v -55v 55v -28v 28v -28v 28v -28v 28v -55v 55h 1v -28v 28v -28v 28v -28v 28v -28v 28v -28v 28v -28v 28v -28v 28h 1v -28v 28v -28v
 28v -28v 28v -28v 28v -28v 28v -28v 28v -28v 28v -28v 28v -28v 28v -55v 55v -28v 28v -28v 28v -55v 55h 1v -28v 28v -28v 28v -28v 28v -28v 28v -28v 28v -28v 28v -55v 55v -28v 28v -55v 55v -28v 28v -28v 28h 1v -28v 28v -28v 28v -55v 55v -28v 28v -28v
 28v -28v 28v -28v 28v -28v 28h 1v -28v 28v -28v 28v -28v 28v -28v 28h 1v -28v 28v -28v 28v -28v 28v -28v 28v -28v 28v -28v 28h 1v -28v 28v -55v 55v -28v 28v -28v 28v -28v 28v -28v 28v -55h 1v 55v -28v 28v -28v 28v -28v 28v -28v 28v -28v 28v -28v 28v
 -28v 28h 1v -28v 28v -28v 28v -28v 28v -28v 28v -28v 28h 1v -28v 28v -55v 55v -28v 28v -28v 28v -28v 28h 1v -28v 28v -28v 28v -28v 28v -28v 28v -28v 28h 1v -28v 28v -28v 28v -28v 28v -28h 1v 28v -28v 28v -28v 28h 1v -28v 28v -28v 28v -28v 28v -28v
 28v -28v 28v -28v 28v -28v 28v -28v 28h 1v -28v 28v -28v 28v -28v 28v -28v 28v -28v 28v -28v 28v -28v 28v -55v 55v -28v 28v -28v 28h 1v -28v 28v -28v 28v -28v 28v -28v 28v -28v 28v -55v 55v -28v 28v -55v 55v -28v 28v -28v 28v -28v 28h 1v -28v 28v
 -28v 28v -28v 28v -28v 28v -28v 28v -28h 1v 28v -28v 28v -28v 28v -28v 28v -28v 28v -28v 28v -28v 28h 1v -28v 28v -28v 28v -28v 28h 1v -28v 28v -28v 28v -28v 28v -28v 28v -28v 28v -28v 28v -28v 28v -55v 55h 1v -28v 28v -28v 28v -28v 28h 1v -28v 28v
 -28v 28v -28v 28v -28v 28v -28v 28v -28v 28v -28v 28v -28v 28h 1v -55v 55v -28v 28v -28v 28v -28v 28v -28v 28v -28v 28h 1v -28v 28v -28v 28v -28v 28v -28v 28v -28v 28v -28v 28v -28v 28v -28v 28v -28v 28v -28v 28h 1v -28v 28v -28v 28v -28v 28v -28v
 28h 1v -28v 28v -28v 28v -28v 28v -28v 28v -28v 28v -28v 28h 1v -28v 28v -28v 28v -28v 28v -28v 28h 1v -28v 28v -28v 28v -28v 28v -28v 28v -55v 55v -28v 28v -28v 28v -28v 28h 1v -28v 28v -28v 28v -28v 28v -28v 28v -28v 28h 1v -28v 28v -28v 28v -28v
 28h 1v -28v 28v -28v 28v -28v 28h 1v -28v 28v -28v 28v -28v 28h 1v -28v 28v -28v 28v -28v 28v -55v 55v -28h 1v 28v -28v 28v -28v 28v -28v 28v -28v 28v -28v 28h 1v -28v 28v -28v 28v -28v 28v -28v 28h 1v -28v 28v -28v 28v -28v 28v -28v 28h 1v -28v 28v
 -28v 28v -28v 28v -55v 55v -28v 28h 1v -28v 28v -28v 28v -28v 28v -28v 28v -28v 28v -28v 28h 1v -28v 28v -28v 28v -28v 28v -28v 28h 1v -28v 28v -28v 28v -28v 28v -28v 28v -28v 28h 1v -28v 28v -28v 28v -28v 28h 1v -28v 28v -28v 28v -28v 28v -28v 28h
 1v -28v 28v -28v 28v -28v 28v -28v 28h 1v -28v 28v -28v 28v -28v 28v -28v 28v -28v 28v -28v 28h 1v -28v 28v -28v 28v -28v 28v -28v 28v -28v 28h 1v -28v 28v -28v 28v -28v 28v -28v 28v -28v 28v -28h 1v 28v -28v 28v -28v 28v -28v 28h 1v -28v 28v -28v
 28v -28v 28v -28v 28v -28v 28v -28v 28h 1v -28v 28h 2v -28v 28v -28v 28v -28v 28h 1v -28v 28v -28v 28v -28v 28v -28v 28h 1v -28v 28h 1v -55v 55h 1v -28v 28v -28v 28v -28v 28v -28v 28h 1v -28v 28v -28v 28h 1v -28v 28h 1v -28v 28h 1v -28v 28v -28v 28v
 -28v 28v -28v 28v -28v 28h 1v -28v 28v -28v 28v -28v 28v -28v 28h 1v -28v 28v -28v 28v -28v 28h 1v -28v 28v -28v 28h 2v -28v 28v -28h 1v 28v -28v 28v -28v 28v -28v 28h 1v -28v 28h 1v -28v 28v -28v 28h 1v -28v 28h 1v -28v 28v -28v 28h 1v -28v 28h 1v
 -28v 28h 1v -28v 28h 1v -28v 28v -28v 28h 1v -28v 28h 1v -28v 28v -28v 28v -28v 28h 1v -28v 28v -28v 28h 1v -28v 28v -28v 28h 1v -28v 28v -28v 28h 1v -28v 28h 1v -28v 28v -28v 28v -28v 28h 1v -28v 28v -28v 28v -28v 28h 1v -28v 28v -28v 28v -28v 28h
 1v -28v 28h 1v -28v 28v -28v 28h 2v -28v 28v -28v 28v -28v 28h 1v -28v 28h 1v -28v 28h 1v -28v 28v -28v 28h 1v -28v 28v -28v 28h 5v -28v 28v -28v 28h 5v -28v 28v -28v 28h 1v -28v 28v -28v 28h 1v -28v 28h 7v -28v 28h 2v -28v 28h 4v -28v 28h 6v -28v
 28h 1v -28v 28h 2v -28v 28v -28v 28h 2v -28v 28h 1v -28v 28h 2v -28v 28h 1v -28v 28h 3v -28v 28v -28v 28h 3v -28v 28h 6v -28v 28h 3v -28v 28h 3v -55v 55v -28h 1v 28h 2v -28v 28h 19v -28v 28h 7v -28v 28h 1v -28v 28h 2v -28v 28h 3v -28v 28v -28v 28h
 4v -28v 28h 21v -28v 28h 9v -28v 28h 18v -28v 28h 144" fill="none" stroke="#00ff00" stroke-width="2"/>
<rect x="459" y="121" width="102" height="41" fill="white"/>
<path d="M459,162h 102" fill="none" stroke="black"/>
<path d="M561,162v -41" fill="none" stroke="black"/>
<path d="M561,121h -102" fill="none" stroke="black"/>
<path d="M459,121v 41" fill="none" stroke="black"/>
<text x="477" y="129" fill="black" font-size="9" font-family="Helvetica">
Aluminium_5mm
</text>
<path d="M459,132h 102" fill="none" stroke="black"/>
<text x="464" y="140" fill="black" font-size="9" font-family="Helvetica">
Mean  
</text>
<text x="529" y="140" fill="black" font-size="9" font-family="Helvetica">
  74.39
</text>
<text x="525" y="140" fill="black" font-size="9" font-family="Times">
&#0177;
</text>
<text x="496" y="140" fill="black" font-size="9" font-family="Helvetica">
   1983 
</text>
<text x="464" y="151" fill="black" font-size="9" font-family="Helvetica">
RMS   
</text>
<text x="532" y="150" fill="black" font-size="9" font-family="Helvetica">
   52.6
</text>
<text x="527" y="150" fill="black" font-size="9" font-family="Times">
&#0177;
</text>
<text x="498" y="150" fill="black" font-size="9" font-family="Helvetica">
   1992 
</text>
<text x="464" y="159" fill="black" font-size="9" font-family="Helvetica">
Integral 
</text>
<text x="532" y="161" fill="black" font-size="9" font-family="Helvetica">
    717
</text>
<rect x="459" y="121" width="102" height="41" fill="white"/>
<path d="M459,162h 102" fill="none" stroke="black"/>
<path d="M561,162v -41" fill="none" stroke="black"/>
<path d="M561,121h -102" fill="none" stroke="black"/>
<path d="M459,121v 41" fill="none" stroke="black"/>
<text x="477" y="129" fill="black" font-size="9" font-family="Helvetica">
Aluminium_5mm
</text>
<path d="M459,132h 102" fill="none" stroke="black"/>
<text x="464" y="140" fill="black" font-size="9" font-family="Helvetica">
Mean  
</text>
<text x="529" y="140" fill="black" font-size="9" font-family="Helvetica">
  74.39
</text>
<text x="525" y="140" fill="black" font-size="9" font-family="Times">
&#0177;
</text>
<text x="496" y="140" fill="black" font-size="9" font-family="Helvetica">
   1983 
</text>
<text x="464" y="151" fill="black" font-size="9" font-family="Helvetica">
RMS   
</text>
<text x="532" y="150" fill="black" font-size="9" font-family="Helvetica">
   52.6
</text>
<text x="527" y="150" fill="black" font-size="9" font-family="Times">
&#0177;
</text>
<text x="498" y="150" fill="black" font-size="9" font-family="Helvetica">
   1992 
</text>
<text x="464" y="159" fill="black" font-size="9" font-family="Helvetica">
Integral 
</text>
<text x="532" y="161" fill="black" font-size="9" font-family="Helvetica">
    717
</text>
<path d="M57,156v 139v -28v 28v -28v 28v -28v 28v -28v 28v -28v 28v -28v 28v -28v 28v -83v 83v -28v 28v -28v 28v -28v 28h 1v -28v 28v -28v 28v -28v 28v -28v 28v -55v 55v -28v 28v -28v 28v -28v 28v -28v 28v -28h 1v 28v -55v 55v -55v 55v -28v 28v -28v
 28v -28v 28v -28v 28v -28v 28v -28v 28v -28v 28h 1v -28v 28v -28v 28v -55v 55v -28v 28v -28v 28v -28v 28v -28v 28v -28v 28v -55v 55h 1v -28v 28v -55v 55v -28v 28v -28v 28v -28v 28v -28v 28v -28v 28v -28v 28v -28v 28v -28v 28h 1v -28v 28v -55v 55v
 -28v 28v -28v 28v -28v 28v -55v 55h 1v -28v 28v -28v 28v -28v 28v -28v 28v -28v 28v -28v 28v -55v 55v -55v 55h 1v -28v 28v -28v 28v -28v 28v -28v 28v -55v 55v -28v 28v -28v 28v -28v 28h 1v -28v 28v -55v 55v -28v 28v -28v 28v -28v 28v -28v 28v -28v
 28v -28v 28v -28v 28v -28v 28h 1v -55v 55v -28v 28v -28v 28v -28v 28v -28v 28v -28v 28v -28v 28h 1v -28v 28v -28v 28v -28v 28v -28v 28v -28v 28v -28v 28v -28v 28v -28v 28v -28v 28v -28v 28h 1v -28v 28v -28v 28v -55v 55v -28v 28v -28v 28v -28v 28h 1v
 -28v 28v -28v 28v -28v 28v -28v 28v -28v 28v -28v 28v -55v 55h 1v -28v 28v -55v 55v -55v 55v -28v 28v -28v 28v -28v 28v -28v 28v -28h 1v 28v -28v 28v -28v 28v -28v 28v -28v 28v -28v 28v -28v 28v -28h 1v 28v -28v 28v -28v 28v -28v 28v -28v 28v -28v
 28v -28v 28v -28v 28v -28v 28h 1v -28v 28v -28v 28v -28v 28v -28v 28v -28v 28v -28v 28v -28v 28v -28v 28v -28v 28h 1v -28v 28v -28v 28v -28v 28v -28v 28v -28v 28v -28v 28h 1v -28v 28v -55v 55v -28v 28v -55v 55v -28v 28v -28v 28v -28v 28v -28v 28v
 -55v 55h 1v -28v 28v -28v 28v -28v 28v -28v 28v -28v 28v -28v 28v -28v 28h 1v -28v 28v -28v 28v -28v 28v -28v 28v -28v 28v -28v 28v -28v 28h 1v -28v 28v -55v 55v -28v 28v -28v 28v -28v 28v -28v 28h 1v -28v 28v -28v 28v -28v 28h 1v -28v 28v -28v 28v
 -28v 28v -28v 28v -28v 28v -28v 28v -28v 28v -28v 28h 1v -28v 28v -28v 28h 1v -28v 28v -28v 28v -28v 28v -28v 28v -28v 28v -28v 28v -28v 28h 1v -28v 28v -28v 28v -28v 28v -28v 28v -28v 28v -28v 28v -28v 28h 1v -28v 28v -28v 28v -28v 28v -28v 28v
 -28v 28v -28v 28v -28v 28v -28v 28v -28h 1v 28v -28v 28v -28v 28h 1v -55v 55v -28v 28v -28v 28v -28v 28v -28v 28v -28v 28v -28v 28v -28v 28h 1v -28v 28v -28v 28v -28v 28h 1v -28v 28v -28v 28v -28v 28v -28v 28v -28v 28v -28v 28v -28v 28v -28v 28v
 -28v 28v -28v 28v -28v 28h 1v -28v 28h 1v -28v 28v -55v 55v -28v 28v -28v 28v -28v 28v -28v 28v -28v 28h 1v -28v 28v -28v 28v -28v 28v -28v 28v -28v 28v -28v 28h 1v -28v 28v -55v 55v -28v 28v -28h 1v 28v -28v 28v -28v 28v -28v 28v -28v 28v -28v 28h
 1v -55v 55v -28v 28v -28v 28h 1v -28v 28v -28v 28v -28v 28v -28v 28v -28v 28v -28v 28h 1v -28v 28v -55v 55v -28v 28h 1v -28v 28v -28v 28h 1v -28v 28v -28v 28v -28v 28v -28v 28v -28v 28h 1v -28v 28v -28v 28h 1v -28v 28v -28v 28v -28v 28h 1v -28v 28v
 -28v 28v -28v 28v -28v 28h 1v -28v 28v -28v 28v -28v 28v -28v 28v -28v 28h 1v -28v 28v -28v 28v -28v 28v -28v 28h 1v -28v 28v -28v 28v -28v 28v -28v 28h 1v -28v 28v -28v 28h 1v -28v 28v -28v 28v -28v 28v -28v 28v -28v 28v -28v 28v -28v 28v -28v 28h
 1v -28v 28v -28v 28v -28v 28v -28v 28v -28v 28v -28v 28v -28v 28h 1v -28v 28v -28v 28v -28v 28h 1v -28v 28v -55v 55v -28v 28v -28v 28h 1v -28v 28v -28v 28v -28v 28h 1v -28v 28h 1v -28v 28v -28v 28v -28v 28h 1v -28v 28v -28v 28v -28v 28v -28v 28h 1v
 -28v 28v -28v 28v -28v 28v -28v 28v -28v 28v -28v 28v -28v 28v -28v 28v -28v 28h 1v -28v 28v -28v 28v -28v 28h 1v -28v 28v -28v 28v -28v 28h 1v -28v 28v -28v 28v -28v 28v -28v 28h 1v -28v 28v -28v 28h 1v -28v 28v -28v 28v -28v 28h 1v -28v 28v -28v
 28h 1v -28v 28v -28v 28v -28v 28h 1v -28v 28v -28v 28v -28v 28h 1v -28v 28v -28v 28h 1v -28v 28v -28v 28h 1v -28v 28v -28v 28h 1v -28v 28v -28v 28h 1v -28v 28v -28v 28h 1v -28v 28v -28v 28v -28v 28v -28v 28v -28v 28h 1v -28v 28v -28v 28h 1v -28v 28h
 1v -28v 28v -28v 28h 1v -28v 28h 2v -28v 28v -28v 28h 1v -28v 28v -28v 28v -28v 28h 2v -28v 28v -28v 28h 1v -28v 28v -28v 28v -28v 28v -28v 28h 1v -28v 28h 2v -28v 28h 1v -28v 28v -28v 28v -28v 28h 1v -28v 28v -28v 28v -28v 28v -28v 28h 1v -28v 28h
 1v -55v 55v -28v 28v -28v 28h 1v -28v 28v -28v 28v -28v 28h 1v -28v 28v -28v 28h 1v -28v 28v -28v 28v -28v 28h 1v -28v 28h 1v -28v 28v -28v 28v -28v 28h 2v -28v 28v -28v 28v -28v 28v -28v 28h 1v -28v 28v -28v 28h 1v -28v 28v -28v 28h 1v -28v 28v
 -28v 28h 4v -28v 28v -28v 28h 2v -28v 28h 1v -28v 28v -28v 28h 1v -28v 28v -28v 28h 9v -28v 28h 1v -28v 28v -28v 28h 1v -28v 28h 1v -28v 28v -28v 28h 3v -28v 28v -28v 28h 3v -28v 28v -28v 28v -28v 28v -28v 28h 12v -28v 28v -28v 28h 6v -28v 28h 1v
 -28v 28h 1v -28v 28h 3v -28v 28h 3v -28v 28h 8v -28v 28h 6v -28v 28h 5v -28v 28h 5v -28v 28h 10v -28v 28h 4v -28v 28h 2v -28v 28h 3v -28v 28h 10v -28v 28h 3v -28v 28h 3v -28v 28h 15v -28v 28h 14v -28v 28h 27v -28v 28h 2v -28v 28h 7v -28v 28h 71v
 -28v 28h 52" fill="none" stroke="#ff00ff" stroke-width="2"/>
<rect x="459" y="77" width="102" height="41" fill="white"/>
<path d="M459,118h 102" fill="none" stroke="black"/>
<path d="M561,118v -41" fill="none" stroke="black"/>
<path d="M561,77h -102" fill="none" stroke="black"/>
<path d="M459,77v 41" fill="none" stroke="black"/>
<text x="477" y="85" fill="black" font-size="9" font-family="Helvetica">
Aluminium_8mm
</text>
<path d="M459,87h 102" fill="none" stroke="black"/>
<text x="464" y="96" fill="black" font-size="9" font-family="Helvetica">
Mean  
</text>
<text x="532" y="96" fill="black" font-size="9" font-family="Helvetica">
   94.9
</text>
<text x="527" y="96" fill="black" font-size="9" font-family="Times">
&#0177;
</text>
<text x="499" y="96" fill="black" font-size="9" font-family="Helvetica">
   2091 
</text>
<text x="464" y="106" fill="black" font-size="9" font-family="Helvetica">
RMS   
</text>
<text x="531" y="106" fill="black" font-size="9" font-family="Helvetica">
  67.11
</text>
<text x="527" y="106" fill="black" font-size="9" font-family="Times">
&#0177;
</text>
<text x="498" y="106" fill="black" font-size="9" font-family="Helvetica">
   2268 
</text>
<text x="464" y="115" fill="black" font-size="9" font-family="Helvetica">
Integral 
</text>
<text x="533" y="116" fill="black" font-size="9" font-family="Helvetica">
    571
</text>
<rect x="459" y="77" width="102" height="41" fill="white"/>
<path d="M459,118h 102" fill="none" stroke="black"/>
<path d="M561,118v -41" fill="none" stroke="black"/>
<path d="M561,77h -102" fill="none" stroke="black"/>
<path d="M459,77v 41" fill="none" stroke="black"/>
<text x="477" y="85" fill="black" font-size="9" font-family="Helvetica">
Aluminium_8mm
</text>
<path d="M459,87h 102" fill="none" stroke="black"/>
<text x="464" y="96" fill="black" font-size="9" font-family="Helvetica">
Mean  
</text>
<text x="532" y="96" fill="black" font-size="9" font-family="Helvetica">
   94.9
</text>
<text x="527" y="96" fill="black" font-size="9" font-family="Times">
&#0177;
</text>
<text x="499" y="96" fill="black" font-size="9" font-family="Helvetica">
   2091 
</text>
<text x="464" y="106" fill="black" font-size="9" font-family="Helvetica">
RMS   
</text>
<text x="531" y="106" fill="black" font-size="9" font-family="Helvetica">
  67.11
</text>
<text x="527" y="106" fill="black" font-size="9" font-family="Times">
&#0177;
</text>
<text x="498" y="106" fill="black" font-size="9" font-family="Helvetica">
   2268 
</text>
<text x="464" y="115" fill="black" font-size="9" font-family="Helvetica">
Integral 
</text>
<text x="533" y="116" fill="black" font-size="9" font-family="Helvetica">
    571
</text>
<path d="M57,240v 55v -28v 28v -28v 28v -28v 28v -28v 28v -28v 28v -28v 28v -28v 28v -28h 1v 28v -28v 28v -28v 28v -28v 28v -28v 28h 1v -55v 55v -55v 55v -28v 28v -28v 28v -28v 28v -55v 55v -28v 28v -28v 28v -28v 28v -28v 28h 1v -28v 28v -28v 28v
 -28v 28v -28h 1v 28v -28v 28v -55v 55v -28v 28v -28v 28v -28v 28v -55v 55h 1v -28v 28v -28v 28v -28v 28v -28v 28v -28v 28v -28v 28v -28v 28v -28v 28h 1v -28v 28v -28v 28v -28v 28v -28v 28h 1v -28v 28v -28v 28v -28v 28v -28v 28h 1v -28v 28v -28v 28v
 -28v 28v -28v 28v -28v 28v -28v 28v -28v 28h 1v -28v 28v -28v 28v -28v 28v -28v 28v -28v 28v -83v 83v -28v 28v -28v 28h 1v -28v 28v -28v 28v -55v 55v -28v 28v -28v 28h 1v -28v 28v -28v 28v -28v 28v -28v 28v -28v 28v -28v 28v -28v 28h 1v -28v 28h 1v
 -55v 55v -28v 28h 1v -28v 28v -28v 28v -28v 28v -111v 111v -28v 28v -28v 28v -28h 1v 28v -28v 28v -28v 28v -28v 28v -28v 28v -28v 28h 1v -28v 28v -28v 28v -28v 28h 1v -28v 28v -28v 28v -28v 28h 1v -28v 28v -28v 28h 1v -28v 28v -28v 28v -83v 83v -28v
 28v -28v 28v -28v 28h 1v -55v 55v -28v 28v -55v 55v -28v 28h 1v -28v 28v -55v 55v -28v 28v -28v 28v -28v 28v -28v 28h 1v -28v 28v -28v 28v -28v 28v -28h 1v 28v -28v 28v -28v 28v -28v 28v -28v 28h 1v -28v 28v -28v 28v -28v 28v -28v 28v -28v 28v -28v
 28h 1v -28v 28h 1v -28v 28v -28v 28v -28v 28v -28v 28h 1v -28v 28v -28v 28v -28v 28v -28v 28v -28v 28v -28v 28v -28v 28h 1v -28v 28v -28v 28v -28v 28v -28v 28h 1v -28v 28h 1v -28v 28v -28v 28v -28v 28h 1v -28v 28v -28v 28v -28v 28v -28v 28v -28v 28v
 -28h 1v 28v -28v 28v -28v 28v -28v 28h 1v -28v 28h 1v -28v 28v -28v 28v -28v 28v -28v 28v -28v 28v -28v 28v -28v 28h 1v -28v 28v -28v 28v -28v 28v -28v 28v -28v 28h 1v -28v 28v -28v 28v -28v 28h 1v -28v 28v -28v 28h 1v -28v 28v -28v 28h 1v -28v 28v
 -28v 28h 1v -28v 28v -28v 28v -55v 55v -28h 1v 28v -28v 28v -28v 28v -28v 28v -28v 28h 1v -28v 28v -28v 28v -28v 28h 1v -28v 28v -28v 28v -28v 28h 1v -28v 28v -28v 28v -28v 28v -28v 28h 1v -28v 28v -28v 28h 1v -28v 28v -28v 28v -28v 28h 1v -28v 28v
 -28v 28h 1v -28v 28v -28v 28v -28v 28h 1v -55v 55v -28v 28v -28v 28v -28v 28h 1v -28v 28v -28v 28h 1v -28v 28v -28v 28v -28v 28v -28v 28h 1v -28v 28h 1v -28v 28v -28v 28v -28v 28h 1v -28v 28v -28v 28h 1v -28v 28v -28v 28h 1v -28v 28v -28v 28v -28v
 28v -28h 1v 28v -28v 28v -55v 55v -28v 28h 1v -28v 28h 2v -28v 28v -28v 28v -28v 28h 1v -28v 28h 1v -28v 28v -28v 28h 1v -28v 28v -28v 28h 1v -28v 28h 1v -28v 28v -28v 28h 2v -28v 28v -28v 28h 1v -28v 28v -28v 28h 1v -28v 28v -28v 28v -28v 28v -28v
 28h 2v -28v 28v -28v 28v -28v 28h 1v -55v 55v -28v 28h 1v -28v 28h 1v -28v 28h 1v -28v 28h 1v -28v 28h 2v -28v 28h 2v -28h 1v 28v -28v 28h 1v -28v 28h 1v -28v 28h 1v -28v 28v -28v 28v -28v 28h 1v -28v 28h 1v -28v 28h 3v -28v 28h 1v -28v 28v -28v 28h
 2v -28v 28h 1v -28v 28h 1v -28v 28v -28v 28h 1v -28v 28v -28v 28v -28v 28h 2v -28v 28h 3v -28v 28h 2v -28v 28v -28v 28v -28v 28h 1v -28v 28h 2v -28v 28v -28v 28h 1v -28v 28v -28v 28v -28v 28h 1v -28v 28h 5v -28v 28h 1v -28v 28h 3v -28v 28v -28v 28v
 -28v 28v -28v 28h 7v -28v 28h 2v -28v 28v -28v 28h 5v -28v 28h 8v -28v 28h 1v -28v 28h 1v -28v 28h 1v -28v 28h 2v -28v 28h 1v -28v 28v -28v 28h 1v -28v 28h 6v -28v 28h 2v -28v 28h 1v -28v 28h 4v -28v 28h 16v -28v 28h 1v -28v 28h 18v -28v 28h 10v
 -28v 28h 16v -28v 28h 178" fill="none" stroke="#00ffff" stroke-width="2"/>
<rect x="459" y="33" width="102" height="41" fill="white"/>
<path d="M459,74h 102" fill="none" stroke="black"/>
<path d="M561,74v -41" fill="none" stroke="black"/>
<path d="M561,33h -102" fill="none" stroke="black"/>
<path d="M459,33v 41" fill="none" stroke="black"/>
<text x="475" y="40" fill="black" font-size="9" font-family="Helvetica">
Aluminium_12mm
</text>
<path d="M459,43h 102" fill="none" stroke="black"/>
<text x="464" y="51" fill="black" font-size="9" font-family="Helvetica">
Entries 
</text>
<text x="539" y="51" fill="black" font-size="9" font-family="Helvetica">
 517
</text>
<text x="464" y="62" fill="black" font-size="9" font-family="Helvetica">
Mean  
</text>
<text x="529" y="62" fill="black" font-size="9" font-family="Helvetica">
   2139
</text>
<text x="464" y="72" fill="black" font-size="9" font-family="Helvetica">
RMS   
</text>
<text x="531" y="72" fill="black" font-size="9" font-family="Helvetica">
   2021
</text>
<rect x="459" y="33" width="102" height="41" fill="white"/>
<path d="M459,74h 102" fill="none" stroke="black"/>
<path d="M561,74v -41" fill="none" stroke="black"/>
<path d="M561,33h -102" fill="none" stroke="black"/>
<path d="M459,33v 41" fill="none" stroke="black"/>
<text x="475" y="40" fill="black" font-size="9" font-family="Helvetica">
Aluminium_12mm
</text>
<path d="M459,43h 102" fill="none" stroke="black"/>
<text x="464" y="51" fill="black" font-size="9" font-family="Helvetica">
Mean  
</text>
<text x="529" y="51" fill="black" font-size="9" font-family="Helvetica">
  105.2
</text>
<text x="525" y="51" fill="black" font-size="9" font-family="Times">
&#0177;
</text>
<text x="496" y="51" fill="black" font-size="9" font-family="Helvetica">
   2139 
</text>
<text x="464" y="62" fill="black" font-size="9" font-family="Helvetica">
RMS   
</text>
<text x="529" y="62" fill="black" font-size="9" font-family="Helvetica">
  74.38
</text>
<text x="525" y="62" fill="black" font-size="9" font-family="Times">
&#0177;
</text>
<text x="497" y="62" fill="black" font-size="9" font-family="Helvetica">
   2021 
</text>
<text x="464" y="71" fill="black" font-size="9" font-family="Helvetica">
Integral 
</text>
<text x="532" y="72" fill="black" font-size="9" font-family="Helvetica">
    369
</text>
<rect x="340" y="33" width="114" height="79" fill="white"/>
<path d="M340,112h 114" fill="none" stroke="black"/>
<path d="M454,112v -79" fill="none" stroke="black"/>
<path d="M454,33h -114" fill="none" stroke="black"/>
<path d="M340,33v 79" fill="none" stroke="black"/>
<text x="368" y="42" fill="black" font-size="8" font-family="Helvetica" font-weight="bold">
Air_5mm
</text>
<path d="M344,44h 20v -9h -20z" fill="white"/>
<path d="M344,40h 20" fill="none" stroke="black" stroke-width="2"/>
<g stroke="black" stroke-width="2" fill="none">
<line x1="353" y1="40" x2="354" y2="40"/>
</g>
<text x="368" y="55" fill="black" font-size="8" font-family="Helvetica" font-weight="bold">
Aluminium_0.5mm
</text>
<path d="M344,57h 20v -9h -20z" fill="white"/>
<path d="M344,53h 20" fill="none" stroke="#ff0000" stroke-width="2"/>
<g stroke="black" stroke-width="2" fill="none">
<line x1="353" y1="53" x2="354" y2="53"/>
</g>
<text x="368" y="68" fill="black" font-size="8" font-family="Helvetica" font-weight="bold">
Aluminium_1mm
</text>
<path d="M344,70h 20v -9h -20z" fill="white"/>
<path d="M344,66h 20" fill="none" stroke="#0000ff" stroke-width="2"/>
<g stroke="black" stroke-width="2" fill="none">
<line x1="353" y1="66" x2="354" y2="66"/>
</g>
<text x="368" y="81" fill="black" font-size="8" font-family="Helvetica" font-weight="bold">
Aluminium_5mm
</text>
<path d="M344,83h 20v -9h -20z" fill="white"/>
<path d="M344,79h 20" fill="none" stroke="#00ff00" stroke-width="2"/>
<g stroke="black" stroke-width="2" fill="none">
<line x1="353" y1="79" x2="354" y2="79"/>
</g>
<text x="368" y="94" fill="black" font-size="8" font-family="Helvetica" font-weight="bold">
Aluminium_8mm
</text>
<path d="M344,97h 20v -10h -20z" fill="white"/>
<path d="M344,92h 20" fill="none" stroke="#ff00ff" stroke-width="2"/>
<g stroke="black" stroke-width="2" fill="none">
<line x1="353" y1="92" x2="354" y2="92"/>
</g>
<text x="368" y="107" fill="black" font-size="8" font-family="Helvetica" font-weight="bold">
Aluminium_12mm
</text>
<path d="M344,110h 20v -9h -20z" fill="white"/>
<path d="M344,105h 20" fill="none" stroke="#00ffff" stroke-width="2"/>
<g stroke="black" stroke-width="2" fill="none">
<line x1="353" y1="105" x2="354" y2="105"/>
</g></svg>
