<?xml version="1.0" standalone="no"?>
<svg width="567" height="328" viewBox="0 0 567 328" xmlns="http://www.w3.org/2000/svg">
<title>
images/muon_decay_times_rebin.svg
</title>
<desc>
Creator: ROOT Version 5.32/00
CreationDate: Sat Oct  6 22:02:54 2012</desc>
<defs>
</defs>
<rect x="0" y="0" width="567" height="328" fill="white"/>
<rect x="57" y="33" width="397" height="262" fill="white"/>
<rect x="57" y="33" width="397" height="262" fill="none" stroke="black"/>
<rect x="57" y="33" width="397" height="262" fill="white"/>
<rect x="57" y="33" width="397" height="262" fill="none" stroke="black"/>
<path d="M57,45h 2v 32h 2v 31h 2v 8h 2v -22h 2v 45h 4v -11h 2v -23h 2v 51h 2v -31h 2v 60h 2v -12h 1v -23h 2v 32h 2v 31h 2v -17h 2v -3h 2v -25h 2v 53h 2v 29h 2v -17h 2v -17h 2v 28h 2v -42h 2v 17h 2v 19h 2v -2h 2v 5h 2v 6h 2v -6h 2v 17h 2v -8h 2v -6h
 2v 26h 2v -20h 4v 14h 2v -3h 2v -11h 2v 14h 2v -14h 2v -6h 2v 9h 2v 2h 2v -8h 2v 11h 2v 6h 2v 3h 2v -3h 2v 9h 2v -3h 2v 8h 2v -3h 2v -5h 2v 22h 2v -22h 2v 3h 2v 14h 2v -3h 2v -6h 2v 12h 2v -9h 2v 9h 2v -3h 2v -6h 6v -3h 2v 12h 2v -6h 2v 8h 2v -2h 2v
 -3h 2v 8h 2v -5h 1v 5h 2v -5h 2v 2h 4v -2h 2v -6h 2v 11h 2v -5h 2v -9h 2v -3h 2v 12h 4v 5h 2v -3h 2v 3h 2v -5h 2v 5h 2v -5h 4v 5h 2v -5h 2v 5h 2v -3h 2v -2h 2v 5h 2v -3h 2v 3h 2v -5h 2v 2h 2v 3h 2v -3h 2v 3h 2v -3h 2v -2h 2v 2h 2v -2h 2v 2h 2v 3h
 14v -3h 2v 3h 8v -3h 4v 3h 2v -3h 2v 3h 16v -3h 2v 3h 33v -3h 2v 3h 36v -3h 2v 3h 50" fill="none" stroke="black" stroke-width="2"/>
<rect x="459" y="254" width="102" height="41" fill="white"/>
<path d="M459,295h 102" fill="none" stroke="black"/>
<path d="M561,295v -41" fill="none" stroke="black"/>
<path d="M561,254h -102" fill="none" stroke="black"/>
<path d="M459,254v 41" fill="none" stroke="black"/>
<text x="498" y="260" fill="black" font-size="6" font-family="Helvetica">
Air_5mm
</text>
<path d="M459,261h 102" fill="none" stroke="black"/>
<text x="464" y="267" fill="black" font-size="6" font-family="Helvetica">
Mean  
</text>
<text x="538" y="267" fill="black" font-size="6" font-family="Helvetica">
  53.37
</text>
<text x="534" y="267" fill="black" font-size="6" font-family="Times">
&#0177;
</text>
<text x="514" y="267" fill="black" font-size="6" font-family="Helvetica">
   2207 
</text>
<text x="464" y="273" fill="black" font-size="6" font-family="Helvetica">
RMS   
</text>
<text x="538" y="273" fill="black" font-size="6" font-family="Helvetica">
  37.74
</text>
<text x="534" y="273" fill="black" font-size="6" font-family="Times">
&#0177;
</text>
<text x="515" y="273" fill="black" font-size="6" font-family="Helvetica">
   2221 
</text>
<text x="464" y="280" fill="black" font-size="6" font-family="Helvetica">
Underflow 
</text>
<text x="540" y="280" fill="black" font-size="6" font-family="Helvetica">
    424
</text>
<text x="464" y="287" fill="black" font-size="6" font-family="Helvetica">
Overflow  
</text>
<text x="543" y="287" fill="black" font-size="6" font-family="Helvetica">
      0
</text>
<text x="464" y="293" fill="black" font-size="6" font-family="Helvetica">
Integral 
</text>
<text x="538" y="294" fill="black" font-size="6" font-family="Helvetica">
   1732
</text>
<path d="M57,295h 397" fill="none" stroke="black"/>
<text x="384" y="317" fill="black" font-size="11" font-family="Helvetica">
Delta time (ns)
</text>
<path d="M96,288v 7" fill="none" stroke="black"/>
<path d="M106,292v 3" fill="none" stroke="black"/>
<path d="M116,292v 3" fill="none" stroke="black"/>
<path d="M126,292v 3" fill="none" stroke="black"/>
<path d="M136,288v 7" fill="none" stroke="black"/>
<path d="M146,292v 3" fill="none" stroke="black"/>
<path d="M156,292v 3" fill="none" stroke="black"/>
<path d="M166,292v 3" fill="none" stroke="black"/>
<path d="M176,288v 7" fill="none" stroke="black"/>
<path d="M186,292v 3" fill="none" stroke="black"/>
<path d="M196,292v 3" fill="none" stroke="black"/>
<path d="M205,292v 3" fill="none" stroke="black"/>
<path d="M215,288v 7" fill="none" stroke="black"/>
<path d="M225,292v 3" fill="none" stroke="black"/>
<path d="M235,292v 3" fill="none" stroke="black"/>
<path d="M245,292v 3" fill="none" stroke="black"/>
<path d="M255,288v 7" fill="none" stroke="black"/>
<path d="M265,292v 3" fill="none" stroke="black"/>
<path d="M275,292v 3" fill="none" stroke="black"/>
<path d="M285,292v 3" fill="none" stroke="black"/>
<path d="M295,288v 7" fill="none" stroke="black"/>
<path d="M305,292v 3" fill="none" stroke="black"/>
<path d="M315,292v 3" fill="none" stroke="black"/>
<path d="M325,292v 3" fill="none" stroke="black"/>
<path d="M334,288v 7" fill="none" stroke="black"/>
<path d="M344,292v 3" fill="none" stroke="black"/>
<path d="M354,292v 3" fill="none" stroke="black"/>
<path d="M364,292v 3" fill="none" stroke="black"/>
<path d="M374,288v 7" fill="none" stroke="black"/>
<path d="M384,292v 3" fill="none" stroke="black"/>
<path d="M394,292v 3" fill="none" stroke="black"/>
<path d="M404,292v 3" fill="none" stroke="black"/>
<path d="M414,288v 7" fill="none" stroke="black"/>
<path d="M424,292v 3" fill="none" stroke="black"/>
<path d="M434,292v 3" fill="none" stroke="black"/>
<path d="M444,292v 3" fill="none" stroke="black"/>
<path d="M454,288v 7" fill="none" stroke="black"/>
<path d="M96,288v 7" fill="none" stroke="black"/>
<path d="M86,292v 3" fill="none" stroke="black"/>
<path d="M77,292v 3" fill="none" stroke="black"/>
<path d="M67,292v 3" fill="none" stroke="black"/>
<path d="M454,288v 7" fill="none" stroke="black"/>
<text x="84" y="306" fill="black" font-size="11" font-family="Helvetica">
2000
</text>
<text x="124" y="306" fill="black" font-size="11" font-family="Helvetica">
4000
</text>
<text x="164" y="306" fill="black" font-size="11" font-family="Helvetica">
6000
</text>
<text x="203" y="306" fill="black" font-size="11" font-family="Helvetica">
8000
</text>
<text x="240" y="306" fill="black" font-size="11" font-family="Helvetica">
10000
</text>
<text x="280" y="306" fill="black" font-size="11" font-family="Helvetica">
12000
</text>
<text x="319" y="306" fill="black" font-size="11" font-family="Helvetica">
14000
</text>
<text x="359" y="306" fill="black" font-size="11" font-family="Helvetica">
16000
</text>
<text x="399" y="306" fill="black" font-size="11" font-family="Helvetica">
18000
</text>
<text x="439" y="306" fill="black" font-size="11" font-family="Helvetica">
20000
</text>
<path d="M57,295v -262" fill="none" stroke="black"/>
<g transform="rotate(-90,29,61)">
<text x="29" y="61" fill="black" font-size="11" font-family="Helvetica">
Count
</text>
</g>
<path d="M70,295h -13" fill="none" stroke="black"/>
<path d="M63,290h -6" fill="none" stroke="black"/>
<path d="M63,284h -6" fill="none" stroke="black"/>
<path d="M63,278h -6" fill="none" stroke="black"/>
<path d="M63,273h -6" fill="none" stroke="black"/>
<path d="M70,267h -13" fill="none" stroke="black"/>
<path d="M63,261h -6" fill="none" stroke="black"/>
<path d="M63,255h -6" fill="none" stroke="black"/>
<path d="M63,250h -6" fill="none" stroke="black"/>
<path d="M63,244h -6" fill="none" stroke="black"/>
<path d="M70,238h -13" fill="none" stroke="black"/>
<path d="M63,233h -6" fill="none" stroke="black"/>
<path d="M63,227h -6" fill="none" stroke="black"/>
<path d="M63,221h -6" fill="none" stroke="black"/>
<path d="M63,216h -6" fill="none" stroke="black"/>
<path d="M70,210h -13" fill="none" stroke="black"/>
<path d="M63,204h -6" fill="none" stroke="black"/>
<path d="M63,199h -6" fill="none" stroke="black"/>
<path d="M63,193h -6" fill="none" stroke="black"/>
<path d="M63,187h -6" fill="none" stroke="black"/>
<path d="M70,182h -13" fill="none" stroke="black"/>
<path d="M63,176h -6" fill="none" stroke="black"/>
<path d="M63,170h -6" fill="none" stroke="black"/>
<path d="M63,165h -6" fill="none" stroke="black"/>
<path d="M63,159h -6" fill="none" stroke="black"/>
<path d="M70,153h -13" fill="none" stroke="black"/>
<path d="M63,148h -6" fill="none" stroke="black"/>
<path d="M63,142h -6" fill="none" stroke="black"/>
<path d="M63,136h -6" fill="none" stroke="black"/>
<path d="M63,131h -6" fill="none" stroke="black"/>
<path d="M70,125h -13" fill="none" stroke="black"/>
<path d="M63,119h -6" fill="none" stroke="black"/>
<path d="M63,114h -6" fill="none" stroke="black"/>
<path d="M63,108h -6" fill="none" stroke="black"/>
<path d="M63,102h -6" fill="none" stroke="black"/>
<path d="M70,97h -13" fill="none" stroke="black"/>
<path d="M63,91h -6" fill="none" stroke="black"/>
<path d="M63,85h -6" fill="none" stroke="black"/>
<path d="M63,80h -6" fill="none" stroke="black"/>
<path d="M63,74h -6" fill="none" stroke="black"/>
<path d="M70,68h -13" fill="none" stroke="black"/>
<path d="M63,62h -6" fill="none" stroke="black"/>
<path d="M63,57h -6" fill="none" stroke="black"/>
<path d="M63,51h -6" fill="none" stroke="black"/>
<path d="M63,45h -6" fill="none" stroke="black"/>
<path d="M70,40h -13" fill="none" stroke="black"/>
<path d="M70,40h -13" fill="none" stroke="black"/>
<path d="M63,34h -6" fill="none" stroke="black"/>
<text x="48" y="299" fill="black" font-size="11" font-family="Helvetica">
0
</text>
<text x="42" y="271" fill="black" font-size="11" font-family="Helvetica">
10
</text>
<text x="42" y="242" fill="black" font-size="11" font-family="Helvetica">
20
</text>
<text x="42" y="214" fill="black" font-size="11" font-family="Helvetica">
30
</text>
<text x="42" y="185" fill="black" font-size="11" font-family="Helvetica">
40
</text>
<text x="42" y="157" fill="black" font-size="11" font-family="Helvetica">
50
</text>
<text x="42" y="129" fill="black" font-size="11" font-family="Helvetica">
60
</text>
<text x="42" y="100" fill="black" font-size="11" font-family="Helvetica">
70
</text>
<text x="42" y="72" fill="black" font-size="11" font-family="Helvetica">
80
</text>
<text x="42" y="44" fill="black" font-size="11" font-family="Helvetica">
90
</text>
<rect x="459" y="254" width="102" height="41" fill="white"/>
<path d="M459,295h 102" fill="none" stroke="black"/>
<path d="M561,295v -41" fill="none" stroke="black"/>
<path d="M561,254h -102" fill="none" stroke="black"/>
<path d="M459,254v 41" fill="none" stroke="black"/>
<text x="498" y="260" fill="black" font-size="6" font-family="Helvetica">
Air_5mm
</text>
<path d="M459,261h 102" fill="none" stroke="black"/>
<text x="464" y="267" fill="black" font-size="6" font-family="Helvetica">
Mean  
</text>
<text x="538" y="267" fill="black" font-size="6" font-family="Helvetica">
  53.37
</text>
<text x="534" y="267" fill="black" font-size="6" font-family="Times">
&#0177;
</text>
<text x="514" y="267" fill="black" font-size="6" font-family="Helvetica">
   2207 
</text>
<text x="464" y="273" fill="black" font-size="6" font-family="Helvetica">
RMS   
</text>
<text x="538" y="273" fill="black" font-size="6" font-family="Helvetica">
  37.74
</text>
<text x="534" y="273" fill="black" font-size="6" font-family="Times">
&#0177;
</text>
<text x="515" y="273" fill="black" font-size="6" font-family="Helvetica">
   2221 
</text>
<text x="464" y="280" fill="black" font-size="6" font-family="Helvetica">
Underflow 
</text>
<text x="540" y="280" fill="black" font-size="6" font-family="Helvetica">
    424
</text>
<text x="464" y="287" fill="black" font-size="6" font-family="Helvetica">
Overflow  
</text>
<text x="543" y="287" fill="black" font-size="6" font-family="Helvetica">
      0
</text>
<text x="464" y="293" fill="black" font-size="6" font-family="Helvetica">
Integral 
</text>
<text x="538" y="294" fill="black" font-size="6" font-family="Helvetica">
   1732
</text>
<text x="169" y="16" fill="black" font-size="15" font-family="Helvetica">
Muon decay times (100ns bins)
</text>
<path d="M57,91h 2v 59h 2v -14h 2v 51h 2v -11h 2v -37h 2v 46h 2v -12h 2v 3h 2v 31h 2v 14h 2v -8h 3v -14h 2v 42h 2v -3h 2v -5h 2v 14h 2v -20h 2v 20h 2v -6h 2v -14h 2v 17h 2v -6h 2v 29h 2v -3h 2v -14h 2v 8h 2v 15h 2v -26h 2v 8h 2v 6h 2v -3h 2v 3h 2v 6h
 4v 6h 2v -18h 2v 23h 2v -17h 2v 9h 2v -3h 2v 6h 2v 5h 2v -5h 2v -12h 2v 17h 2v 6h 2v -9h 2v 9h 2v 6h 2v 2h 2v -17h 4v -2h 2v 14h 4v -14h 2v 11h 2v 6h 2v -6h 2v -3h 4v 3h 2v 3h 2v 5h 2v -2h 14v 2h 4v -2h 1v 2h 4v -2h 2v 5h 2v -5h 4v 5h 2v -5h 2v 2h
 2v -5h 2v 5h 2v 3h 2v -5h 2v 2h 4v 3h 2v -3h 2v -2h 2v 2h 2v 3h 2v -3h 2v 3h 2v -3h 2v 3h 6v -3h 2v 3h 6v -3h 2v 3h 6v -3h 2v 3h 10v -5h 2v 5h 2v -3h 2v 3h 4v -3h 2v 3h 8v -3h 2v 3h 12v -3h 2v 3h 35v -3h 2v 3h 94" fill="none" stroke="#ff0000"
 stroke-width="2"/>
<rect x="459" y="210" width="102" height="41" fill="white"/>
<path d="M459,251h 102" fill="none" stroke="black"/>
<path d="M561,251v -41" fill="none" stroke="black"/>
<path d="M561,210h -102" fill="none" stroke="black"/>
<path d="M459,210v 41" fill="none" stroke="black"/>
<text x="485" y="215" fill="black" font-size="6" font-family="Helvetica">
Aluminium_0.5mm
</text>
<path d="M459,217h 102" fill="none" stroke="black"/>
<text x="464" y="222" fill="black" font-size="6" font-family="Helvetica">
Mean  
</text>
<text x="538" y="222" fill="black" font-size="6" font-family="Helvetica">
  63.73
</text>
<text x="534" y="222" fill="black" font-size="6" font-family="Times">
&#0177;
</text>
<text x="514" y="222" fill="black" font-size="6" font-family="Helvetica">
   2142 
</text>
<text x="464" y="229" fill="black" font-size="6" font-family="Helvetica">
RMS   
</text>
<text x="538" y="229" fill="black" font-size="6" font-family="Helvetica">
  45.06
</text>
<text x="534" y="229" fill="black" font-size="6" font-family="Times">
&#0177;
</text>
<text x="514" y="229" fill="black" font-size="6" font-family="Helvetica">
   2177 
</text>
<text x="464" y="236" fill="black" font-size="6" font-family="Helvetica">
Underflow 
</text>
<text x="539" y="236" fill="black" font-size="6" font-family="Helvetica">
    346
</text>
<text x="464" y="243" fill="black" font-size="6" font-family="Helvetica">
Overflow  
</text>
<text x="543" y="243" fill="black" font-size="6" font-family="Helvetica">
      0
</text>
<text x="464" y="249" fill="black" font-size="6" font-family="Helvetica">
Integral 
</text>
<text x="538" y="250" fill="black" font-size="6" font-family="Helvetica">
   1167
</text>
<rect x="459" y="210" width="102" height="41" fill="white"/>
<path d="M459,251h 102" fill="none" stroke="black"/>
<path d="M561,251v -41" fill="none" stroke="black"/>
<path d="M561,210h -102" fill="none" stroke="black"/>
<path d="M459,210v 41" fill="none" stroke="black"/>
<text x="485" y="215" fill="black" font-size="6" font-family="Helvetica">
Aluminium_0.5mm
</text>
<path d="M459,217h 102" fill="none" stroke="black"/>
<text x="464" y="222" fill="black" font-size="6" font-family="Helvetica">
Mean  
</text>
<text x="538" y="222" fill="black" font-size="6" font-family="Helvetica">
  63.73
</text>
<text x="534" y="222" fill="black" font-size="6" font-family="Times">
&#0177;
</text>
<text x="514" y="222" fill="black" font-size="6" font-family="Helvetica">
   2142 
</text>
<text x="464" y="229" fill="black" font-size="6" font-family="Helvetica">
RMS   
</text>
<text x="538" y="229" fill="black" font-size="6" font-family="Helvetica">
  45.06
</text>
<text x="534" y="229" fill="black" font-size="6" font-family="Times">
&#0177;
</text>
<text x="514" y="229" fill="black" font-size="6" font-family="Helvetica">
   2177 
</text>
<text x="464" y="236" fill="black" font-size="6" font-family="Helvetica">
Underflow 
</text>
<text x="539" y="236" fill="black" font-size="6" font-family="Helvetica">
    346
</text>
<text x="464" y="243" fill="black" font-size="6" font-family="Helvetica">
Overflow  
</text>
<text x="543" y="243" fill="black" font-size="6" font-family="Helvetica">
      0
</text>
<text x="464" y="249" fill="black" font-size="6" font-family="Helvetica">
Integral 
</text>
<text x="538" y="250" fill="black" font-size="6" font-family="Helvetica">
   1167
</text>
<path d="M57,150h 2v 23h 2v -14h 2v 37h 2v -11h 2v -17h 2v 31h 2v -3h 2v -6h 2v -20h 2v 57h 2v -37h 2v 48h 1v -14h 2v -11h 2v 3h 2v 11h 2v -14h 2v 25h 2v 17h 2v -14h 2v -8h 2v -3h 4v 25h 2v 6h 2v -6h 2v -2h 2v 14h 2v -14h 4v 8h 2v 12h 2v -6h 2v 8h 2v
 3h 2v -5h 2v 14h 2v -26h 2v 17h 2v -3h 2v -2h 4v 11h 2v -11h 2v 17h 2v -9h 2v -11h 2v 20h 2v -6h 2v 3h 2v -9h 2v 6h 2v -6h 2v 12h 2v -3h 2v -12h 2v 15h 6v 2h 2v -5h 2v -3h 2v 8h 2v 3h 2v -8h 2v 3h 4v 2h 4v -2h 2v 2h 2v 3h 6v -8h 1v 3h 2v 5h 4v -3h
 2v 3h 4v -3h 4v 3h 2v -3h 2v 3h 2v -5h 2v 5h 2v -5h 2v 5h 4v -3h 4v 3h 4v -5h 2v 5h 4v -3h 4v 3h 2v -3h 2v 3h 2v -3h 2v 3h 14v -3h 2v 3h 8v -3h 2v 3h 16v -3h 2v 3h 145" fill="none" stroke="#0000ff" stroke-width="2"/>
<rect x="459" y="166" width="102" height="41" fill="white"/>
<path d="M459,207h 102" fill="none" stroke="black"/>
<path d="M561,207v -41" fill="none" stroke="black"/>
<path d="M561,166h -102" fill="none" stroke="black"/>
<path d="M459,166v 41" fill="none" stroke="black"/>
<text x="488" y="171" fill="black" font-size="6" font-family="Helvetica">
Aluminium_1mm
</text>
<path d="M459,173h 102" fill="none" stroke="black"/>
<text x="464" y="178" fill="black" font-size="6" font-family="Helvetica">
Mean  
</text>
<text x="538" y="178" fill="black" font-size="6" font-family="Helvetica">
  58.62
</text>
<text x="534" y="178" fill="black" font-size="6" font-family="Times">
&#0177;
</text>
<text x="514" y="178" fill="black" font-size="6" font-family="Helvetica">
   1977 
</text>
<text x="464" y="185" fill="black" font-size="6" font-family="Helvetica">
RMS   
</text>
<text x="538" y="185" fill="black" font-size="6" font-family="Helvetica">
  41.45
</text>
<text x="534" y="185" fill="black" font-size="6" font-family="Times">
&#0177;
</text>
<text x="514" y="185" fill="black" font-size="6" font-family="Helvetica">
   1903 
</text>
<text x="464" y="192" fill="black" font-size="6" font-family="Helvetica">
Underflow 
</text>
<text x="539" y="192" fill="black" font-size="6" font-family="Helvetica">
    407
</text>
<text x="464" y="199" fill="black" font-size="6" font-family="Helvetica">
Overflow  
</text>
<text x="544" y="199" fill="black" font-size="6" font-family="Helvetica">
      1
</text>
<text x="464" y="205" fill="black" font-size="6" font-family="Helvetica">
Integral 
</text>
<text x="538" y="206" fill="black" font-size="6" font-family="Helvetica">
   1054
</text>
<rect x="459" y="166" width="102" height="41" fill="white"/>
<path d="M459,207h 102" fill="none" stroke="black"/>
<path d="M561,207v -41" fill="none" stroke="black"/>
<path d="M561,166h -102" fill="none" stroke="black"/>
<path d="M459,166v 41" fill="none" stroke="black"/>
<text x="488" y="171" fill="black" font-size="6" font-family="Helvetica">
Aluminium_1mm
</text>
<path d="M459,173h 102" fill="none" stroke="black"/>
<text x="464" y="178" fill="black" font-size="6" font-family="Helvetica">
Mean  
</text>
<text x="538" y="178" fill="black" font-size="6" font-family="Helvetica">
  58.62
</text>
<text x="534" y="178" fill="black" font-size="6" font-family="Times">
&#0177;
</text>
<text x="514" y="178" fill="black" font-size="6" font-family="Helvetica">
   1977 
</text>
<text x="464" y="185" fill="black" font-size="6" font-family="Helvetica">
RMS   
</text>
<text x="538" y="185" fill="black" font-size="6" font-family="Helvetica">
  41.45
</text>
<text x="534" y="185" fill="black" font-size="6" font-family="Times">
&#0177;
</text>
<text x="514" y="185" fill="black" font-size="6" font-family="Helvetica">
   1903 
</text>
<text x="464" y="192" fill="black" font-size="6" font-family="Helvetica">
Underflow 
</text>
<text x="539" y="192" fill="black" font-size="6" font-family="Helvetica">
    407
</text>
<text x="464" y="199" fill="black" font-size="6" font-family="Helvetica">
Overflow  
</text>
<text x="544" y="199" fill="black" font-size="6" font-family="Helvetica">
      1
</text>
<text x="464" y="205" fill="black" font-size="6" font-family="Helvetica">
Integral 
</text>
<text x="538" y="206" fill="black" font-size="6" font-family="Helvetica">
   1054
</text>
<path d="M57,199h 2v 11h 2v -11h 2v -6h 2v 28h 2v -22h 2v 17h 2v 17h 6v -23h 2v 40h 2v 8h 1v -5h 2v 5h 2v 12h 2v -34h 2v 8h 2v 23h 2v -14h 2v -3h 2v 3h 2v 14h 2v -14h 2v 25h 2v -8h 4v -3h 6v 6h 2v -6h 2v -3h 2v 9h 2v 14h 2v -9h 2v 6h 2v -3h 2v -6h 4v
 9h 6v 6h 2v -3h 2v 3h 2v -6h 2v -3h 2v 6h 2v -3h 2v -3h 2v 6h 6v -3h 2v 11h 2v -3h 4v 3h 2v -5h 2v -3h 2v 8h 6v -3h 4v 3h 2v -3h 2v 3h 4v -5h 4v 2h 4v -2h 2v 5h 1v -5h 2v 2h 2v 3h 4v -3h 2v 3h 2v -3h 2v -2h 2v 2h 4v 3h 18v -3h 2v 3h 4v -5h 2v 2h 2v
 3h 2v -5h 2v 5h 2v -3h 2v 3h 18v -3h 2v 3h 8v -3h 2v 3h 16v -3h 2v 3h 143" fill="none" stroke="#00ff00" stroke-width="2"/>
<rect x="459" y="121" width="102" height="41" fill="white"/>
<path d="M459,162h 102" fill="none" stroke="black"/>
<path d="M561,162v -41" fill="none" stroke="black"/>
<path d="M561,121h -102" fill="none" stroke="black"/>
<path d="M459,121v 41" fill="none" stroke="black"/>
<text x="488" y="126" fill="black" font-size="6" font-family="Helvetica">
Aluminium_5mm
</text>
<path d="M459,128h 102" fill="none" stroke="black"/>
<text x="464" y="134" fill="black" font-size="6" font-family="Helvetica">
Mean  
</text>
<text x="538" y="134" fill="black" font-size="6" font-family="Helvetica">
  74.39
</text>
<text x="534" y="134" fill="black" font-size="6" font-family="Times">
&#0177;
</text>
<text x="514" y="134" fill="black" font-size="6" font-family="Helvetica">
   1983 
</text>
<text x="464" y="141" fill="black" font-size="6" font-family="Helvetica">
RMS   
</text>
<text x="539" y="141" fill="black" font-size="6" font-family="Helvetica">
   52.6
</text>
<text x="536" y="141" fill="black" font-size="6" font-family="Times">
&#0177;
</text>
<text x="516" y="141" fill="black" font-size="6" font-family="Helvetica">
   1992 
</text>
<text x="464" y="147" fill="black" font-size="6" font-family="Helvetica">
Underflow 
</text>
<text x="539" y="147" fill="black" font-size="6" font-family="Helvetica">
    287
</text>
<text x="464" y="154" fill="black" font-size="6" font-family="Helvetica">
Overflow  
</text>
<text x="543" y="154" fill="black" font-size="6" font-family="Helvetica">
      0
</text>
<text x="464" y="161" fill="black" font-size="6" font-family="Helvetica">
Integral 
</text>
<text x="539" y="161" fill="black" font-size="6" font-family="Helvetica">
    717
</text>
<rect x="459" y="121" width="102" height="41" fill="white"/>
<path d="M459,162h 102" fill="none" stroke="black"/>
<path d="M561,162v -41" fill="none" stroke="black"/>
<path d="M561,121h -102" fill="none" stroke="black"/>
<path d="M459,121v 41" fill="none" stroke="black"/>
<text x="488" y="126" fill="black" font-size="6" font-family="Helvetica">
Aluminium_5mm
</text>
<path d="M459,128h 102" fill="none" stroke="black"/>
<text x="464" y="134" fill="black" font-size="6" font-family="Helvetica">
Mean  
</text>
<text x="538" y="134" fill="black" font-size="6" font-family="Helvetica">
  74.39
</text>
<text x="534" y="134" fill="black" font-size="6" font-family="Times">
&#0177;
</text>
<text x="514" y="134" fill="black" font-size="6" font-family="Helvetica">
   1983 
</text>
<text x="464" y="141" fill="black" font-size="6" font-family="Helvetica">
RMS   
</text>
<text x="539" y="141" fill="black" font-size="6" font-family="Helvetica">
   52.6
</text>
<text x="536" y="141" fill="black" font-size="6" font-family="Times">
&#0177;
</text>
<text x="516" y="141" fill="black" font-size="6" font-family="Helvetica">
   1992 
</text>
<text x="464" y="147" fill="black" font-size="6" font-family="Helvetica">
Underflow 
</text>
<text x="539" y="147" fill="black" font-size="6" font-family="Helvetica">
    287
</text>
<text x="464" y="154" fill="black" font-size="6" font-family="Helvetica">
Overflow  
</text>
<text x="543" y="154" fill="black" font-size="6" font-family="Helvetica">
      0
</text>
<text x="464" y="161" fill="black" font-size="6" font-family="Helvetica">
Integral 
</text>
<text x="539" y="161" fill="black" font-size="6" font-family="Helvetica">
    717
</text>
<path d="M57,182h 2v 45h 2v -6h 2v 17h 2v -19h 2v 28h 2v -14h 2v 14h 4v -11h 2v 11h 2v 14h 2v 6h 1v -17h 2v 5h 4v 18h 2v -12h 2v -3h 2v 6h 2v 14h 2v 3h 2v -11h 4v 3h 2v -15h 2v 17h 2v 6h 2v -14h 2v 3h 2v 8h 2v 6h 2v -6h 2v 3h 2v 6h 2v -12h 2v 6h 2v
 6h 2v 3h 2v -9h 2v 6h 2v -3h 2v 3h 2v -9h 2v 6h 2v -3h 4v 3h 6v 11h 2v -5h 4v -3h 2v 8h 6v -3h 2v -2h 2v -3h 2v 8h 2v -5h 2v -6h 2v 11h 10v -8h 2v 8h 4v -3h 2v -2h 2v 5h 2v -3h 3v 3h 6v -3h 2v 3h 4v -3h 2v 3h 4v -3h 2v 3h 4v -3h 2v 3h 8v -3h 2v 3h
 2v -5h 2v 5h 2v -3h 2v 3h 8v -3h 4v 3h 2v -3h 2v 3h 14v -3h 2v 3h 12v -3h 2v 3h 24v -3h 4v 3h 6v -3h 2v 3h 67v -3h 2v 3h 52" fill="none" stroke="#ff00ff" stroke-width="2"/>
<rect x="459" y="77" width="102" height="41" fill="white"/>
<path d="M459,118h 102" fill="none" stroke="black"/>
<path d="M561,118v -41" fill="none" stroke="black"/>
<path d="M561,77h -102" fill="none" stroke="black"/>
<path d="M459,77v 41" fill="none" stroke="black"/>
<text x="488" y="83" fill="black" font-size="6" font-family="Helvetica">
Aluminium_8mm
</text>
<path d="M459,84h 102" fill="none" stroke="black"/>
<text x="464" y="90" fill="black" font-size="6" font-family="Helvetica">
Mean  
</text>
<text x="539" y="90" fill="black" font-size="6" font-family="Helvetica">
   94.9
</text>
<text x="536" y="90" fill="black" font-size="6" font-family="Times">
&#0177;
</text>
<text x="517" y="90" fill="black" font-size="6" font-family="Helvetica">
   2091 
</text>
<text x="464" y="96" fill="black" font-size="6" font-family="Helvetica">
RMS   
</text>
<text x="539" y="96" fill="black" font-size="6" font-family="Helvetica">
  67.11
</text>
<text x="535" y="96" fill="black" font-size="6" font-family="Times">
&#0177;
</text>
<text x="515" y="96" fill="black" font-size="6" font-family="Helvetica">
   2268 
</text>
<text x="464" y="103" fill="black" font-size="6" font-family="Helvetica">
Underflow 
</text>
<text x="539" y="103" fill="black" font-size="6" font-family="Helvetica">
    216
</text>
<text x="464" y="110" fill="black" font-size="6" font-family="Helvetica">
Overflow  
</text>
<text x="543" y="110" fill="black" font-size="6" font-family="Helvetica">
      0
</text>
<text x="464" y="116" fill="black" font-size="6" font-family="Helvetica">
Integral 
</text>
<text x="540" y="117" fill="black" font-size="6" font-family="Helvetica">
    571
</text>
<rect x="459" y="77" width="102" height="41" fill="white"/>
<path d="M459,118h 102" fill="none" stroke="black"/>
<path d="M561,118v -41" fill="none" stroke="black"/>
<path d="M561,77h -102" fill="none" stroke="black"/>
<path d="M459,77v 41" fill="none" stroke="black"/>
<text x="488" y="83" fill="black" font-size="6" font-family="Helvetica">
Aluminium_8mm
</text>
<path d="M459,84h 102" fill="none" stroke="black"/>
<text x="464" y="90" fill="black" font-size="6" font-family="Helvetica">
Mean  
</text>
<text x="539" y="90" fill="black" font-size="6" font-family="Helvetica">
   94.9
</text>
<text x="536" y="90" fill="black" font-size="6" font-family="Times">
&#0177;
</text>
<text x="517" y="90" fill="black" font-size="6" font-family="Helvetica">
   2091 
</text>
<text x="464" y="96" fill="black" font-size="6" font-family="Helvetica">
RMS   
</text>
<text x="539" y="96" fill="black" font-size="6" font-family="Helvetica">
  67.11
</text>
<text x="535" y="96" fill="black" font-size="6" font-family="Times">
&#0177;
</text>
<text x="515" y="96" fill="black" font-size="6" font-family="Helvetica">
   2268 
</text>
<text x="464" y="103" fill="black" font-size="6" font-family="Helvetica">
Underflow 
</text>
<text x="539" y="103" fill="black" font-size="6" font-family="Helvetica">
    216
</text>
<text x="464" y="110" fill="black" font-size="6" font-family="Helvetica">
Overflow  
</text>
<text x="543" y="110" fill="black" font-size="6" font-family="Helvetica">
      0
</text>
<text x="464" y="116" fill="black" font-size="6" font-family="Helvetica">
Integral 
</text>
<text x="540" y="117" fill="black" font-size="6" font-family="Helvetica">
    571
</text>
<path d="M57,250h 2v -20h 2v 25h 2v 15h 2v -23h 2v 11h 2v 23h 2v -34h 2v 28h 2v -14h 2v -3h 2v 12h 2v 5h 1v -11h 2v 17h 2v -11h 2v 8h 2v -23h 2v 29h 2v -3h 2v -11h 2v 5h 2v 3h 2v -5h 2v 2h 2v 6h 4v -3h 2v -5h 2v 17h 2v -9h 2v 9h 2v -6h 2v 6h 2v -9h
 4v 6h 4v 5h 4v -2h 2v 2h 2v -11h 2v 11h 2v 3h 2v -8h 2v 3h 2v -3h 2v 3h 2v 2h 4v -11h 2v 11h 2v -8h 2v 8h 2v 3h 2v -5h 2v 5h 2v -11h 2v 11h 4v -3h 2v 3h 2v -5h 2v 5h 2v -3h 2v 3h 6v -3h 2v -2h 2v 2h 2v -5h 2v 5h 2v 3h 3v -3h 2v -2h 2v 5h 4v -3h 2v
 3h 12v -3h 4v 3h 16v -3h 2v 3h 8v -3h 2v 3h 14v -3h 2v 3h 177" fill="none" stroke="#00ffff" stroke-width="2"/>
<rect x="459" y="33" width="102" height="41" fill="white"/>
<path d="M459,74h 102" fill="none" stroke="black"/>
<path d="M561,74v -41" fill="none" stroke="black"/>
<path d="M561,33h -102" fill="none" stroke="black"/>
<path d="M459,33v 41" fill="none" stroke="black"/>
<text x="475" y="40" fill="black" font-size="9" font-family="Helvetica">
Aluminium_12mm
</text>
<path d="M459,43h 102" fill="none" stroke="black"/>
<text x="464" y="51" fill="black" font-size="9" font-family="Helvetica">
Entries 
</text>
<text x="539" y="51" fill="black" font-size="9" font-family="Helvetica">
 517
</text>
<text x="464" y="62" fill="black" font-size="9" font-family="Helvetica">
Mean  
</text>
<text x="529" y="62" fill="black" font-size="9" font-family="Helvetica">
   2139
</text>
<text x="464" y="72" fill="black" font-size="9" font-family="Helvetica">
RMS   
</text>
<text x="531" y="72" fill="black" font-size="9" font-family="Helvetica">
   2021
</text>
<rect x="459" y="33" width="102" height="41" fill="white"/>
<path d="M459,74h 102" fill="none" stroke="black"/>
<path d="M561,74v -41" fill="none" stroke="black"/>
<path d="M561,33h -102" fill="none" stroke="black"/>
<path d="M459,33v 41" fill="none" stroke="black"/>
<text x="486" y="38" fill="black" font-size="6" font-family="Helvetica">
Aluminium_12mm
</text>
<path d="M459,40h 102" fill="none" stroke="black"/>
<text x="464" y="45" fill="black" font-size="6" font-family="Helvetica">
Mean  
</text>
<text x="538" y="45" fill="black" font-size="6" font-family="Helvetica">
  105.2
</text>
<text x="534" y="45" fill="black" font-size="6" font-family="Times">
&#0177;
</text>
<text x="514" y="45" fill="black" font-size="6" font-family="Helvetica">
   2139 
</text>
<text x="464" y="52" fill="black" font-size="6" font-family="Helvetica">
RMS   
</text>
<text x="538" y="52" fill="black" font-size="6" font-family="Helvetica">
  74.38
</text>
<text x="534" y="52" fill="black" font-size="6" font-family="Times">
&#0177;
</text>
<text x="515" y="52" fill="black" font-size="6" font-family="Helvetica">
   2021 
</text>
<text x="464" y="59" fill="black" font-size="6" font-family="Helvetica">
Underflow 
</text>
<text x="539" y="59" fill="black" font-size="6" font-family="Helvetica">
    148
</text>
<text x="464" y="66" fill="black" font-size="6" font-family="Helvetica">
Overflow  
</text>
<text x="543" y="66" fill="black" font-size="6" font-family="Helvetica">
      0
</text>
<text x="464" y="72" fill="black" font-size="6" font-family="Helvetica">
Integral 
</text>
<text x="539" y="73" fill="black" font-size="6" font-family="Helvetica">
    369
</text>
<rect x="340" y="33" width="114" height="79" fill="white"/>
<path d="M340,112h 114" fill="none" stroke="black"/>
<path d="M454,112v -79" fill="none" stroke="black"/>
<path d="M454,33h -114" fill="none" stroke="black"/>
<path d="M340,33v 79" fill="none" stroke="black"/>
<text x="368" y="42" fill="black" font-size="8" font-family="Helvetica" font-weight="bold">
Air_5mm
</text>
<path d="M344,44h 20v -9h -20z" fill="white"/>
<path d="M344,40h 20" fill="none" stroke="black" stroke-width="2"/>
<g stroke="black" stroke-width="2" fill="none">
<line x1="353" y1="40" x2="354" y2="40"/>
</g>
<text x="368" y="55" fill="black" font-size="8" font-family="Helvetica" font-weight="bold">
Aluminium_0.5mm
</text>
<path d="M344,57h 20v -9h -20z" fill="white"/>
<path d="M344,53h 20" fill="none" stroke="#ff0000" stroke-width="2"/>
<g stroke="black" stroke-width="2" fill="none">
<line x1="353" y1="53" x2="354" y2="53"/>
</g>
<text x="368" y="68" fill="black" font-size="8" font-family="Helvetica" font-weight="bold">
Aluminium_1mm
</text>
<path d="M344,70h 20v -9h -20z" fill="white"/>
<path d="M344,66h 20" fill="none" stroke="#0000ff" stroke-width="2"/>
<g stroke="black" stroke-width="2" fill="none">
<line x1="353" y1="66" x2="354" y2="66"/>
</g>
<text x="368" y="81" fill="black" font-size="8" font-family="Helvetica" font-weight="bold">
Aluminium_5mm
</text>
<path d="M344,83h 20v -9h -20z" fill="white"/>
<path d="M344,79h 20" fill="none" stroke="#00ff00" stroke-width="2"/>
<g stroke="black" stroke-width="2" fill="none">
<line x1="353" y1="79" x2="354" y2="79"/>
</g>
<text x="368" y="94" fill="black" font-size="8" font-family="Helvetica" font-weight="bold">
Aluminium_8mm
</text>
<path d="M344,97h 20v -10h -20z" fill="white"/>
<path d="M344,92h 20" fill="none" stroke="#ff00ff" stroke-width="2"/>
<g stroke="black" stroke-width="2" fill="none">
<line x1="353" y1="92" x2="354" y2="92"/>
</g>
<text x="368" y="107" fill="black" font-size="8" font-family="Helvetica" font-weight="bold">
Aluminium_12mm
</text>
<path d="M344,110h 20v -9h -20z" fill="white"/>
<path d="M344,105h 20" fill="none" stroke="#00ffff" stroke-width="2"/>
<g stroke="black" stroke-width="2" fill="none">
<line x1="353" y1="105" x2="354" y2="105"/>
</g></svg>
