<?xml version="1.0" standalone="no"?>
<svg width="567" height="371" viewBox="0 0 567 371" xmlns="http://www.w3.org/2000/svg">
<title>
/Users/samcook/code/MuSIC/simulation/MuSIC_5_detector_sim/MuSIC5/MuSIC5_detector/scripts/images/particles_at_beampipe_counter5.svg
</title>
<desc>
Creator: ROOT Version 5.32/00
CreationDate: Wed Dec  5 15:44:31 2012</desc>
<defs>
</defs>
<rect x="0" y="0" width="567" height="371" fill="white"/>
<rect x="57" y="36" width="494" height="298" fill="white"/>
<rect x="57" y="36" width="494" height="298" fill="none" stroke="black"/>
<rect x="57" y="36" width="494" height="298" fill="white"/>
<rect x="57" y="36" width="494" height="298" fill="none" stroke="black"/>
<path d="M57,303h 70v -143h 71v -34h 70v -61h 71v 202h 71v -84h 70v 12h 71" fill="none" stroke="#000099"/>
<rect x="437" y="36" width="114" height="60" fill="white"/>
<path d="M437,96h 114" fill="none" stroke="black"/>
<path d="M551,96v -60" fill="none" stroke="black"/>
<path d="M551,36h -114" fill="none" stroke="black"/>
<path d="M437,36v 60" fill="none" stroke="black"/>
<text x="442" y="46" fill="black" font-size="9" font-family="Helvetica">
Particle types at beam pipe
</text>
<path d="M437,51h 114" fill="none" stroke="black"/>
<text x="442" y="63" fill="black" font-size="13" font-family="Helvetica">
Entries 
</text>
<text x="500" y="63" fill="black" font-size="13" font-family="Helvetica">
 956964
</text>
<text x="442" y="78" fill="black" font-size="13" font-family="Helvetica">
Mean  
</text>
<text x="507" y="78" fill="black" font-size="13" font-family="Helvetica">
  3.874
</text>
<text x="442" y="93" fill="black" font-size="13" font-family="Helvetica">
RMS   
</text>
<text x="508" y="93" fill="black" font-size="13" font-family="Helvetica">
  1.001
</text>
<path d="M57,334h 494" fill="none" stroke="black"/>
<text x="510" y="359" fill="black" font-size="12" font-family="Helvetica">
Particle
</text>
<text x="93" y="342" fill="black" font-size="8" font-family="Helvetica">
-
</text>
<text x="88" y="342" fill="black" font-size="8" font-family="Times">
&#0960;
</text>
<text x="162" y="343" fill="black" font-size="8" font-family="Helvetica">
+
</text>
<text x="157" y="343" fill="black" font-size="8" font-family="Times">
&#0956;
</text>
<text x="228" y="343" fill="black" font-size="8" font-family="Helvetica">
e+
</text>
<text x="300" y="343" fill="black" font-size="8" font-family="Helvetica">
e-
</text>
<text x="375" y="342" fill="black" font-size="8" font-family="Helvetica">
-
</text>
<text x="370" y="342" fill="black" font-size="8" font-family="Times">
&#0956;
</text>
<text x="445" y="343" fill="black" font-size="8" font-family="Helvetica">
+
</text>
<text x="440" y="343" fill="black" font-size="8" font-family="Times">
&#0960;
</text>
<text x="513" y="343" fill="black" font-size="8" font-family="Helvetica">
p
</text>
<path d="M92,324v 10" fill="none" stroke="black"/>
<path d="M162,324v 10" fill="none" stroke="black"/>
<path d="M233,324v 10" fill="none" stroke="black"/>
<path d="M304,324v 10" fill="none" stroke="black"/>
<path d="M374,324v 10" fill="none" stroke="black"/>
<path d="M445,324v 10" fill="none" stroke="black"/>
<path d="M515,324v 10" fill="none" stroke="black"/>
<path d="M92,324v 10" fill="none" stroke="black"/>
<path d="M515,324v 10" fill="none" stroke="black"/>
<path d="M57,334v -298" fill="none" stroke="black"/>
<g transform="rotate(-90,29,68)">
<text x="29" y="68" fill="black" font-size="12" font-family="Helvetica">
Count
</text>
</g>
<path d="M63,321h -6" fill="none" stroke="black"/>
<path d="M63,303h -6" fill="none" stroke="black"/>
<path d="M63,290h -6" fill="none" stroke="black"/>
<path d="M63,280h -6" fill="none" stroke="black"/>
<path d="M63,272h -6" fill="none" stroke="black"/>
<path d="M63,265h -6" fill="none" stroke="black"/>
<path d="M63,259h -6" fill="none" stroke="black"/>
<path d="M63,254h -6" fill="none" stroke="black"/>
<path d="M70,249h -13" fill="none" stroke="black"/>
<text x="48" y="249" fill="black" font-size="8" font-family="Helvetica">
4
</text>
<text x="35" y="255" fill="black" font-size="12" font-family="Helvetica">
10
</text>
<path d="M63,218h -6" fill="none" stroke="black"/>
<path d="M63,200h -6" fill="none" stroke="black"/>
<path d="M63,188h -6" fill="none" stroke="black"/>
<path d="M63,178h -6" fill="none" stroke="black"/>
<path d="M63,170h -6" fill="none" stroke="black"/>
<path d="M63,163h -6" fill="none" stroke="black"/>
<path d="M63,157h -6" fill="none" stroke="black"/>
<path d="M63,152h -6" fill="none" stroke="black"/>
<path d="M70,147h -13" fill="none" stroke="black"/>
<text x="48" y="147" fill="black" font-size="8" font-family="Helvetica">
5
</text>
<text x="35" y="153" fill="black" font-size="12" font-family="Helvetica">
10
</text>
<path d="M63,116h -6" fill="none" stroke="black"/>
<path d="M63,98h -6" fill="none" stroke="black"/>
<path d="M63,85h -6" fill="none" stroke="black"/>
<path d="M63,75h -6" fill="none" stroke="black"/>
<path d="M63,67h -6" fill="none" stroke="black"/>
<path d="M63,60h -6" fill="none" stroke="black"/>
<path d="M63,54h -6" fill="none" stroke="black"/>
<path d="M63,49h -6" fill="none" stroke="black"/>
<path d="M70,45h -13" fill="none" stroke="black"/>
<text x="48" y="44" fill="black" font-size="8" font-family="Helvetica">
6
</text>
<text x="35" y="50" fill="black" font-size="12" font-family="Helvetica">
10
</text>
<rect x="437" y="36" width="114" height="60" fill="white"/>
<path d="M437,96h 114" fill="none" stroke="black"/>
<path d="M551,96v -60" fill="none" stroke="black"/>
<path d="M551,36h -114" fill="none" stroke="black"/>
<path d="M437,36v 60" fill="none" stroke="black"/>
<text x="442" y="46" fill="black" font-size="9" font-family="Helvetica">
Particle types at beam pipe
</text>
<path d="M437,51h 114" fill="none" stroke="black"/>
<text x="442" y="63" fill="black" font-size="13" font-family="Helvetica">
Entries 
</text>
<text x="500" y="63" fill="black" font-size="13" font-family="Helvetica">
 956964
</text>
<text x="442" y="78" fill="black" font-size="13" font-family="Helvetica">
Mean  
</text>
<text x="507" y="78" fill="black" font-size="13" font-family="Helvetica">
  3.874
</text>
<text x="442" y="93" fill="black" font-size="13" font-family="Helvetica">
RMS   
</text>
<text x="508" y="93" fill="black" font-size="13" font-family="Helvetica">
  1.001
</text>
<text x="175" y="18" fill="black" font-size="18" font-family="Helvetica">
Particle types at beam pipe
</text></svg>
