<?xml version="1.0" standalone="no"?>
<svg width="567" height="328" viewBox="0 0 567 328" xmlns="http://www.w3.org/2000/svg">
<title>
/Users/samcook/code/MuSIC/simulation/MuSIC_5_detector_sim/MuSIC5/MuSIC5_detector/scripts/images/particles_at_beampipe_in_pdgid.svg
</title>
<desc>
Creator: ROOT Version 5.32/00
CreationDate: Wed Dec  5 15:50:14 2012</desc>
<defs>
</defs>
<rect x="0" y="0" width="567" height="328" fill="white"/>
<rect x="57" y="33" width="453" height="262" fill="white"/>
<rect x="57" y="33" width="453" height="262" fill="none" stroke="black"/>
<rect x="57" y="33" width="453" height="262" fill="white"/>
<rect x="57" y="33" width="453" height="262" fill="none" stroke="black"/>
<path d="M57,294h 64v -37h 65v -32h 65v -180h 65v 247h 65v -20h 64v 6h 65" fill="none" stroke="#000099"/>
<rect x="442" y="22" width="114" height="52" fill="white"/>
<path d="M442,74h 114" fill="none" stroke="black"/>
<path d="M556,74v -52" fill="none" stroke="black"/>
<path d="M556,22h -114" fill="none" stroke="black"/>
<path d="M442,22v 52" fill="none" stroke="black"/>
<text x="446" y="30" fill="black" font-size="8" font-family="Helvetica">
Particle types at beam pipe
</text>
<path d="M442,35h 114" fill="none" stroke="black"/>
<text x="448" y="45" fill="black" font-size="11" font-family="Helvetica">
Entries 
</text>
<text x="510" y="45" fill="black" font-size="11" font-family="Helvetica">
 784654
</text>
<text x="448" y="58" fill="black" font-size="11" font-family="Helvetica">
Mean  
</text>
<text x="516" y="58" fill="black" font-size="11" font-family="Helvetica">
  3.882
</text>
<text x="448" y="71" fill="black" font-size="11" font-family="Helvetica">
RMS   
</text>
<text x="516" y="71" fill="black" font-size="11" font-family="Helvetica">
  1.096
</text>
<path d="M57,295h 453" fill="none" stroke="black"/>
<text x="475" y="317" fill="black" font-size="11" font-family="Helvetica">
Particle
</text>
<text x="90" y="303" fill="black" font-size="7" font-family="Helvetica">
-
</text>
<text x="86" y="303" fill="black" font-size="7" font-family="Times">
&#0960;
</text>
<text x="154" y="303" fill="black" font-size="7" font-family="Helvetica">
+
</text>
<text x="149" y="303" fill="black" font-size="7" font-family="Times">
&#0956;
</text>
<text x="215" y="303" fill="black" font-size="7" font-family="Helvetica">
e+
</text>
<text x="280" y="303" fill="black" font-size="7" font-family="Helvetica">
e-
</text>
<text x="349" y="303" fill="black" font-size="7" font-family="Helvetica">
-
</text>
<text x="344" y="303" fill="black" font-size="7" font-family="Times">
&#0956;
</text>
<text x="413" y="303" fill="black" font-size="7" font-family="Helvetica">
+
</text>
<text x="409" y="303" fill="black" font-size="7" font-family="Times">
&#0960;
</text>
<text x="475" y="303" fill="black" font-size="7" font-family="Helvetica">
p
</text>
<path d="M89,287v 8" fill="none" stroke="black"/>
<path d="M154,287v 8" fill="none" stroke="black"/>
<path d="M219,287v 8" fill="none" stroke="black"/>
<path d="M283,287v 8" fill="none" stroke="black"/>
<path d="M348,287v 8" fill="none" stroke="black"/>
<path d="M413,287v 8" fill="none" stroke="black"/>
<path d="M478,287v 8" fill="none" stroke="black"/>
<path d="M89,287v 8" fill="none" stroke="black"/>
<path d="M478,287v 8" fill="none" stroke="black"/>
<path d="M57,295v -262" fill="none" stroke="black"/>
<g transform="rotate(-90,29,61)">
<text x="29" y="61" fill="black" font-size="11" font-family="Helvetica">
Count
</text>
</g>
<path d="M70,295h -13" fill="none" stroke="black"/>
<path d="M63,285h -6" fill="none" stroke="black"/>
<path d="M63,275h -6" fill="none" stroke="black"/>
<path d="M63,264h -6" fill="none" stroke="black"/>
<path d="M63,254h -6" fill="none" stroke="black"/>
<path d="M70,244h -13" fill="none" stroke="black"/>
<path d="M63,233h -6" fill="none" stroke="black"/>
<path d="M63,223h -6" fill="none" stroke="black"/>
<path d="M63,213h -6" fill="none" stroke="black"/>
<path d="M63,203h -6" fill="none" stroke="black"/>
<path d="M70,192h -13" fill="none" stroke="black"/>
<path d="M63,182h -6" fill="none" stroke="black"/>
<path d="M63,172h -6" fill="none" stroke="black"/>
<path d="M63,161h -6" fill="none" stroke="black"/>
<path d="M63,151h -6" fill="none" stroke="black"/>
<path d="M70,141h -13" fill="none" stroke="black"/>
<path d="M63,131h -6" fill="none" stroke="black"/>
<path d="M63,120h -6" fill="none" stroke="black"/>
<path d="M63,110h -6" fill="none" stroke="black"/>
<path d="M63,100h -6" fill="none" stroke="black"/>
<path d="M70,89h -13" fill="none" stroke="black"/>
<path d="M63,79h -6" fill="none" stroke="black"/>
<path d="M63,69h -6" fill="none" stroke="black"/>
<path d="M63,58h -6" fill="none" stroke="black"/>
<path d="M63,48h -6" fill="none" stroke="black"/>
<path d="M70,38h -13" fill="none" stroke="black"/>
<path d="M70,38h -13" fill="none" stroke="black"/>
<text x="48" y="299" fill="black" font-size="11" font-family="Helvetica">
0
</text>
<text x="36" y="248" fill="black" font-size="11" font-family="Helvetica">
100
</text>
<text x="36" y="196" fill="black" font-size="11" font-family="Helvetica">
200
</text>
<text x="36" y="145" fill="black" font-size="11" font-family="Helvetica">
300
</text>
<text x="36" y="93" fill="black" font-size="11" font-family="Helvetica">
400
</text>
<text x="36" y="42" fill="black" font-size="11" font-family="Helvetica">
500
</text>
<text x="74" y="26" fill="black" font-size="7" font-family="Helvetica">
3
</text>
<text x="63" y="31" fill="black" font-size="11" font-family="Helvetica">
10
</text>
<text x="57" y="31" fill="black" font-size="11" font-family="Times">
&#0215;
</text>
<rect x="442" y="22" width="114" height="52" fill="white"/>
<path d="M442,74h 114" fill="none" stroke="black"/>
<path d="M556,74v -52" fill="none" stroke="black"/>
<path d="M556,22h -114" fill="none" stroke="black"/>
<path d="M442,22v 52" fill="none" stroke="black"/>
<text x="446" y="30" fill="black" font-size="8" font-family="Helvetica">
Particle types at beam pipe
</text>
<path d="M442,35h 114" fill="none" stroke="black"/>
<text x="448" y="45" fill="black" font-size="11" font-family="Helvetica">
Entries 
</text>
<text x="510" y="45" fill="black" font-size="11" font-family="Helvetica">
 784654
</text>
<text x="448" y="58" fill="black" font-size="11" font-family="Helvetica">
Mean  
</text>
<text x="516" y="58" fill="black" font-size="11" font-family="Helvetica">
  3.882
</text>
<text x="448" y="71" fill="black" font-size="11" font-family="Helvetica">
RMS   
</text>
<text x="516" y="71" fill="black" font-size="11" font-family="Helvetica">
  1.096
</text>
<text x="188" y="16" fill="black" font-size="16" font-family="Helvetica">
Particle types at beam pipe
</text></svg>
