<?xml version="1.0" standalone="no"?>
<svg width="567" height="328" viewBox="0 0 567 328" xmlns="http://www.w3.org/2000/svg">
<title>
images/pid_counts_at_beampipe.svg
</title>
<desc>
Creator: ROOT Version 5.32/00
CreationDate: Sun Dec  9 16:42:56 2012</desc>
<defs>
</defs>
<rect x="0" y="0" width="567" height="328" fill="white"/>
<rect x="57" y="33" width="397" height="262" fill="white"/>
<rect x="57" y="33" width="397" height="262" fill="none" stroke="black"/>
<rect x="57" y="33" width="397" height="262" fill="white"/>
<rect x="57" y="33" width="397" height="262" fill="none" stroke="black"/>
<path d="M57,294h 56v -14h 57v -21h 57v -214h 56v 249h 57v -8h 57v -1h 57" fill="none" stroke="#ff0000" stroke-width="2"/>
<rect x="459" y="33" width="102" height="129" fill="white"/>
<path d="M459,162h 102" fill="none" stroke="black"/>
<path d="M561,162v -129" fill="none" stroke="black"/>
<path d="M561,33h -102" fill="none" stroke="black"/>
<path d="M459,33v 129" fill="none" stroke="black"/>
<text x="464" y="55" fill="black" font-size="21" font-family="Helvetica">
g4bl_pids
</text>
<path d="M459,65h 102" fill="none" stroke="black"/>
<text x="464" y="87" fill="black" font-size="14" font-family="Helvetica">
Entries 
</text>
<text x="544" y="87" fill="black" font-size="14" font-family="Helvetica">
 7
</text>
<text x="464" y="119" fill="black" font-size="14" font-family="Helvetica">
Mean  
</text>
<text x="512" y="119" fill="black" font-size="14" font-family="Helvetica">
  3.949
</text>
<text x="464" y="151" fill="black" font-size="14" font-family="Helvetica">
RMS   
</text>
<text x="510" y="151" fill="black" font-size="14" font-family="Helvetica">
 0.8561
</text>
<path d="M57,295h 397" fill="none" stroke="black"/>
<text x="418" y="317" fill="black" font-size="11" font-family="Helvetica">
Particle
</text>
<text x="86" y="303" fill="black" font-size="7" font-family="Helvetica">
-
</text>
<text x="82" y="303" fill="black" font-size="7" font-family="Times">
&#0960;
</text>
<text x="142" y="303" fill="black" font-size="7" font-family="Helvetica">
+
</text>
<text x="137" y="303" fill="black" font-size="7" font-family="Times">
&#0956;
</text>
<text x="194" y="303" fill="black" font-size="7" font-family="Helvetica">
e+
</text>
<text x="252" y="303" fill="black" font-size="7" font-family="Helvetica">
e-
</text>
<text x="312" y="303" fill="black" font-size="7" font-family="Helvetica">
-
</text>
<text x="308" y="303" fill="black" font-size="7" font-family="Times">
&#0956;
</text>
<text x="368" y="303" fill="black" font-size="7" font-family="Helvetica">
+
</text>
<text x="364" y="303" fill="black" font-size="7" font-family="Times">
&#0960;
</text>
<text x="423" y="303" fill="black" font-size="7" font-family="Helvetica">
p
</text>
<path d="M85,288v 7" fill="none" stroke="black"/>
<path d="M142,288v 7" fill="none" stroke="black"/>
<path d="M198,288v 7" fill="none" stroke="black"/>
<path d="M255,288v 7" fill="none" stroke="black"/>
<path d="M312,288v 7" fill="none" stroke="black"/>
<path d="M369,288v 7" fill="none" stroke="black"/>
<path d="M425,288v 7" fill="none" stroke="black"/>
<path d="M85,288v 7" fill="none" stroke="black"/>
<path d="M425,288v 7" fill="none" stroke="black"/>
<path d="M57,295v -262" fill="none" stroke="black"/>
<g transform="rotate(-90,29,61)">
<text x="29" y="61" fill="black" font-size="11" font-family="Helvetica">
Count
</text>
</g>
<path d="M70,295h -13" fill="none" stroke="black"/>
<path d="M63,287h -6" fill="none" stroke="black"/>
<path d="M63,278h -6" fill="none" stroke="black"/>
<path d="M63,269h -6" fill="none" stroke="black"/>
<path d="M70,260h -13" fill="none" stroke="black"/>
<path d="M63,252h -6" fill="none" stroke="black"/>
<path d="M63,243h -6" fill="none" stroke="black"/>
<path d="M63,234h -6" fill="none" stroke="black"/>
<path d="M70,226h -13" fill="none" stroke="black"/>
<path d="M63,217h -6" fill="none" stroke="black"/>
<path d="M63,208h -6" fill="none" stroke="black"/>
<path d="M63,200h -6" fill="none" stroke="black"/>
<path d="M70,191h -13" fill="none" stroke="black"/>
<path d="M63,182h -6" fill="none" stroke="black"/>
<path d="M63,174h -6" fill="none" stroke="black"/>
<path d="M63,165h -6" fill="none" stroke="black"/>
<path d="M70,156h -13" fill="none" stroke="black"/>
<path d="M63,148h -6" fill="none" stroke="black"/>
<path d="M63,139h -6" fill="none" stroke="black"/>
<path d="M63,130h -6" fill="none" stroke="black"/>
<path d="M70,122h -13" fill="none" stroke="black"/>
<path d="M63,113h -6" fill="none" stroke="black"/>
<path d="M63,104h -6" fill="none" stroke="black"/>
<path d="M63,96h -6" fill="none" stroke="black"/>
<path d="M70,87h -13" fill="none" stroke="black"/>
<path d="M63,78h -6" fill="none" stroke="black"/>
<path d="M63,70h -6" fill="none" stroke="black"/>
<path d="M63,61h -6" fill="none" stroke="black"/>
<path d="M70,52h -13" fill="none" stroke="black"/>
<path d="M70,52h -13" fill="none" stroke="black"/>
<path d="M63,43h -6" fill="none" stroke="black"/>
<path d="M63,35h -6" fill="none" stroke="black"/>
<text x="48" y="299" fill="black" font-size="11" font-family="Helvetica">
0
</text>
<text x="36" y="264" fill="black" font-size="11" font-family="Helvetica">
200
</text>
<text x="36" y="229" fill="black" font-size="11" font-family="Helvetica">
400
</text>
<text x="36" y="195" fill="black" font-size="11" font-family="Helvetica">
600
</text>
<text x="36" y="160" fill="black" font-size="11" font-family="Helvetica">
800
</text>
<text x="30" y="125" fill="black" font-size="11" font-family="Helvetica">
1000
</text>
<text x="30" y="90" fill="black" font-size="11" font-family="Helvetica">
1200
</text>
<text x="30" y="56" fill="black" font-size="11" font-family="Helvetica">
1400
</text>
<text x="74" y="26" fill="black" font-size="7" font-family="Helvetica">
3
</text>
<text x="63" y="31" fill="black" font-size="11" font-family="Helvetica">
10
</text>
<text x="57" y="31" fill="black" font-size="11" font-family="Times">
&#0215;
</text>
<rect x="459" y="33" width="102" height="129" fill="white"/>
<path d="M459,162h 102" fill="none" stroke="black"/>
<path d="M561,162v -129" fill="none" stroke="black"/>
<path d="M561,33h -102" fill="none" stroke="black"/>
<path d="M459,33v 129" fill="none" stroke="black"/>
<text x="461" y="52" fill="black" font-size="8" font-family="Helvetica">
Particle counts from G4BL
</text>
<path d="M459,65h 102" fill="none" stroke="black"/>
<text x="464" y="85" fill="black" font-size="8" font-family="Helvetica">
Mean  
</text>
<text x="516" y="85" fill="black" font-size="8" font-family="Helvetica">
 0.0006273
</text>
<text x="512" y="85" fill="black" font-size="8" font-family="Times">
&#0177;
</text>
<text x="486" y="85" fill="black" font-size="8" font-family="Helvetica">
  3.949 
</text>
<text x="464" y="117" fill="black" font-size="8" font-family="Helvetica">
RMS   
</text>
<text x="516" y="117" fill="black" font-size="8" font-family="Helvetica">
 0.0004436
</text>
<text x="512" y="117" fill="black" font-size="8" font-family="Times">
&#0177;
</text>
<text x="485" y="117" fill="black" font-size="8" font-family="Helvetica">
 0.8561 
</text>
<text x="464" y="148" fill="black" font-size="8" font-family="Helvetica">
Integral 
</text>
<text x="516" y="149" fill="black" font-size="8" font-family="Helvetica">
 1.863e+06
</text>
<path d="M57,295h 56v -13h 57v -15h 57v -82h 56v 109h 57v -7h 57v 2h 57" fill="none" stroke="black" stroke-width="2"/>
<rect x="459" y="166" width="102" height="129" fill="white"/>
<path d="M459,295h 102" fill="none" stroke="black"/>
<path d="M561,295v -129" fill="none" stroke="black"/>
<path d="M561,166h -102" fill="none" stroke="black"/>
<path d="M459,166v 129" fill="none" stroke="black"/>
<text x="462" y="184" fill="black" font-size="8" font-family="Helvetica">
Particle counts pre-degrader
</text>
<path d="M459,198h 102" fill="none" stroke="black"/>
<text x="464" y="219" fill="black" font-size="13" font-family="Helvetica">
Entries 
</text>
<text x="509" y="219" fill="black" font-size="13" font-family="Helvetica">
 956964
</text>
<text x="464" y="251" fill="black" font-size="13" font-family="Helvetica">
Mean  
</text>
<text x="516" y="251" fill="black" font-size="13" font-family="Helvetica">
  3.874
</text>
<text x="464" y="284" fill="black" font-size="13" font-family="Helvetica">
RMS   
</text>
<text x="518" y="284" fill="black" font-size="13" font-family="Helvetica">
  1.001
</text>
<rect x="459" y="166" width="102" height="129" fill="white"/>
<path d="M459,295h 102" fill="none" stroke="black"/>
<path d="M561,295v -129" fill="none" stroke="black"/>
<path d="M561,166h -102" fill="none" stroke="black"/>
<path d="M459,166v 129" fill="none" stroke="black"/>
<text x="462" y="184" fill="black" font-size="8" font-family="Helvetica">
Particle counts pre-degrader
</text>
<path d="M459,198h 102" fill="none" stroke="black"/>
<text x="464" y="217" fill="black" font-size="8" font-family="Helvetica">
Mean  
</text>
<text x="521" y="217" fill="black" font-size="8" font-family="Helvetica">
 0.001023
</text>
<text x="516" y="217" fill="black" font-size="8" font-family="Times">
&#0177;
</text>
<text x="490" y="217" fill="black" font-size="8" font-family="Helvetica">
  3.874 
</text>
<text x="464" y="250" fill="black" font-size="8" font-family="Helvetica">
RMS   
</text>
<text x="516" y="250" fill="black" font-size="8" font-family="Helvetica">
 0.0007233
</text>
<text x="512" y="250" fill="black" font-size="8" font-family="Times">
&#0177;
</text>
<text x="487" y="250" fill="black" font-size="8" font-family="Helvetica">
  1.001 
</text>
<text x="464" y="281" fill="black" font-size="8" font-family="Helvetica">
Integral 
</text>
<text x="521" y="282" fill="black" font-size="8" font-family="Helvetica">
 9.57e+05
</text>
<text x="258" y="16" fill="black" font-size="15" font-family="Helvetica">
PID counts at beampipe
</text>
<rect x="340" y="33" width="114" height="26" fill="white"/>
<path d="M340,59h 114" fill="none" stroke="black"/>
<path d="M454,59v -26" fill="none" stroke="black"/>
<path d="M454,33h -114" fill="none" stroke="black"/>
<path d="M340,33v 26" fill="none" stroke="black"/>
<text x="368" y="41" fill="black" font-size="6" font-family="Helvetica" font-weight="bold">
Particle counts pre-degrader
</text>
<path d="M344,44h 20v -9h -20z" fill="white"/>
<path d="M344,40h 20" fill="none" stroke="black" stroke-width="2"/>
<g stroke="black" stroke-width="2" fill="none">
<line x1="353" y1="40" x2="354" y2="40"/>
</g>
<text x="368" y="55" fill="black" font-size="6" font-family="Helvetica" font-weight="bold">
Particle counts from G4BL
</text>
<path d="M344,57h 20v -9h -20z" fill="white"/>
<path d="M344,53h 20" fill="none" stroke="#ff0000" stroke-width="2"/>
<g stroke="black" stroke-width="2" fill="none">
<line x1="353" y1="53" x2="354" y2="53"/>
</g></svg>
