<?xml version="1.0" standalone="no"?>
<svg width="567" height="328" viewBox="0 0 567 328" xmlns="http://www.w3.org/2000/svg">
<title>
images/stopped_muon_momentum.svg
</title>
<desc>
Creator: ROOT Version 5.32/00
CreationDate: Thu Oct  4 17:50:23 2012</desc>
<defs>
</defs>
<rect x="0" y="0" width="567" height="328" fill="white"/>
<rect x="57" y="33" width="397" height="262" fill="white"/>
<rect x="57" y="33" width="397" height="262" fill="none" stroke="black"/>
<rect x="57" y="33" width="397" height="262" fill="white"/>
<rect x="57" y="33" width="397" height="262" fill="none" stroke="black"/>
<path d="M57,295h 95v -2h 8v -129h 8v -119h 8v 167h 8v 59h 8v -3h 8v 7h 7v 9h 8v -10h 8v 14h 8v -4h 8v -3h 8v 6h 8v 4h 8v -1h 8v 3h 8v -2h 8v 2h 8v 2h 8v -2h 8v 2h 8v -3h 8v 2h 15v 1h 8v -1h 8v 1h 96" fill="none" stroke="#00ff00" stroke-width="2"/>
<rect x="459" y="121" width="102" height="41" fill="white"/>
<path d="M459,162h 102" fill="none" stroke="black"/>
<path d="M561,162v -41" fill="none" stroke="black"/>
<path d="M561,121h -102" fill="none" stroke="black"/>
<path d="M459,121v 41" fill="none" stroke="black"/>
<text x="488" y="126" fill="black" font-size="6" font-family="Helvetica">
Aluminium_5mm
</text>
<path d="M459,128h 102" fill="none" stroke="black"/>
<text x="464" y="134" fill="black" font-size="6" font-family="Helvetica">
Mean  
</text>
<text x="537" y="134" fill="black" font-size="6" font-family="Helvetica">
 0.5331
</text>
<text x="533" y="134" fill="black" font-size="6" font-family="Times">
&#0177;
</text>
<text x="513" y="134" fill="black" font-size="6" font-family="Helvetica">
  65.28 
</text>
<text x="464" y="141" fill="black" font-size="6" font-family="Helvetica">
RMS   
</text>
<text x="536" y="141" fill="black" font-size="6" font-family="Helvetica">
 0.3769
</text>
<text x="532" y="141" fill="black" font-size="6" font-family="Times">
&#0177;
</text>
<text x="513" y="141" fill="black" font-size="6" font-family="Helvetica">
  16.39 
</text>
<text x="464" y="147" fill="black" font-size="6" font-family="Helvetica">
Underflow 
</text>
<text x="543" y="147" fill="black" font-size="6" font-family="Helvetica">
      0
</text>
<text x="464" y="154" fill="black" font-size="6" font-family="Helvetica">
Overflow  
</text>
<text x="543" y="154" fill="black" font-size="6" font-family="Helvetica">
      0
</text>
<text x="464" y="161" fill="black" font-size="6" font-family="Helvetica">
Integral 
</text>
<text x="539" y="161" fill="black" font-size="6" font-family="Helvetica">
    945
</text>
<path d="M57,295h 397" fill="none" stroke="black"/>
<text x="359" y="317" fill="black" font-size="11" font-family="Helvetica">
Momentum (MeV/c)
</text>
<path d="M57,288v 7" fill="none" stroke="black"/>
<path d="M67,292v 3" fill="none" stroke="black"/>
<path d="M77,292v 3" fill="none" stroke="black"/>
<path d="M86,292v 3" fill="none" stroke="black"/>
<path d="M96,288v 7" fill="none" stroke="black"/>
<path d="M106,292v 3" fill="none" stroke="black"/>
<path d="M116,292v 3" fill="none" stroke="black"/>
<path d="M126,292v 3" fill="none" stroke="black"/>
<path d="M136,288v 7" fill="none" stroke="black"/>
<path d="M146,292v 3" fill="none" stroke="black"/>
<path d="M156,292v 3" fill="none" stroke="black"/>
<path d="M166,292v 3" fill="none" stroke="black"/>
<path d="M176,288v 7" fill="none" stroke="black"/>
<path d="M186,292v 3" fill="none" stroke="black"/>
<path d="M196,292v 3" fill="none" stroke="black"/>
<path d="M206,292v 3" fill="none" stroke="black"/>
<path d="M215,288v 7" fill="none" stroke="black"/>
<path d="M225,292v 3" fill="none" stroke="black"/>
<path d="M235,292v 3" fill="none" stroke="black"/>
<path d="M245,292v 3" fill="none" stroke="black"/>
<path d="M255,288v 7" fill="none" stroke="black"/>
<path d="M265,292v 3" fill="none" stroke="black"/>
<path d="M275,292v 3" fill="none" stroke="black"/>
<path d="M285,292v 3" fill="none" stroke="black"/>
<path d="M295,288v 7" fill="none" stroke="black"/>
<path d="M305,292v 3" fill="none" stroke="black"/>
<path d="M315,292v 3" fill="none" stroke="black"/>
<path d="M325,292v 3" fill="none" stroke="black"/>
<path d="M334,288v 7" fill="none" stroke="black"/>
<path d="M344,292v 3" fill="none" stroke="black"/>
<path d="M354,292v 3" fill="none" stroke="black"/>
<path d="M364,292v 3" fill="none" stroke="black"/>
<path d="M374,288v 7" fill="none" stroke="black"/>
<path d="M384,292v 3" fill="none" stroke="black"/>
<path d="M394,292v 3" fill="none" stroke="black"/>
<path d="M404,292v 3" fill="none" stroke="black"/>
<path d="M414,288v 7" fill="none" stroke="black"/>
<path d="M424,292v 3" fill="none" stroke="black"/>
<path d="M434,292v 3" fill="none" stroke="black"/>
<path d="M444,292v 3" fill="none" stroke="black"/>
<path d="M454,288v 7" fill="none" stroke="black"/>
<text x="54" y="306" fill="black" font-size="11" font-family="Helvetica">
0
</text>
<text x="90" y="306" fill="black" font-size="11" font-family="Helvetica">
20
</text>
<text x="130" y="306" fill="black" font-size="11" font-family="Helvetica">
40
</text>
<text x="169" y="306" fill="black" font-size="11" font-family="Helvetica">
60
</text>
<text x="209" y="306" fill="black" font-size="11" font-family="Helvetica">
80
</text>
<text x="246" y="306" fill="black" font-size="11" font-family="Helvetica">
100
</text>
<text x="286" y="306" fill="black" font-size="11" font-family="Helvetica">
120
</text>
<text x="325" y="306" fill="black" font-size="11" font-family="Helvetica">
140
</text>
<text x="365" y="306" fill="black" font-size="11" font-family="Helvetica">
160
</text>
<text x="405" y="306" fill="black" font-size="11" font-family="Helvetica">
180
</text>
<text x="445" y="306" fill="black" font-size="11" font-family="Helvetica">
200
</text>
<path d="M57,295v -262" fill="none" stroke="black"/>
<g transform="rotate(-90,29,61)">
<text x="29" y="61" fill="black" font-size="11" font-family="Helvetica">
Count
</text>
</g>
<path d="M70,295h -13" fill="none" stroke="black"/>
<path d="M63,288h -6" fill="none" stroke="black"/>
<path d="M63,282h -6" fill="none" stroke="black"/>
<path d="M63,275h -6" fill="none" stroke="black"/>
<path d="M63,268h -6" fill="none" stroke="black"/>
<path d="M70,261h -13" fill="none" stroke="black"/>
<path d="M63,254h -6" fill="none" stroke="black"/>
<path d="M63,248h -6" fill="none" stroke="black"/>
<path d="M63,241h -6" fill="none" stroke="black"/>
<path d="M63,234h -6" fill="none" stroke="black"/>
<path d="M70,227h -13" fill="none" stroke="black"/>
<path d="M63,221h -6" fill="none" stroke="black"/>
<path d="M63,214h -6" fill="none" stroke="black"/>
<path d="M63,207h -6" fill="none" stroke="black"/>
<path d="M63,200h -6" fill="none" stroke="black"/>
<path d="M70,193h -13" fill="none" stroke="black"/>
<path d="M63,187h -6" fill="none" stroke="black"/>
<path d="M63,180h -6" fill="none" stroke="black"/>
<path d="M63,173h -6" fill="none" stroke="black"/>
<path d="M63,166h -6" fill="none" stroke="black"/>
<path d="M70,159h -13" fill="none" stroke="black"/>
<path d="M63,153h -6" fill="none" stroke="black"/>
<path d="M63,146h -6" fill="none" stroke="black"/>
<path d="M63,139h -6" fill="none" stroke="black"/>
<path d="M63,132h -6" fill="none" stroke="black"/>
<path d="M70,126h -13" fill="none" stroke="black"/>
<path d="M63,119h -6" fill="none" stroke="black"/>
<path d="M63,112h -6" fill="none" stroke="black"/>
<path d="M63,105h -6" fill="none" stroke="black"/>
<path d="M63,98h -6" fill="none" stroke="black"/>
<path d="M70,92h -13" fill="none" stroke="black"/>
<path d="M63,85h -6" fill="none" stroke="black"/>
<path d="M63,78h -6" fill="none" stroke="black"/>
<path d="M63,71h -6" fill="none" stroke="black"/>
<path d="M63,64h -6" fill="none" stroke="black"/>
<path d="M70,58h -13" fill="none" stroke="black"/>
<path d="M70,58h -13" fill="none" stroke="black"/>
<path d="M63,51h -6" fill="none" stroke="black"/>
<path d="M63,44h -6" fill="none" stroke="black"/>
<path d="M63,37h -6" fill="none" stroke="black"/>
<text x="48" y="299" fill="black" font-size="11" font-family="Helvetica">
0
</text>
<text x="42" y="265" fill="black" font-size="11" font-family="Helvetica">
50
</text>
<text x="36" y="231" fill="black" font-size="11" font-family="Helvetica">
100
</text>
<text x="36" y="197" fill="black" font-size="11" font-family="Helvetica">
150
</text>
<text x="36" y="163" fill="black" font-size="11" font-family="Helvetica">
200
</text>
<text x="36" y="129" fill="black" font-size="11" font-family="Helvetica">
250
</text>
<text x="36" y="95" fill="black" font-size="11" font-family="Helvetica">
300
</text>
<text x="36" y="62" fill="black" font-size="11" font-family="Helvetica">
350
</text>
<rect x="459" y="121" width="102" height="41" fill="white"/>
<path d="M459,162h 102" fill="none" stroke="black"/>
<path d="M561,162v -41" fill="none" stroke="black"/>
<path d="M561,121h -102" fill="none" stroke="black"/>
<path d="M459,121v 41" fill="none" stroke="black"/>
<text x="488" y="126" fill="black" font-size="6" font-family="Helvetica">
Aluminium_5mm
</text>
<path d="M459,128h 102" fill="none" stroke="black"/>
<text x="464" y="134" fill="black" font-size="6" font-family="Helvetica">
Mean  
</text>
<text x="537" y="134" fill="black" font-size="6" font-family="Helvetica">
 0.5331
</text>
<text x="533" y="134" fill="black" font-size="6" font-family="Times">
&#0177;
</text>
<text x="513" y="134" fill="black" font-size="6" font-family="Helvetica">
  65.28 
</text>
<text x="464" y="141" fill="black" font-size="6" font-family="Helvetica">
RMS   
</text>
<text x="536" y="141" fill="black" font-size="6" font-family="Helvetica">
 0.3769
</text>
<text x="532" y="141" fill="black" font-size="6" font-family="Times">
&#0177;
</text>
<text x="513" y="141" fill="black" font-size="6" font-family="Helvetica">
  16.39 
</text>
<text x="464" y="147" fill="black" font-size="6" font-family="Helvetica">
Underflow 
</text>
<text x="543" y="147" fill="black" font-size="6" font-family="Helvetica">
      0
</text>
<text x="464" y="154" fill="black" font-size="6" font-family="Helvetica">
Overflow  
</text>
<text x="543" y="154" fill="black" font-size="6" font-family="Helvetica">
      0
</text>
<text x="464" y="161" fill="black" font-size="6" font-family="Helvetica">
Integral 
</text>
<text x="539" y="161" fill="black" font-size="6" font-family="Helvetica">
    945
</text>
<path d="M57,295h 16v -20h 8v -16h 7v -67h 8v -36h 8v -77h 8v 32h 8v 8h 8v -2h 8v 113h 8v 10h 8v 29h 8v 5h 8v -7h 8v 7h 8v -5h 8v 7h 8v -2h 7v 9h 16v -3h 8v 5h 8v -5h 8v 8h 8v -3h 8v 7h 8v 1h 8v -3h 8v 4h 8v -5h 8v 2h 8v 2h 8v 1h 8v -2h 7v 2h 16v 1h
 104" fill="none" stroke="black" stroke-width="2"/>
<rect x="459" y="254" width="102" height="41" fill="white"/>
<path d="M459,295h 102" fill="none" stroke="black"/>
<path d="M561,295v -41" fill="none" stroke="black"/>
<path d="M561,254h -102" fill="none" stroke="black"/>
<path d="M459,254v 41" fill="none" stroke="black"/>
<text x="498" y="260" fill="black" font-size="6" font-family="Helvetica">
Air_5mm
</text>
<path d="M459,261h 102" fill="none" stroke="black"/>
<text x="464" y="267" fill="black" font-size="6" font-family="Helvetica">
Mean  
</text>
<text x="536" y="267" fill="black" font-size="6" font-family="Helvetica">
 0.4813
</text>
<text x="532" y="267" fill="black" font-size="6" font-family="Times">
&#0177;
</text>
<text x="513" y="267" fill="black" font-size="6" font-family="Helvetica">
  38.62 
</text>
<text x="464" y="273" fill="black" font-size="6" font-family="Helvetica">
RMS   
</text>
<text x="536" y="273" fill="black" font-size="6" font-family="Helvetica">
 0.3403
</text>
<text x="532" y="273" fill="black" font-size="6" font-family="Times">
&#0177;
</text>
<text x="513" y="273" fill="black" font-size="6" font-family="Helvetica">
  22.27 
</text>
<text x="464" y="280" fill="black" font-size="6" font-family="Helvetica">
Underflow 
</text>
<text x="543" y="280" fill="black" font-size="6" font-family="Helvetica">
      0
</text>
<text x="464" y="287" fill="black" font-size="6" font-family="Helvetica">
Overflow  
</text>
<text x="543" y="287" fill="black" font-size="6" font-family="Helvetica">
      0
</text>
<text x="464" y="293" fill="black" font-size="6" font-family="Helvetica">
Integral 
</text>
<text x="538" y="294" fill="black" font-size="6" font-family="Helvetica">
   2142
</text>
<rect x="459" y="254" width="102" height="41" fill="white"/>
<path d="M459,295h 102" fill="none" stroke="black"/>
<path d="M561,295v -41" fill="none" stroke="black"/>
<path d="M561,254h -102" fill="none" stroke="black"/>
<path d="M459,254v 41" fill="none" stroke="black"/>
<text x="498" y="260" fill="black" font-size="6" font-family="Helvetica">
Air_5mm
</text>
<path d="M459,261h 102" fill="none" stroke="black"/>
<text x="464" y="267" fill="black" font-size="6" font-family="Helvetica">
Mean  
</text>
<text x="536" y="267" fill="black" font-size="6" font-family="Helvetica">
 0.4813
</text>
<text x="532" y="267" fill="black" font-size="6" font-family="Times">
&#0177;
</text>
<text x="513" y="267" fill="black" font-size="6" font-family="Helvetica">
  38.62 
</text>
<text x="464" y="273" fill="black" font-size="6" font-family="Helvetica">
RMS   
</text>
<text x="536" y="273" fill="black" font-size="6" font-family="Helvetica">
 0.3403
</text>
<text x="532" y="273" fill="black" font-size="6" font-family="Times">
&#0177;
</text>
<text x="513" y="273" fill="black" font-size="6" font-family="Helvetica">
  22.27 
</text>
<text x="464" y="280" fill="black" font-size="6" font-family="Helvetica">
Underflow 
</text>
<text x="543" y="280" fill="black" font-size="6" font-family="Helvetica">
      0
</text>
<text x="464" y="287" fill="black" font-size="6" font-family="Helvetica">
Overflow  
</text>
<text x="543" y="287" fill="black" font-size="6" font-family="Helvetica">
      0
</text>
<text x="464" y="293" fill="black" font-size="6" font-family="Helvetica">
Integral 
</text>
<text x="538" y="294" fill="black" font-size="6" font-family="Helvetica">
   2142
</text>
<text x="135" y="16" fill="black" font-size="15" font-family="Helvetica">
Stopped muon momentum
</text>
<path d="M57,295h 47v -24h 8v -138h 8v 4h 8v -34h 8v 42h 8v 88h 8v 11h 8v 33h 8v 3h 8v -8h 8v 4h 8v 1h 8v -2h 7v 4h 8v 3h 8v 4h 8v 1h 8v 4h 8v -1h 8v -3h 8v 4h 8v 3h 8v -2h 16v 2h 8v -2h 8v 3h 8v -3h 8v 1h 7v 1h 8v 1h 112" fill="none"
 stroke="#ff0000" stroke-width="2"/>
<rect x="459" y="210" width="102" height="41" fill="white"/>
<path d="M459,251h 102" fill="none" stroke="black"/>
<path d="M561,251v -41" fill="none" stroke="black"/>
<path d="M561,210h -102" fill="none" stroke="black"/>
<path d="M459,210v 41" fill="none" stroke="black"/>
<text x="485" y="215" fill="black" font-size="6" font-family="Helvetica">
Aluminium_0.5mm
</text>
<path d="M459,217h 102" fill="none" stroke="black"/>
<text x="464" y="222" fill="black" font-size="6" font-family="Helvetica">
Mean  
</text>
<text x="536" y="222" fill="black" font-size="6" font-family="Helvetica">
 0.5368
</text>
<text x="532" y="222" fill="black" font-size="6" font-family="Times">
&#0177;
</text>
<text x="513" y="222" fill="black" font-size="6" font-family="Helvetica">
  46.03 
</text>
<text x="464" y="229" fill="black" font-size="6" font-family="Helvetica">
RMS   
</text>
<text x="536" y="229" fill="black" font-size="6" font-family="Helvetica">
 0.3796
</text>
<text x="532" y="229" fill="black" font-size="6" font-family="Times">
&#0177;
</text>
<text x="513" y="229" fill="black" font-size="6" font-family="Helvetica">
  20.69 
</text>
<text x="464" y="236" fill="black" font-size="6" font-family="Helvetica">
Underflow 
</text>
<text x="543" y="236" fill="black" font-size="6" font-family="Helvetica">
      0
</text>
<text x="464" y="243" fill="black" font-size="6" font-family="Helvetica">
Overflow  
</text>
<text x="543" y="243" fill="black" font-size="6" font-family="Helvetica">
      0
</text>
<text x="464" y="249" fill="black" font-size="6" font-family="Helvetica">
Integral 
</text>
<text x="538" y="250" fill="black" font-size="6" font-family="Helvetica">
   1485
</text>
<rect x="459" y="210" width="102" height="41" fill="white"/>
<path d="M459,251h 102" fill="none" stroke="black"/>
<path d="M561,251v -41" fill="none" stroke="black"/>
<path d="M561,210h -102" fill="none" stroke="black"/>
<path d="M459,210v 41" fill="none" stroke="black"/>
<text x="485" y="215" fill="black" font-size="6" font-family="Helvetica">
Aluminium_0.5mm
</text>
<path d="M459,217h 102" fill="none" stroke="black"/>
<text x="464" y="222" fill="black" font-size="6" font-family="Helvetica">
Mean  
</text>
<text x="536" y="222" fill="black" font-size="6" font-family="Helvetica">
 0.5368
</text>
<text x="532" y="222" fill="black" font-size="6" font-family="Times">
&#0177;
</text>
<text x="513" y="222" fill="black" font-size="6" font-family="Helvetica">
  46.03 
</text>
<text x="464" y="229" fill="black" font-size="6" font-family="Helvetica">
RMS   
</text>
<text x="536" y="229" fill="black" font-size="6" font-family="Helvetica">
 0.3796
</text>
<text x="532" y="229" fill="black" font-size="6" font-family="Times">
&#0177;
</text>
<text x="513" y="229" fill="black" font-size="6" font-family="Helvetica">
  20.69 
</text>
<text x="464" y="236" fill="black" font-size="6" font-family="Helvetica">
Underflow 
</text>
<text x="543" y="236" fill="black" font-size="6" font-family="Helvetica">
      0
</text>
<text x="464" y="243" fill="black" font-size="6" font-family="Helvetica">
Overflow  
</text>
<text x="543" y="243" fill="black" font-size="6" font-family="Helvetica">
      0
</text>
<text x="464" y="249" fill="black" font-size="6" font-family="Helvetica">
Integral 
</text>
<text x="538" y="250" fill="black" font-size="6" font-family="Helvetica">
   1485
</text>
<path d="M57,295h 63v -93h 8v -106h 8v -16h 8v 98h 8v 52h 8v 25h 8v 17h 8v 1h 8v -4h 8v 1h 8v 4h 7v 10h 8v -10h 8v 7h 8v -2h 8v 4h 8v 3h 8v 7h 8v -5h 8v 4h 8v 2h 16v -4h 8v 3h 24v 2h 23v -1h 8v -1h 8v 2h 88" fill="none" stroke="#0000ff"
 stroke-width="2"/>
<rect x="459" y="166" width="102" height="41" fill="white"/>
<path d="M459,207h 102" fill="none" stroke="black"/>
<path d="M561,207v -41" fill="none" stroke="black"/>
<path d="M561,166h -102" fill="none" stroke="black"/>
<path d="M459,166v 41" fill="none" stroke="black"/>
<text x="488" y="171" fill="black" font-size="6" font-family="Helvetica">
Aluminium_1mm
</text>
<path d="M459,173h 102" fill="none" stroke="black"/>
<text x="464" y="178" fill="black" font-size="6" font-family="Helvetica">
Mean  
</text>
<text x="536" y="178" fill="black" font-size="6" font-family="Helvetica">
 0.5324
</text>
<text x="532" y="178" fill="black" font-size="6" font-family="Times">
&#0177;
</text>
<text x="513" y="178" fill="black" font-size="6" font-family="Helvetica">
  51.49 
</text>
<text x="464" y="185" fill="black" font-size="6" font-family="Helvetica">
RMS   
</text>
<text x="536" y="185" fill="black" font-size="6" font-family="Helvetica">
 0.3765
</text>
<text x="532" y="185" fill="black" font-size="6" font-family="Times">
&#0177;
</text>
<text x="513" y="185" fill="black" font-size="6" font-family="Helvetica">
  20.07 
</text>
<text x="464" y="192" fill="black" font-size="6" font-family="Helvetica">
Underflow 
</text>
<text x="543" y="192" fill="black" font-size="6" font-family="Helvetica">
      0
</text>
<text x="464" y="199" fill="black" font-size="6" font-family="Helvetica">
Overflow  
</text>
<text x="543" y="199" fill="black" font-size="6" font-family="Helvetica">
      0
</text>
<text x="464" y="205" fill="black" font-size="6" font-family="Helvetica">
Integral 
</text>
<text x="538" y="206" fill="black" font-size="6" font-family="Helvetica">
   1421
</text>
<rect x="459" y="166" width="102" height="41" fill="white"/>
<path d="M459,207h 102" fill="none" stroke="black"/>
<path d="M561,207v -41" fill="none" stroke="black"/>
<path d="M561,166h -102" fill="none" stroke="black"/>
<path d="M459,166v 41" fill="none" stroke="black"/>
<text x="488" y="171" fill="black" font-size="6" font-family="Helvetica">
Aluminium_1mm
</text>
<path d="M459,173h 102" fill="none" stroke="black"/>
<text x="464" y="178" fill="black" font-size="6" font-family="Helvetica">
Mean  
</text>
<text x="536" y="178" fill="black" font-size="6" font-family="Helvetica">
 0.5324
</text>
<text x="532" y="178" fill="black" font-size="6" font-family="Times">
&#0177;
</text>
<text x="513" y="178" fill="black" font-size="6" font-family="Helvetica">
  51.49 
</text>
<text x="464" y="185" fill="black" font-size="6" font-family="Helvetica">
RMS   
</text>
<text x="536" y="185" fill="black" font-size="6" font-family="Helvetica">
 0.3765
</text>
<text x="532" y="185" fill="black" font-size="6" font-family="Times">
&#0177;
</text>
<text x="513" y="185" fill="black" font-size="6" font-family="Helvetica">
  20.07 
</text>
<text x="464" y="192" fill="black" font-size="6" font-family="Helvetica">
Underflow 
</text>
<text x="543" y="192" fill="black" font-size="6" font-family="Helvetica">
      0
</text>
<text x="464" y="199" fill="black" font-size="6" font-family="Helvetica">
Overflow  
</text>
<text x="543" y="199" fill="black" font-size="6" font-family="Helvetica">
      0
</text>
<text x="464" y="205" fill="black" font-size="6" font-family="Helvetica">
Integral 
</text>
<text x="538" y="206" fill="black" font-size="6" font-family="Helvetica">
   1421
</text>
<path d="M57,295h 111v -1h 8v -139h 8v -45h 8v 136h 8v 33h 7v -8h 8v 13h 8v -2h 8v -2h 8v 10h 8v -1h 8v 3h 8v -2h 8v 3h 8v -4h 8v 2h 8v 3h 8v -1h 24v 1h 15v 1h 24v -1h 8v 1h 80" fill="none" stroke="#ff00ff" stroke-width="2"/>
<rect x="459" y="77" width="102" height="41" fill="white"/>
<path d="M459,118h 102" fill="none" stroke="black"/>
<path d="M561,118v -41" fill="none" stroke="black"/>
<path d="M561,77h -102" fill="none" stroke="black"/>
<path d="M459,77v 41" fill="none" stroke="black"/>
<text x="488" y="83" fill="black" font-size="6" font-family="Helvetica">
Aluminium_8mm
</text>
<path d="M459,84h 102" fill="none" stroke="black"/>
<text x="464" y="90" fill="black" font-size="6" font-family="Helvetica">
Mean  
</text>
<text x="536" y="90" fill="black" font-size="6" font-family="Helvetica">
 0.5984
</text>
<text x="532" y="90" fill="black" font-size="6" font-family="Times">
&#0177;
</text>
<text x="513" y="90" fill="black" font-size="6" font-family="Helvetica">
  72.29 
</text>
<text x="464" y="96" fill="black" font-size="6" font-family="Helvetica">
RMS   
</text>
<text x="537" y="96" fill="black" font-size="6" font-family="Helvetica">
 0.4231
</text>
<text x="533" y="96" fill="black" font-size="6" font-family="Times">
&#0177;
</text>
<text x="513" y="96" fill="black" font-size="6" font-family="Helvetica">
  16.32 
</text>
<text x="464" y="103" fill="black" font-size="6" font-family="Helvetica">
Underflow 
</text>
<text x="543" y="103" fill="black" font-size="6" font-family="Helvetica">
      0
</text>
<text x="464" y="110" fill="black" font-size="6" font-family="Helvetica">
Overflow  
</text>
<text x="543" y="110" fill="black" font-size="6" font-family="Helvetica">
      0
</text>
<text x="464" y="116" fill="black" font-size="6" font-family="Helvetica">
Integral 
</text>
<text x="540" y="117" fill="black" font-size="6" font-family="Helvetica">
    744
</text>
<rect x="459" y="77" width="102" height="41" fill="white"/>
<path d="M459,118h 102" fill="none" stroke="black"/>
<path d="M561,118v -41" fill="none" stroke="black"/>
<path d="M561,77h -102" fill="none" stroke="black"/>
<path d="M459,77v 41" fill="none" stroke="black"/>
<text x="488" y="83" fill="black" font-size="6" font-family="Helvetica">
Aluminium_8mm
</text>
<path d="M459,84h 102" fill="none" stroke="black"/>
<text x="464" y="90" fill="black" font-size="6" font-family="Helvetica">
Mean  
</text>
<text x="536" y="90" fill="black" font-size="6" font-family="Helvetica">
 0.5984
</text>
<text x="532" y="90" fill="black" font-size="6" font-family="Times">
&#0177;
</text>
<text x="513" y="90" fill="black" font-size="6" font-family="Helvetica">
  72.29 
</text>
<text x="464" y="96" fill="black" font-size="6" font-family="Helvetica">
RMS   
</text>
<text x="537" y="96" fill="black" font-size="6" font-family="Helvetica">
 0.4231
</text>
<text x="533" y="96" fill="black" font-size="6" font-family="Times">
&#0177;
</text>
<text x="513" y="96" fill="black" font-size="6" font-family="Helvetica">
  16.32 
</text>
<text x="464" y="103" fill="black" font-size="6" font-family="Helvetica">
Underflow 
</text>
<text x="543" y="103" fill="black" font-size="6" font-family="Helvetica">
      0
</text>
<text x="464" y="110" fill="black" font-size="6" font-family="Helvetica">
Overflow  
</text>
<text x="543" y="110" fill="black" font-size="6" font-family="Helvetica">
      0
</text>
<text x="464" y="116" fill="black" font-size="6" font-family="Helvetica">
Integral 
</text>
<text x="540" y="117" fill="black" font-size="6" font-family="Helvetica">
    744
</text>
<path d="M57,295h 135v -98h 8v -24h 7v 99h 8v 12h 8v -5h 8v 8h 8v 3h 16v 3h 8v -5h 8v 2h 8v 3h 16v -3h 8v 5h 16v -4h 8v 2h 7v 2h 120" fill="none" stroke="#00ffff" stroke-width="2"/>
<rect x="459" y="33" width="102" height="41" fill="white"/>
<path d="M459,74h 102" fill="none" stroke="black"/>
<path d="M561,74v -41" fill="none" stroke="black"/>
<path d="M561,33h -102" fill="none" stroke="black"/>
<path d="M459,33v 41" fill="none" stroke="black"/>
<text x="475" y="40" fill="black" font-size="9" font-family="Helvetica">
Aluminium_12mm
</text>
<path d="M459,43h 102" fill="none" stroke="black"/>
<text x="464" y="51" fill="black" font-size="9" font-family="Helvetica">
Entries 
</text>
<text x="539" y="51" fill="black" font-size="9" font-family="Helvetica">
 478
</text>
<text x="464" y="62" fill="black" font-size="9" font-family="Helvetica">
Mean  
</text>
<text x="529" y="62" fill="black" font-size="9" font-family="Helvetica">
  80.04
</text>
<text x="464" y="72" fill="black" font-size="9" font-family="Helvetica">
RMS   
</text>
<text x="531" y="72" fill="black" font-size="9" font-family="Helvetica">
  16.11
</text>
<rect x="459" y="33" width="102" height="41" fill="white"/>
<path d="M459,74h 102" fill="none" stroke="black"/>
<path d="M561,74v -41" fill="none" stroke="black"/>
<path d="M561,33h -102" fill="none" stroke="black"/>
<path d="M459,33v 41" fill="none" stroke="black"/>
<text x="486" y="38" fill="black" font-size="6" font-family="Helvetica">
Aluminium_12mm
</text>
<path d="M459,40h 102" fill="none" stroke="black"/>
<text x="464" y="45" fill="black" font-size="6" font-family="Helvetica">
Mean  
</text>
<text x="536" y="45" fill="black" font-size="6" font-family="Helvetica">
 0.7367
</text>
<text x="532" y="45" fill="black" font-size="6" font-family="Times">
&#0177;
</text>
<text x="513" y="45" fill="black" font-size="6" font-family="Helvetica">
  80.04 
</text>
<text x="464" y="52" fill="black" font-size="6" font-family="Helvetica">
RMS   
</text>
<text x="538" y="52" fill="black" font-size="6" font-family="Helvetica">
  0.521
</text>
<text x="535" y="52" fill="black" font-size="6" font-family="Times">
&#0177;
</text>
<text x="516" y="52" fill="black" font-size="6" font-family="Helvetica">
  16.11 
</text>
<text x="464" y="59" fill="black" font-size="6" font-family="Helvetica">
Underflow 
</text>
<text x="543" y="59" fill="black" font-size="6" font-family="Helvetica">
      0
</text>
<text x="464" y="66" fill="black" font-size="6" font-family="Helvetica">
Overflow  
</text>
<text x="543" y="66" fill="black" font-size="6" font-family="Helvetica">
      0
</text>
<text x="464" y="72" fill="black" font-size="6" font-family="Helvetica">
Integral 
</text>
<text x="539" y="73" fill="black" font-size="6" font-family="Helvetica">
    478
</text>
<rect x="340" y="33" width="114" height="79" fill="white"/>
<path d="M340,112h 114" fill="none" stroke="black"/>
<path d="M454,112v -79" fill="none" stroke="black"/>
<path d="M454,33h -114" fill="none" stroke="black"/>
<path d="M340,33v 79" fill="none" stroke="black"/>
<text x="368" y="42" fill="black" font-size="8" font-family="Helvetica" font-weight="bold">
Air_5mm
</text>
<path d="M344,44h 20v -9h -20z" fill="white"/>
<path d="M344,40h 20" fill="none" stroke="black" stroke-width="2"/>
<g stroke="black" stroke-width="2" fill="none">
<line x1="353" y1="40" x2="354" y2="40"/>
</g>
<text x="368" y="55" fill="black" font-size="8" font-family="Helvetica" font-weight="bold">
Aluminium_0.5mm
</text>
<path d="M344,57h 20v -9h -20z" fill="white"/>
<path d="M344,53h 20" fill="none" stroke="#ff0000" stroke-width="2"/>
<g stroke="black" stroke-width="2" fill="none">
<line x1="353" y1="53" x2="354" y2="53"/>
</g>
<text x="368" y="68" fill="black" font-size="8" font-family="Helvetica" font-weight="bold">
Aluminium_1mm
</text>
<path d="M344,70h 20v -9h -20z" fill="white"/>
<path d="M344,66h 20" fill="none" stroke="#0000ff" stroke-width="2"/>
<g stroke="black" stroke-width="2" fill="none">
<line x1="353" y1="66" x2="354" y2="66"/>
</g>
<text x="368" y="81" fill="black" font-size="8" font-family="Helvetica" font-weight="bold">
Aluminium_5mm
</text>
<path d="M344,83h 20v -9h -20z" fill="white"/>
<path d="M344,79h 20" fill="none" stroke="#00ff00" stroke-width="2"/>
<g stroke="black" stroke-width="2" fill="none">
<line x1="353" y1="79" x2="354" y2="79"/>
</g>
<text x="368" y="94" fill="black" font-size="8" font-family="Helvetica" font-weight="bold">
Aluminium_8mm
</text>
<path d="M344,97h 20v -10h -20z" fill="white"/>
<path d="M344,92h 20" fill="none" stroke="#ff00ff" stroke-width="2"/>
<g stroke="black" stroke-width="2" fill="none">
<line x1="353" y1="92" x2="354" y2="92"/>
</g>
<text x="368" y="107" fill="black" font-size="8" font-family="Helvetica" font-weight="bold">
Aluminium_12mm
</text>
<path d="M344,110h 20v -9h -20z" fill="white"/>
<path d="M344,105h 20" fill="none" stroke="#00ffff" stroke-width="2"/>
<g stroke="black" stroke-width="2" fill="none">
<line x1="353" y1="105" x2="354" y2="105"/>
</g></svg>
