<?xml version="1.0" standalone="no"?>
<svg width="567" height="328" viewBox="0 0 567 328" xmlns="http://www.w3.org/2000/svg">
<title>
images/stopped_muon_momentum.svg
</title>
<desc>
Creator: ROOT Version 5.32/00
CreationDate: Sun Dec  9 16:37:12 2012</desc>
<defs>
</defs>
<rect x="0" y="0" width="567" height="328" fill="white"/>
<rect x="57" y="33" width="397" height="262" fill="white"/>
<rect x="57" y="33" width="397" height="262" fill="none" stroke="black"/>
<rect x="57" y="33" width="397" height="262" fill="white"/>
<rect x="57" y="33" width="397" height="262" fill="none" stroke="black"/>
<path d="M57,295h 55v -1h 8v -110h 8v -118h 8v -21h 8v 115h 8v 55h 8v 48h 8v 7h 8v -2h 8v 2h 8v 4h 8v 1h 15v 5h 8v -2h 8v 5h 8v 1h 8v 3h 8v 2h 8v 1h 8v 2h 8v -1h 8v 2h 32v 2h 15v -1h 24v 1h 96" fill="none" stroke="#0000ff" stroke-width="2"/>
<rect x="459" y="99" width="102" height="63" fill="white"/>
<path d="M459,162h 102" fill="none" stroke="black"/>
<path d="M561,162v -63" fill="none" stroke="black"/>
<path d="M561,99h -102" fill="none" stroke="black"/>
<path d="M459,99v 63" fill="none" stroke="black"/>
<text x="476" y="107" fill="black" font-size="9" font-family="Helvetica">
Aluminium_1mm
</text>
<path d="M459,110h 102" fill="none" stroke="black"/>
<text x="464" y="118" fill="black" font-size="7" font-family="Helvetica">
Mean  
</text>
<text x="531" y="118" fill="black" font-size="7" font-family="Helvetica">
 0.2066
</text>
<text x="527" y="118" fill="black" font-size="7" font-family="Times">
&#0177;
</text>
<text x="502" y="118" fill="black" font-size="7" font-family="Helvetica">
  50.29 
</text>
<text x="464" y="128" fill="black" font-size="7" font-family="Helvetica">
RMS   
</text>
<text x="532" y="128" fill="black" font-size="7" font-family="Helvetica">
 0.1461
</text>
<text x="528" y="128" fill="black" font-size="7" font-family="Times">
&#0177;
</text>
<text x="503" y="128" fill="black" font-size="7" font-family="Helvetica">
  19.13 
</text>
<text x="464" y="139" fill="black" font-size="7" font-family="Helvetica">
Underflow 
</text>
<text x="539" y="139" fill="black" font-size="7" font-family="Helvetica">
      0
</text>
<text x="464" y="149" fill="black" font-size="7" font-family="Helvetica">
Overflow  
</text>
<text x="539" y="149" fill="black" font-size="7" font-family="Helvetica">
      0
</text>
<text x="464" y="159" fill="black" font-size="7" font-family="Helvetica">
Integral 
</text>
<text x="533" y="160" fill="black" font-size="7" font-family="Helvetica">
   8577
</text>
<path d="M57,295h 397" fill="none" stroke="black"/>
<text x="359" y="317" fill="black" font-size="11" font-family="Helvetica">
Momentum (MeV/c)
</text>
<path d="M57,288v 7" fill="none" stroke="black"/>
<path d="M67,292v 3" fill="none" stroke="black"/>
<path d="M77,292v 3" fill="none" stroke="black"/>
<path d="M86,292v 3" fill="none" stroke="black"/>
<path d="M96,288v 7" fill="none" stroke="black"/>
<path d="M106,292v 3" fill="none" stroke="black"/>
<path d="M116,292v 3" fill="none" stroke="black"/>
<path d="M126,292v 3" fill="none" stroke="black"/>
<path d="M136,288v 7" fill="none" stroke="black"/>
<path d="M146,292v 3" fill="none" stroke="black"/>
<path d="M156,292v 3" fill="none" stroke="black"/>
<path d="M166,292v 3" fill="none" stroke="black"/>
<path d="M176,288v 7" fill="none" stroke="black"/>
<path d="M186,292v 3" fill="none" stroke="black"/>
<path d="M196,292v 3" fill="none" stroke="black"/>
<path d="M206,292v 3" fill="none" stroke="black"/>
<path d="M215,288v 7" fill="none" stroke="black"/>
<path d="M225,292v 3" fill="none" stroke="black"/>
<path d="M235,292v 3" fill="none" stroke="black"/>
<path d="M245,292v 3" fill="none" stroke="black"/>
<path d="M255,288v 7" fill="none" stroke="black"/>
<path d="M265,292v 3" fill="none" stroke="black"/>
<path d="M275,292v 3" fill="none" stroke="black"/>
<path d="M285,292v 3" fill="none" stroke="black"/>
<path d="M295,288v 7" fill="none" stroke="black"/>
<path d="M305,292v 3" fill="none" stroke="black"/>
<path d="M315,292v 3" fill="none" stroke="black"/>
<path d="M325,292v 3" fill="none" stroke="black"/>
<path d="M334,288v 7" fill="none" stroke="black"/>
<path d="M344,292v 3" fill="none" stroke="black"/>
<path d="M354,292v 3" fill="none" stroke="black"/>
<path d="M364,292v 3" fill="none" stroke="black"/>
<path d="M374,288v 7" fill="none" stroke="black"/>
<path d="M384,292v 3" fill="none" stroke="black"/>
<path d="M394,292v 3" fill="none" stroke="black"/>
<path d="M404,292v 3" fill="none" stroke="black"/>
<path d="M414,288v 7" fill="none" stroke="black"/>
<path d="M424,292v 3" fill="none" stroke="black"/>
<path d="M434,292v 3" fill="none" stroke="black"/>
<path d="M444,292v 3" fill="none" stroke="black"/>
<path d="M454,288v 7" fill="none" stroke="black"/>
<text x="54" y="306" fill="black" font-size="11" font-family="Helvetica">
0
</text>
<text x="90" y="306" fill="black" font-size="11" font-family="Helvetica">
20
</text>
<text x="130" y="306" fill="black" font-size="11" font-family="Helvetica">
40
</text>
<text x="169" y="306" fill="black" font-size="11" font-family="Helvetica">
60
</text>
<text x="209" y="306" fill="black" font-size="11" font-family="Helvetica">
80
</text>
<text x="246" y="306" fill="black" font-size="11" font-family="Helvetica">
100
</text>
<text x="286" y="306" fill="black" font-size="11" font-family="Helvetica">
120
</text>
<text x="325" y="306" fill="black" font-size="11" font-family="Helvetica">
140
</text>
<text x="365" y="306" fill="black" font-size="11" font-family="Helvetica">
160
</text>
<text x="405" y="306" fill="black" font-size="11" font-family="Helvetica">
180
</text>
<text x="445" y="306" fill="black" font-size="11" font-family="Helvetica">
200
</text>
<path d="M57,295v -262" fill="none" stroke="black"/>
<g transform="rotate(-90,29,61)">
<text x="29" y="61" fill="black" font-size="11" font-family="Helvetica">
Count
</text>
</g>
<path d="M70,295h -13" fill="none" stroke="black"/>
<path d="M63,289h -6" fill="none" stroke="black"/>
<path d="M63,283h -6" fill="none" stroke="black"/>
<path d="M63,276h -6" fill="none" stroke="black"/>
<path d="M70,270h -13" fill="none" stroke="black"/>
<path d="M63,264h -6" fill="none" stroke="black"/>
<path d="M63,258h -6" fill="none" stroke="black"/>
<path d="M63,251h -6" fill="none" stroke="black"/>
<path d="M70,245h -13" fill="none" stroke="black"/>
<path d="M63,239h -6" fill="none" stroke="black"/>
<path d="M63,232h -6" fill="none" stroke="black"/>
<path d="M63,226h -6" fill="none" stroke="black"/>
<path d="M70,220h -13" fill="none" stroke="black"/>
<path d="M63,214h -6" fill="none" stroke="black"/>
<path d="M63,207h -6" fill="none" stroke="black"/>
<path d="M63,201h -6" fill="none" stroke="black"/>
<path d="M70,195h -13" fill="none" stroke="black"/>
<path d="M63,188h -6" fill="none" stroke="black"/>
<path d="M63,182h -6" fill="none" stroke="black"/>
<path d="M63,176h -6" fill="none" stroke="black"/>
<path d="M70,170h -13" fill="none" stroke="black"/>
<path d="M63,163h -6" fill="none" stroke="black"/>
<path d="M63,157h -6" fill="none" stroke="black"/>
<path d="M63,151h -6" fill="none" stroke="black"/>
<path d="M70,144h -13" fill="none" stroke="black"/>
<path d="M63,138h -6" fill="none" stroke="black"/>
<path d="M63,132h -6" fill="none" stroke="black"/>
<path d="M63,126h -6" fill="none" stroke="black"/>
<path d="M70,119h -13" fill="none" stroke="black"/>
<path d="M63,113h -6" fill="none" stroke="black"/>
<path d="M63,107h -6" fill="none" stroke="black"/>
<path d="M63,100h -6" fill="none" stroke="black"/>
<path d="M70,94h -13" fill="none" stroke="black"/>
<path d="M63,88h -6" fill="none" stroke="black"/>
<path d="M63,82h -6" fill="none" stroke="black"/>
<path d="M63,75h -6" fill="none" stroke="black"/>
<path d="M70,69h -13" fill="none" stroke="black"/>
<path d="M63,63h -6" fill="none" stroke="black"/>
<path d="M63,56h -6" fill="none" stroke="black"/>
<path d="M63,50h -6" fill="none" stroke="black"/>
<path d="M70,44h -13" fill="none" stroke="black"/>
<path d="M70,44h -13" fill="none" stroke="black"/>
<path d="M63,38h -6" fill="none" stroke="black"/>
<text x="48" y="299" fill="black" font-size="11" font-family="Helvetica">
0
</text>
<text x="36" y="274" fill="black" font-size="11" font-family="Helvetica">
200
</text>
<text x="36" y="249" fill="black" font-size="11" font-family="Helvetica">
400
</text>
<text x="36" y="223" fill="black" font-size="11" font-family="Helvetica">
600
</text>
<text x="36" y="199" fill="black" font-size="11" font-family="Helvetica">
800
</text>
<text x="30" y="173" fill="black" font-size="11" font-family="Helvetica">
1000
</text>
<text x="30" y="148" fill="black" font-size="11" font-family="Helvetica">
1200
</text>
<text x="30" y="123" fill="black" font-size="11" font-family="Helvetica">
1400
</text>
<text x="30" y="98" fill="black" font-size="11" font-family="Helvetica">
1600
</text>
<text x="30" y="73" fill="black" font-size="11" font-family="Helvetica">
1800
</text>
<text x="30" y="48" fill="black" font-size="11" font-family="Helvetica">
2000
</text>
<rect x="459" y="99" width="102" height="63" fill="white"/>
<path d="M459,162h 102" fill="none" stroke="black"/>
<path d="M561,162v -63" fill="none" stroke="black"/>
<path d="M561,99h -102" fill="none" stroke="black"/>
<path d="M459,99v 63" fill="none" stroke="black"/>
<text x="476" y="107" fill="black" font-size="9" font-family="Helvetica">
Aluminium_1mm
</text>
<path d="M459,110h 102" fill="none" stroke="black"/>
<text x="464" y="118" fill="black" font-size="7" font-family="Helvetica">
Mean  
</text>
<text x="531" y="118" fill="black" font-size="7" font-family="Helvetica">
 0.2066
</text>
<text x="527" y="118" fill="black" font-size="7" font-family="Times">
&#0177;
</text>
<text x="502" y="118" fill="black" font-size="7" font-family="Helvetica">
  50.29 
</text>
<text x="464" y="128" fill="black" font-size="7" font-family="Helvetica">
RMS   
</text>
<text x="532" y="128" fill="black" font-size="7" font-family="Helvetica">
 0.1461
</text>
<text x="528" y="128" fill="black" font-size="7" font-family="Times">
&#0177;
</text>
<text x="503" y="128" fill="black" font-size="7" font-family="Helvetica">
  19.13 
</text>
<text x="464" y="139" fill="black" font-size="7" font-family="Helvetica">
Underflow 
</text>
<text x="539" y="139" fill="black" font-size="7" font-family="Helvetica">
      0
</text>
<text x="464" y="149" fill="black" font-size="7" font-family="Helvetica">
Overflow  
</text>
<text x="539" y="149" fill="black" font-size="7" font-family="Helvetica">
      0
</text>
<text x="464" y="159" fill="black" font-size="7" font-family="Helvetica">
Integral 
</text>
<text x="533" y="160" fill="black" font-size="7" font-family="Helvetica">
   8577
</text>
<path d="M57,295h 8v -1h 8v -16h 8v -17h 7v -30h 8v -23h 8v -39h 8v -39h 8v -42h 16v 129h 8v 6h 8v 35h 8v 12h 8v -3h 8v 2h 8v 1h 8v 1h 8v -1h 7v 6h 16v 5h 8v 3h 8v 2h 8v 3h 8v -1h 8v 2h 8v 3h 8v -1h 8v 1h 16v -1h 8v 1h 8v 1h 15v 1h 120" fill="none"
 stroke="black" stroke-width="2"/>
<rect x="459" y="232" width="102" height="63" fill="white"/>
<path d="M459,295h 102" fill="none" stroke="black"/>
<path d="M561,295v -63" fill="none" stroke="black"/>
<path d="M561,232h -102" fill="none" stroke="black"/>
<path d="M459,232v 63" fill="none" stroke="black"/>
<text x="492" y="240" fill="black" font-size="9" font-family="Helvetica">
Air_5mm
</text>
<path d="M459,243h 102" fill="none" stroke="black"/>
<text x="464" y="250" fill="black" font-size="7" font-family="Helvetica">
Mean  
</text>
<text x="531" y="250" fill="black" font-size="7" font-family="Helvetica">
 0.2073
</text>
<text x="527" y="250" fill="black" font-size="7" font-family="Times">
&#0177;
</text>
<text x="502" y="250" fill="black" font-size="7" font-family="Helvetica">
  41.03 
</text>
<text x="464" y="261" fill="black" font-size="7" font-family="Helvetica">
RMS   
</text>
<text x="531" y="261" fill="black" font-size="7" font-family="Helvetica">
 0.1466
</text>
<text x="527" y="261" fill="black" font-size="7" font-family="Times">
&#0177;
</text>
<text x="502" y="261" fill="black" font-size="7" font-family="Helvetica">
  21.59 
</text>
<text x="464" y="271" fill="black" font-size="7" font-family="Helvetica">
Underflow 
</text>
<text x="539" y="271" fill="black" font-size="7" font-family="Helvetica">
      0
</text>
<text x="464" y="282" fill="black" font-size="7" font-family="Helvetica">
Overflow  
</text>
<text x="539" y="282" fill="black" font-size="7" font-family="Helvetica">
      0
</text>
<text x="464" y="292" fill="black" font-size="7" font-family="Helvetica">
Integral 
</text>
<text x="518" y="292" fill="black" font-size="7" font-family="Helvetica">
 1.085e+04
</text>
<rect x="459" y="232" width="102" height="63" fill="white"/>
<path d="M459,295h 102" fill="none" stroke="black"/>
<path d="M561,295v -63" fill="none" stroke="black"/>
<path d="M561,232h -102" fill="none" stroke="black"/>
<path d="M459,232v 63" fill="none" stroke="black"/>
<text x="492" y="240" fill="black" font-size="9" font-family="Helvetica">
Air_5mm
</text>
<path d="M459,243h 102" fill="none" stroke="black"/>
<text x="464" y="250" fill="black" font-size="7" font-family="Helvetica">
Mean  
</text>
<text x="531" y="250" fill="black" font-size="7" font-family="Helvetica">
 0.2073
</text>
<text x="527" y="250" fill="black" font-size="7" font-family="Times">
&#0177;
</text>
<text x="502" y="250" fill="black" font-size="7" font-family="Helvetica">
  41.03 
</text>
<text x="464" y="261" fill="black" font-size="7" font-family="Helvetica">
RMS   
</text>
<text x="531" y="261" fill="black" font-size="7" font-family="Helvetica">
 0.1466
</text>
<text x="527" y="261" fill="black" font-size="7" font-family="Times">
&#0177;
</text>
<text x="502" y="261" fill="black" font-size="7" font-family="Helvetica">
  21.59 
</text>
<text x="464" y="271" fill="black" font-size="7" font-family="Helvetica">
Underflow 
</text>
<text x="539" y="271" fill="black" font-size="7" font-family="Helvetica">
      0
</text>
<text x="464" y="282" fill="black" font-size="7" font-family="Helvetica">
Overflow  
</text>
<text x="539" y="282" fill="black" font-size="7" font-family="Helvetica">
      0
</text>
<text x="464" y="292" fill="black" font-size="7" font-family="Helvetica">
Integral 
</text>
<text x="518" y="292" fill="black" font-size="7" font-family="Helvetica">
 1.085e+04
</text>
<text x="135" y="16" fill="black" font-size="15" font-family="Helvetica">
Stopped muon momentum
</text>
<path d="M57,295h 47v -18h 8v -134h 8v -45h 8v -39h 8v 52h 8v 104h 8v 19h 8v 38h 8v -5h 8v 3h 8v -6h 8v 8h 8v -2h 7v 7h 8v 3h 8v 1h 8v 3h 8v 3h 8v 2h 8v -1h 8v 1h 8v 2h 8v 1h 24v 1h 24v 1h 23v 1h 104" fill="none" stroke="#ff0000" stroke-width="2"/>
<rect x="459" y="166" width="102" height="63" fill="white"/>
<path d="M459,229h 102" fill="none" stroke="black"/>
<path d="M561,229v -63" fill="none" stroke="black"/>
<path d="M561,166h -102" fill="none" stroke="black"/>
<path d="M459,166v 63" fill="none" stroke="black"/>
<text x="472" y="174" fill="black" font-size="9" font-family="Helvetica">
Aluminium_0.5mm
</text>
<path d="M459,176h 102" fill="none" stroke="black"/>
<text x="464" y="184" fill="black" font-size="7" font-family="Helvetica">
Mean  
</text>
<text x="531" y="184" fill="black" font-size="7" font-family="Helvetica">
 0.2034
</text>
<text x="527" y="184" fill="black" font-size="7" font-family="Times">
&#0177;
</text>
<text x="502" y="184" fill="black" font-size="7" font-family="Helvetica">
  46.68 
</text>
<text x="464" y="195" fill="black" font-size="7" font-family="Helvetica">
RMS   
</text>
<text x="531" y="195" fill="black" font-size="7" font-family="Helvetica">
 0.1438
</text>
<text x="527" y="195" fill="black" font-size="7" font-family="Times">
&#0177;
</text>
<text x="502" y="195" fill="black" font-size="7" font-family="Helvetica">
  19.84 
</text>
<text x="464" y="205" fill="black" font-size="7" font-family="Helvetica">
Underflow 
</text>
<text x="539" y="205" fill="black" font-size="7" font-family="Helvetica">
      0
</text>
<text x="464" y="216" fill="black" font-size="7" font-family="Helvetica">
Overflow  
</text>
<text x="539" y="216" fill="black" font-size="7" font-family="Helvetica">
      0
</text>
<text x="464" y="226" fill="black" font-size="7" font-family="Helvetica">
Integral 
</text>
<text x="533" y="226" fill="black" font-size="7" font-family="Helvetica">
   9516
</text>
<rect x="459" y="166" width="102" height="63" fill="white"/>
<path d="M459,229h 102" fill="none" stroke="black"/>
<path d="M561,229v -63" fill="none" stroke="black"/>
<path d="M561,166h -102" fill="none" stroke="black"/>
<path d="M459,166v 63" fill="none" stroke="black"/>
<text x="472" y="174" fill="black" font-size="9" font-family="Helvetica">
Aluminium_0.5mm
</text>
<path d="M459,176h 102" fill="none" stroke="black"/>
<text x="464" y="184" fill="black" font-size="7" font-family="Helvetica">
Mean  
</text>
<text x="531" y="184" fill="black" font-size="7" font-family="Helvetica">
 0.2034
</text>
<text x="527" y="184" fill="black" font-size="7" font-family="Times">
&#0177;
</text>
<text x="502" y="184" fill="black" font-size="7" font-family="Helvetica">
  46.68 
</text>
<text x="464" y="195" fill="black" font-size="7" font-family="Helvetica">
RMS   
</text>
<text x="531" y="195" fill="black" font-size="7" font-family="Helvetica">
 0.1438
</text>
<text x="527" y="195" fill="black" font-size="7" font-family="Times">
&#0177;
</text>
<text x="502" y="195" fill="black" font-size="7" font-family="Helvetica">
  19.84 
</text>
<text x="464" y="205" fill="black" font-size="7" font-family="Helvetica">
Underflow 
</text>
<text x="539" y="205" fill="black" font-size="7" font-family="Helvetica">
      0
</text>
<text x="464" y="216" fill="black" font-size="7" font-family="Helvetica">
Overflow  
</text>
<text x="539" y="216" fill="black" font-size="7" font-family="Helvetica">
      0
</text>
<text x="464" y="226" fill="black" font-size="7" font-family="Helvetica">
Integral 
</text>
<text x="533" y="226" fill="black" font-size="7" font-family="Helvetica">
   9516
</text>
<path d="M57,295h 95v -2h 8v -154h 8v -91h 8v 149h 8v 68h 8v 3h 8v 7h 7v -2h 8v 4h 8v 3h 8v 4h 8v 1h 8v 2h 8v 1h 8v 1h 8v 3h 24v 1h 8v -1h 8v 1h 8v 1h 23v 1h 8v -1h 8v 1h 96" fill="none" stroke="#00ff00" stroke-width="2"/>
<rect x="459" y="33" width="102" height="63" fill="white"/>
<path d="M459,96h 102" fill="none" stroke="black"/>
<path d="M561,96v -63" fill="none" stroke="black"/>
<path d="M561,33h -102" fill="none" stroke="black"/>
<path d="M459,33v 63" fill="none" stroke="black"/>
<text x="464" y="44" fill="black" font-size="12" font-family="Helvetica">
Aluminium_5mm
</text>
<path d="M459,49h 102" fill="none" stroke="black"/>
<text x="464" y="62" fill="black" font-size="13" font-family="Helvetica">
Entries 
</text>
<text x="525" y="62" fill="black" font-size="13" font-family="Helvetica">
 5621
</text>
<text x="464" y="77" fill="black" font-size="13" font-family="Helvetica">
Mean  
</text>
<text x="515" y="77" fill="black" font-size="13" font-family="Helvetica">
  65.66
</text>
<text x="464" y="93" fill="black" font-size="13" font-family="Helvetica">
RMS   
</text>
<text x="515" y="93" fill="black" font-size="13" font-family="Helvetica">
  16.86
</text>
<rect x="459" y="33" width="102" height="63" fill="white"/>
<path d="M459,96h 102" fill="none" stroke="black"/>
<path d="M561,96v -63" fill="none" stroke="black"/>
<path d="M561,33h -102" fill="none" stroke="black"/>
<path d="M459,33v 63" fill="none" stroke="black"/>
<text x="476" y="41" fill="black" font-size="9" font-family="Helvetica">
Aluminium_5mm
</text>
<path d="M459,43h 102" fill="none" stroke="black"/>
<text x="464" y="51" fill="black" font-size="7" font-family="Helvetica">
Mean  
</text>
<text x="531" y="51" fill="black" font-size="7" font-family="Helvetica">
 0.2249
</text>
<text x="527" y="51" fill="black" font-size="7" font-family="Times">
&#0177;
</text>
<text x="502" y="51" fill="black" font-size="7" font-family="Helvetica">
  65.66 
</text>
<text x="464" y="62" fill="black" font-size="7" font-family="Helvetica">
RMS   
</text>
<text x="533" y="62" fill="black" font-size="7" font-family="Helvetica">
  0.159
</text>
<text x="529" y="62" fill="black" font-size="7" font-family="Times">
&#0177;
</text>
<text x="504" y="62" fill="black" font-size="7" font-family="Helvetica">
  16.86 
</text>
<text x="464" y="72" fill="black" font-size="7" font-family="Helvetica">
Underflow 
</text>
<text x="539" y="72" fill="black" font-size="7" font-family="Helvetica">
      0
</text>
<text x="464" y="83" fill="black" font-size="7" font-family="Helvetica">
Overflow  
</text>
<text x="539" y="83" fill="black" font-size="7" font-family="Helvetica">
      0
</text>
<text x="464" y="93" fill="black" font-size="7" font-family="Helvetica">
Integral 
</text>
<text x="534" y="93" fill="black" font-size="7" font-family="Helvetica">
   5621
</text>
<rect x="340" y="33" width="114" height="52" fill="white"/>
<path d="M340,85h 114" fill="none" stroke="black"/>
<path d="M454,85v -52" fill="none" stroke="black"/>
<path d="M454,33h -114" fill="none" stroke="black"/>
<path d="M340,33v 52" fill="none" stroke="black"/>
<text x="368" y="42" fill="black" font-size="8" font-family="Helvetica" font-weight="bold">
Air_5mm
</text>
<path d="M344,44h 20v -9h -20z" fill="white"/>
<path d="M344,40h 20" fill="none" stroke="black" stroke-width="2"/>
<g stroke="black" stroke-width="2" fill="none">
<line x1="353" y1="40" x2="354" y2="40"/>
</g>
<text x="368" y="55" fill="black" font-size="8" font-family="Helvetica" font-weight="bold">
Aluminium_0.5mm
</text>
<path d="M344,57h 20v -9h -20z" fill="white"/>
<path d="M344,53h 20" fill="none" stroke="#ff0000" stroke-width="2"/>
<g stroke="black" stroke-width="2" fill="none">
<line x1="353" y1="53" x2="354" y2="53"/>
</g>
<text x="368" y="68" fill="black" font-size="8" font-family="Helvetica" font-weight="bold">
Aluminium_1mm
</text>
<path d="M344,70h 20v -9h -20z" fill="white"/>
<path d="M344,66h 20" fill="none" stroke="#0000ff" stroke-width="2"/>
<g stroke="black" stroke-width="2" fill="none">
<line x1="353" y1="66" x2="354" y2="66"/>
</g>
<text x="368" y="81" fill="black" font-size="8" font-family="Helvetica" font-weight="bold">
Aluminium_5mm
</text>
<path d="M344,83h 20v -9h -20z" fill="white"/>
<path d="M344,79h 20" fill="none" stroke="#00ff00" stroke-width="2"/>
<g stroke="black" stroke-width="2" fill="none">
<line x1="353" y1="79" x2="354" y2="79"/>
</g></svg>
