<?xml version="1.0" standalone="no"?>
<svg width="567" height="328" viewBox="0 0 567 328" xmlns="http://www.w3.org/2000/svg">
<title>
images/stopped_muon_momentum.svg
</title>
<desc>
Creator: ROOT Version 5.34/09
CreationDate: Tue Jan  7 11:03:09 2014</desc>
<defs>
</defs>
<rect x="0" y="0" width="567" height="328" fill="white"/>
<rect x="57" y="33" width="397" height="262" fill="white"/>
<rect x="57" y="33" width="397" height="262" fill="none" stroke="black"/>
<rect x="57" y="33" width="397" height="262" fill="white"/>
<rect x="57" y="33" width="397" height="262" fill="none" stroke="black"/>
<path d="M57,295h 86v -112h 6v -138h 7v 105h 7v 60h 6v 48h 7v 2h 6v 8h 7v 7h 7v 2h 6v 6h 7v 3h 6v 1h 7v 2h 7v -1h 6v 3h 7v 1h 7v 1h 13v 1h 6v -1h 14v 2h 172" fill="none" stroke="#00ff00" stroke-width="2"/>
<rect x="459" y="33" width="102" height="63" fill="white"/>
<path d="M459,96h 102" fill="none" stroke="black"/>
<path d="M561,96v -63" fill="none" stroke="black"/>
<path d="M561,33h -102" fill="none" stroke="black"/>
<path d="M459,33v 63" fill="none" stroke="black"/>
<text x="465" y="45" fill="black" font-size="13" font-family="Helvetica">
5mm Aluminium
</text>
<path d="M459,49h 102" fill="none" stroke="black"/>
<text x="464" y="60" fill="black" font-size="8" font-family="Helvetica">
Mean  
</text>
<text x="527" y="60" fill="black" font-size="8" font-family="Helvetica">
 0.2214
</text>
<text x="522" y="60" fill="black" font-size="8" font-family="Times">
&#0177;
</text>
<text x="493" y="60" fill="black" font-size="8" font-family="Helvetica">
  66.09 
</text>
<text x="464" y="76" fill="black" font-size="8" font-family="Helvetica">
RMS   
</text>
<text x="527" y="75" fill="black" font-size="8" font-family="Helvetica">
 0.1566
</text>
<text x="522" y="75" fill="black" font-size="8" font-family="Times">
&#0177;
</text>
<text x="495" y="75" fill="black" font-size="8" font-family="Helvetica">
   14.8 
</text>
<text x="464" y="91" fill="black" font-size="8" font-family="Helvetica">
Integral 
</text>
<text x="512" y="91" fill="black" font-size="8" font-family="Helvetica">
 3.097e+07
</text>
<path d="M57,295h 397" fill="none" stroke="black"/>
<text x="360" y="320" fill="black" font-size="11" font-family="Helvetica">
Momentum (MeV/c)
</text>
<path d="M57,288v 7" fill="none" stroke="black"/>
<path d="M65,292v 3" fill="none" stroke="black"/>
<path d="M73,292v 3" fill="none" stroke="black"/>
<path d="M81,292v 3" fill="none" stroke="black"/>
<path d="M90,288v 7" fill="none" stroke="black"/>
<path d="M98,292v 3" fill="none" stroke="black"/>
<path d="M106,292v 3" fill="none" stroke="black"/>
<path d="M115,292v 3" fill="none" stroke="black"/>
<path d="M123,288v 7" fill="none" stroke="black"/>
<path d="M131,292v 3" fill="none" stroke="black"/>
<path d="M139,292v 3" fill="none" stroke="black"/>
<path d="M148,292v 3" fill="none" stroke="black"/>
<path d="M156,288v 7" fill="none" stroke="black"/>
<path d="M164,292v 3" fill="none" stroke="black"/>
<path d="M172,292v 3" fill="none" stroke="black"/>
<path d="M181,292v 3" fill="none" stroke="black"/>
<path d="M189,288v 7" fill="none" stroke="black"/>
<path d="M197,292v 3" fill="none" stroke="black"/>
<path d="M206,292v 3" fill="none" stroke="black"/>
<path d="M214,292v 3" fill="none" stroke="black"/>
<path d="M222,288v 7" fill="none" stroke="black"/>
<path d="M230,292v 3" fill="none" stroke="black"/>
<path d="M239,292v 3" fill="none" stroke="black"/>
<path d="M247,292v 3" fill="none" stroke="black"/>
<path d="M255,288v 7" fill="none" stroke="black"/>
<path d="M263,292v 3" fill="none" stroke="black"/>
<path d="M272,292v 3" fill="none" stroke="black"/>
<path d="M280,292v 3" fill="none" stroke="black"/>
<path d="M288,288v 7" fill="none" stroke="black"/>
<path d="M296,292v 3" fill="none" stroke="black"/>
<path d="M305,292v 3" fill="none" stroke="black"/>
<path d="M313,292v 3" fill="none" stroke="black"/>
<path d="M321,288v 7" fill="none" stroke="black"/>
<path d="M330,292v 3" fill="none" stroke="black"/>
<path d="M338,292v 3" fill="none" stroke="black"/>
<path d="M346,292v 3" fill="none" stroke="black"/>
<path d="M354,288v 7" fill="none" stroke="black"/>
<path d="M363,292v 3" fill="none" stroke="black"/>
<path d="M371,292v 3" fill="none" stroke="black"/>
<path d="M379,292v 3" fill="none" stroke="black"/>
<path d="M387,288v 7" fill="none" stroke="black"/>
<path d="M396,292v 3" fill="none" stroke="black"/>
<path d="M404,292v 3" fill="none" stroke="black"/>
<path d="M412,292v 3" fill="none" stroke="black"/>
<path d="M420,288v 7" fill="none" stroke="black"/>
<path d="M429,292v 3" fill="none" stroke="black"/>
<path d="M437,292v 3" fill="none" stroke="black"/>
<path d="M445,292v 3" fill="none" stroke="black"/>
<path d="M454,288v 7" fill="none" stroke="black"/>
<text x="54" y="306" fill="black" font-size="11" font-family="Helvetica">
0
</text>
<text x="84" y="306" fill="black" font-size="11" font-family="Helvetica">
20
</text>
<text x="117" y="306" fill="black" font-size="11" font-family="Helvetica">
40
</text>
<text x="150" y="306" fill="black" font-size="11" font-family="Helvetica">
60
</text>
<text x="183" y="306" fill="black" font-size="11" font-family="Helvetica">
80
</text>
<text x="213" y="306" fill="black" font-size="11" font-family="Helvetica">
100
</text>
<text x="246" y="306" fill="black" font-size="11" font-family="Helvetica">
120
</text>
<text x="279" y="306" fill="black" font-size="11" font-family="Helvetica">
140
</text>
<text x="312" y="306" fill="black" font-size="11" font-family="Helvetica">
160
</text>
<text x="346" y="306" fill="black" font-size="11" font-family="Helvetica">
180
</text>
<text x="378" y="306" fill="black" font-size="11" font-family="Helvetica">
200
</text>
<text x="412" y="306" fill="black" font-size="11" font-family="Helvetica">
220
</text>
<text x="445" y="306" fill="black" font-size="11" font-family="Helvetica">
240
</text>
<path d="M57,295v -262" fill="none" stroke="black"/>
<g transform="rotate(-90,18,40)">
<text x="18" y="40" fill="black" font-size="11" font-family="Helvetica">
A
</text>
</g>
<g transform="rotate(-90,18,46)">
<text x="18" y="46" fill="black" font-size="11" font-family="Times">
&#0956;
</text>
</g>
<g transform="rotate(-90,18,124)">
<text x="18" y="124" fill="black" font-size="11" font-family="Helvetica">
Stopped muons/
</text>
</g>
<path d="M70,295h -13" fill="none" stroke="black"/>
<path d="M63,282h -6" fill="none" stroke="black"/>
<path d="M63,270h -6" fill="none" stroke="black"/>
<path d="M63,257h -6" fill="none" stroke="black"/>
<path d="M70,244h -13" fill="none" stroke="black"/>
<path d="M63,231h -6" fill="none" stroke="black"/>
<path d="M63,218h -6" fill="none" stroke="black"/>
<path d="M63,205h -6" fill="none" stroke="black"/>
<path d="M70,192h -13" fill="none" stroke="black"/>
<path d="M63,180h -6" fill="none" stroke="black"/>
<path d="M63,167h -6" fill="none" stroke="black"/>
<path d="M63,154h -6" fill="none" stroke="black"/>
<path d="M70,141h -13" fill="none" stroke="black"/>
<path d="M63,128h -6" fill="none" stroke="black"/>
<path d="M63,115h -6" fill="none" stroke="black"/>
<path d="M63,102h -6" fill="none" stroke="black"/>
<path d="M70,90h -13" fill="none" stroke="black"/>
<path d="M63,77h -6" fill="none" stroke="black"/>
<path d="M63,64h -6" fill="none" stroke="black"/>
<path d="M63,51h -6" fill="none" stroke="black"/>
<path d="M70,38h -13" fill="none" stroke="black"/>
<path d="M70,38h -13" fill="none" stroke="black"/>
<text x="48" y="299" fill="black" font-size="11" font-family="Helvetica">
0
</text>
<text x="30" y="248" fill="black" font-size="11" font-family="Helvetica">
2000
</text>
<text x="30" y="196" fill="black" font-size="11" font-family="Helvetica">
4000
</text>
<text x="30" y="145" fill="black" font-size="11" font-family="Helvetica">
6000
</text>
<text x="30" y="93" fill="black" font-size="11" font-family="Helvetica">
8000
</text>
<text x="25" y="42" fill="black" font-size="11" font-family="Helvetica">
10000
</text>
<text x="74" y="26" fill="black" font-size="7" font-family="Helvetica">
3
</text>
<text x="63" y="31" fill="black" font-size="11" font-family="Helvetica">
10
</text>
<text x="57" y="31" fill="black" font-size="11" font-family="Times">
&#0215;
</text>
<rect x="459" y="33" width="102" height="63" fill="white"/>
<path d="M459,96h 102" fill="none" stroke="black"/>
<path d="M561,96v -63" fill="none" stroke="black"/>
<path d="M561,33h -102" fill="none" stroke="black"/>
<path d="M459,33v 63" fill="none" stroke="black"/>
<text x="465" y="45" fill="black" font-size="13" font-family="Helvetica">
5mm Aluminium
</text>
<path d="M459,49h 102" fill="none" stroke="black"/>
<text x="464" y="60" fill="black" font-size="8" font-family="Helvetica">
Mean  
</text>
<text x="527" y="60" fill="black" font-size="8" font-family="Helvetica">
 0.2214
</text>
<text x="522" y="60" fill="black" font-size="8" font-family="Times">
&#0177;
</text>
<text x="493" y="60" fill="black" font-size="8" font-family="Helvetica">
  66.09 
</text>
<text x="464" y="76" fill="black" font-size="8" font-family="Helvetica">
RMS   
</text>
<text x="527" y="75" fill="black" font-size="8" font-family="Helvetica">
 0.1566
</text>
<text x="522" y="75" fill="black" font-size="8" font-family="Times">
&#0177;
</text>
<text x="495" y="75" fill="black" font-size="8" font-family="Helvetica">
   14.8 
</text>
<text x="464" y="91" fill="black" font-size="8" font-family="Helvetica">
Integral 
</text>
<text x="512" y="91" fill="black" font-size="8" font-family="Helvetica">
 3.097e+07
</text>
<path d="M57,295h 20v -1h 6v -49h 7v -26h 6v -29h 7v -24h 7v -35h 6v -27h 7v 73h 6v 16h 7v 5h 7v 45h 6v 14h 7v -1h 7v -1h 6v 6h 7v 8h 6v -2h 7v 9h 7v 7h 6v -1h 7v 4h 6v 1h 7v 1h 7v 2h 6v 2h 14v -1h 6v 2h 13v 1h 7v 1h 13v -1h 13v 1h 27v -1h 6v 1h 120"
 fill="none" stroke="black" stroke-width="2"/>
<rect x="459" y="232" width="102" height="63" fill="white"/>
<path d="M459,295h 102" fill="none" stroke="black"/>
<path d="M561,295v -63" fill="none" stroke="black"/>
<path d="M561,232h -102" fill="none" stroke="black"/>
<path d="M459,232v 63" fill="none" stroke="black"/>
<text x="485" y="245" fill="black" font-size="13" font-family="Helvetica">
5mm Air
</text>
<path d="M459,248h 102" fill="none" stroke="black"/>
<text x="464" y="259" fill="black" font-size="9" font-family="Helvetica">
Mean  
</text>
<text x="527" y="259" fill="black" font-size="9" font-family="Helvetica">
 0.2376
</text>
<text x="522" y="259" fill="black" font-size="9" font-family="Times">
&#0177;
</text>
<text x="493" y="259" fill="black" font-size="9" font-family="Helvetica">
  45.27 
</text>
<text x="464" y="275" fill="black" font-size="9" font-family="Helvetica">
RMS   
</text>
<text x="529" y="275" fill="black" font-size="9" font-family="Helvetica">
  0.168
</text>
<text x="525" y="275" fill="black" font-size="9" font-family="Times">
&#0177;
</text>
<text x="495" y="275" fill="black" font-size="9" font-family="Helvetica">
  20.99 
</text>
<text x="464" y="290" fill="black" font-size="9" font-family="Helvetica">
Integral 
</text>
<text x="512" y="290" fill="black" font-size="9" font-family="Helvetica">
 5.416e+07
</text>
<rect x="459" y="232" width="102" height="63" fill="white"/>
<path d="M459,295h 102" fill="none" stroke="black"/>
<path d="M561,295v -63" fill="none" stroke="black"/>
<path d="M561,232h -102" fill="none" stroke="black"/>
<path d="M459,232v 63" fill="none" stroke="black"/>
<text x="485" y="245" fill="black" font-size="13" font-family="Helvetica">
5mm Air
</text>
<path d="M459,248h 102" fill="none" stroke="black"/>
<text x="464" y="259" fill="black" font-size="9" font-family="Helvetica">
Mean  
</text>
<text x="527" y="259" fill="black" font-size="9" font-family="Helvetica">
 0.2376
</text>
<text x="522" y="259" fill="black" font-size="9" font-family="Times">
&#0177;
</text>
<text x="493" y="259" fill="black" font-size="9" font-family="Helvetica">
  45.27 
</text>
<text x="464" y="275" fill="black" font-size="9" font-family="Helvetica">
RMS   
</text>
<text x="529" y="275" fill="black" font-size="9" font-family="Helvetica">
  0.168
</text>
<text x="525" y="275" fill="black" font-size="9" font-family="Times">
&#0177;
</text>
<text x="495" y="275" fill="black" font-size="9" font-family="Helvetica">
  20.99 
</text>
<text x="464" y="290" fill="black" font-size="9" font-family="Helvetica">
Integral 
</text>
<text x="512" y="290" fill="black" font-size="9" font-family="Helvetica">
 5.416e+07
</text>
<text x="132" y="16" fill="black" font-size="15" font-family="Helvetica">
Stopped muon momentum
</text>
<path d="M57,295h 46v -110h 7v -49h 6v -28h 7v -8h 6v 71h 7v 23h 7v 31h 6v 28h 7v 8h 7v -7h 6v 7h 7v 2h 6v 7h 7v 4h 7v 7h 6v 2h 7v 1h 6v 2h 7v 4h 7v 1h 20v 1h 19v 2h 7v 1h 13v -1h 7v 1h 159" fill="none" stroke="#ff0000" stroke-width="2"/>
<rect x="459" y="166" width="102" height="63" fill="white"/>
<path d="M459,229h 102" fill="none" stroke="black"/>
<path d="M561,229v -63" fill="none" stroke="black"/>
<path d="M561,166h -102" fill="none" stroke="black"/>
<path d="M459,166v 63" fill="none" stroke="black"/>
<text x="464" y="178" fill="black" font-size="11" font-family="Helvetica">
0.5mm Aluminium
</text>
<path d="M459,182h 102" fill="none" stroke="black"/>
<text x="464" y="193" fill="black" font-size="9" font-family="Helvetica">
Mean  
</text>
<text x="529" y="192" fill="black" font-size="9" font-family="Helvetica">
 0.2251
</text>
<text x="524" y="192" fill="black" font-size="9" font-family="Times">
&#0177;
</text>
<text x="494" y="192" fill="black" font-size="9" font-family="Helvetica">
  49.62 
</text>
<text x="464" y="208" fill="black" font-size="9" font-family="Helvetica">
RMS   
</text>
<text x="527" y="208" fill="black" font-size="9" font-family="Helvetica">
 0.1592
</text>
<text x="522" y="208" fill="black" font-size="9" font-family="Times">
&#0177;
</text>
<text x="493" y="208" fill="black" font-size="9" font-family="Helvetica">
  18.89 
</text>
<text x="464" y="223" fill="black" font-size="9" font-family="Helvetica">
Integral 
</text>
<text x="512" y="224" fill="black" font-size="9" font-family="Helvetica">
 4.883e+07
</text>
<rect x="459" y="166" width="102" height="63" fill="white"/>
<path d="M459,229h 102" fill="none" stroke="black"/>
<path d="M561,229v -63" fill="none" stroke="black"/>
<path d="M561,166h -102" fill="none" stroke="black"/>
<path d="M459,166v 63" fill="none" stroke="black"/>
<text x="464" y="178" fill="black" font-size="11" font-family="Helvetica">
0.5mm Aluminium
</text>
<path d="M459,182h 102" fill="none" stroke="black"/>
<text x="464" y="193" fill="black" font-size="9" font-family="Helvetica">
Mean  
</text>
<text x="529" y="192" fill="black" font-size="9" font-family="Helvetica">
 0.2251
</text>
<text x="524" y="192" fill="black" font-size="9" font-family="Times">
&#0177;
</text>
<text x="494" y="192" fill="black" font-size="9" font-family="Helvetica">
  49.62 
</text>
<text x="464" y="208" fill="black" font-size="9" font-family="Helvetica">
RMS   
</text>
<text x="527" y="208" fill="black" font-size="9" font-family="Helvetica">
 0.1592
</text>
<text x="522" y="208" fill="black" font-size="9" font-family="Times">
&#0177;
</text>
<text x="493" y="208" fill="black" font-size="9" font-family="Helvetica">
  18.89 
</text>
<text x="464" y="223" fill="black" font-size="9" font-family="Helvetica">
Integral 
</text>
<text x="512" y="224" fill="black" font-size="9" font-family="Helvetica">
 4.883e+07
</text>
<path d="M57,295h 53v -66h 6v -117h 7v -22h 6v 22h 7v 79h 7v 10h 6v 47h 7v 8h 7v 1h 6v 2h 7v 6h 6v 2h 7v 9h 7v 3h 6v 6h 7v -1h 6v 4h 7v 2h 7v -3h 6v 5h 7v 1h 7v -2h 6v 2h 13v 1h 7v 1h 7v -1h 6v 1h 166" fill="none" stroke="#0000ff" stroke-width="2"/>
<rect x="459" y="99" width="102" height="63" fill="white"/>
<path d="M459,162h 102" fill="none" stroke="black"/>
<path d="M561,162v -63" fill="none" stroke="black"/>
<path d="M561,99h -102" fill="none" stroke="black"/>
<path d="M459,99v 63" fill="none" stroke="black"/>
<text x="465" y="112" fill="black" font-size="13" font-family="Helvetica">
1mm Aluminium
</text>
<path d="M459,115h 102" fill="none" stroke="black"/>
<text x="464" y="126" fill="black" font-size="9" font-family="Helvetica">
Mean  
</text>
<text x="527" y="126" fill="black" font-size="9" font-family="Helvetica">
 0.2205
</text>
<text x="522" y="126" fill="black" font-size="9" font-family="Times">
&#0177;
</text>
<text x="495" y="126" fill="black" font-size="9" font-family="Helvetica">
   52.6 
</text>
<text x="464" y="142" fill="black" font-size="9" font-family="Helvetica">
RMS   
</text>
<text x="527" y="142" fill="black" font-size="9" font-family="Helvetica">
 0.1559
</text>
<text x="522" y="142" fill="black" font-size="9" font-family="Times">
&#0177;
</text>
<text x="494" y="142" fill="black" font-size="9" font-family="Helvetica">
  17.71 
</text>
<text x="464" y="157" fill="black" font-size="9" font-family="Helvetica">
Integral 
</text>
<text x="512" y="157" fill="black" font-size="9" font-family="Helvetica">
 4.476e+07
</text>
<rect x="459" y="99" width="102" height="63" fill="white"/>
<path d="M459,162h 102" fill="none" stroke="black"/>
<path d="M561,162v -63" fill="none" stroke="black"/>
<path d="M561,99h -102" fill="none" stroke="black"/>
<path d="M459,99v 63" fill="none" stroke="black"/>
<text x="465" y="112" fill="black" font-size="13" font-family="Helvetica">
1mm Aluminium
</text>
<path d="M459,115h 102" fill="none" stroke="black"/>
<text x="464" y="126" fill="black" font-size="9" font-family="Helvetica">
Mean  
</text>
<text x="527" y="126" fill="black" font-size="9" font-family="Helvetica">
 0.2205
</text>
<text x="522" y="126" fill="black" font-size="9" font-family="Times">
&#0177;
</text>
<text x="495" y="126" fill="black" font-size="9" font-family="Helvetica">
   52.6 
</text>
<text x="464" y="142" fill="black" font-size="9" font-family="Helvetica">
RMS   
</text>
<text x="527" y="142" fill="black" font-size="9" font-family="Helvetica">
 0.1559
</text>
<text x="522" y="142" fill="black" font-size="9" font-family="Times">
&#0177;
</text>
<text x="494" y="142" fill="black" font-size="9" font-family="Helvetica">
  17.71 
</text>
<text x="464" y="157" fill="black" font-size="9" font-family="Helvetica">
Integral 
</text>
<text x="512" y="157" fill="black" font-size="9" font-family="Helvetica">
 4.476e+07
</text>
<rect x="340" y="33" width="114" height="52" fill="white"/>
<path d="M340,85h 114" fill="none" stroke="black"/>
<path d="M454,85v -52" fill="none" stroke="black"/>
<path d="M454,33h -114" fill="none" stroke="black"/>
<path d="M340,33v 52" fill="none" stroke="black"/>
<text x="368" y="43" fill="black" font-size="8" font-family="Helvetica">
5mm Air
</text>
<path d="M344,44h 20v -9h -20z" fill="white"/>
<path d="M344,40h 20" fill="none" stroke="black" stroke-width="2"/>
<g stroke="black" stroke-width="2" fill="none">
<line x1="353" y1="40" x2="354" y2="40"/>
</g>
<text x="368" y="56" fill="black" font-size="8" font-family="Helvetica">
0.5mm Aluminium
</text>
<path d="M344,57h 20v -9h -20z" fill="white"/>
<path d="M344,53h 20" fill="none" stroke="#ff0000" stroke-width="2"/>
<g stroke="black" stroke-width="2" fill="none">
<line x1="353" y1="53" x2="354" y2="53"/>
</g>
<text x="368" y="69" fill="black" font-size="8" font-family="Helvetica">
1mm Aluminium
</text>
<path d="M344,70h 20v -9h -20z" fill="white"/>
<path d="M344,66h 20" fill="none" stroke="#0000ff" stroke-width="2"/>
<g stroke="black" stroke-width="2" fill="none">
<line x1="353" y1="66" x2="354" y2="66"/>
</g>
<text x="368" y="82" fill="black" font-size="8" font-family="Helvetica">
5mm Aluminium
</text>
<path d="M344,83h 20v -9h -20z" fill="white"/>
<path d="M344,79h 20" fill="none" stroke="#00ff00" stroke-width="2"/>
<g stroke="black" stroke-width="2" fill="none">
<line x1="353" y1="79" x2="354" y2="79"/>
</g></svg>
